<?xml version="1.0" encoding="UTF-8"?>
<!DOCTYPE svg PUBLIC "-//W3C//DTD SVG 1.1//EN" "http://www.w3.org/Graphics/SVG/1.1/DTD/svg11.dtd">
<!-- Creator: CorelDRAW -->
<svg xmlns="http://www.w3.org/2000/svg" xml:space="preserve" width="773px" height="687px" version="1.1" style="shape-rendering:geometricPrecision; text-rendering:geometricPrecision; image-rendering:optimizeQuality; fill-rule:evenodd; clip-rule:evenodd"
viewBox="0 0 151.16 134.38"
 xmlns:xlink="http://www.w3.org/1999/xlink"
 xmlns:xodm="http://www.corel.com/coreldraw/odm/2003">
 <defs>
  <style type="text/css">
   <![CDATA[
    .fil0 {fill:white}
   ]]>
  </style>
 </defs>
 <g id="Layer_x0020_1">
  <metadata id="CorelCorpID_0Corel-Layer"/>
  <path class="fil0" d="M36.17 73.91l-5.04 -2.69 0 5.46 5.04 2.69 0 -5.46zm21.97 -24.57c3.31,-0.57 6.71,-1.45 10.19,-2.61 3.48,-1.16 6.89,-2.41 10.24,-3.73 3.37,-1.34 6.23,-2.38 8.63,-3.15 2.4,-0.77 4.47,-1.31 6.17,-1.64 1.71,-0.32 3.13,-0.42 4.25,-0.3 1.13,0.11 2.08,0.37 2.85,0.78 1.2,0.64 1.82,1.4 1.84,2.29 0.01,0.89 -0.37,1.83 -1.16,2.84 -0.79,1.01 -1.91,2.03 -3.38,3.07 -1.46,1.04 -3.06,2.02 -4.77,2.93 -1.57,0.84 -3.37,1.61 -5.37,2.29 -2,0.69 -4.04,1.19 -6.1,1.52 -2.06,0.33 -4.05,0.44 -5.99,0.32 -1.93,-0.12 -3.64,-0.58 -5.13,-1.38 -4.01,2.15 -8.03,4.29 -12.05,6.43 3.03,1.61 6.39,2.61 10.09,2.96 3.71,0.35 7.51,0.25 11.39,-0.31 3.88,-0.56 7.73,-1.49 11.52,-2.77 3.81,-1.29 7.26,-2.76 10.36,-4.42 4.03,-2.14 7.29,-4.26 9.79,-6.37 2.51,-2.1 4.23,-4.13 5.14,-6.08 0.91,-1.95 1,-3.76 0.28,-5.45 -0.73,-1.68 -2.29,-3.18 -4.68,-4.45 -2.55,-1.36 -5.27,-2.2 -8.15,-2.5 -2.89,-0.3 -5.98,-0.2 -9.26,0.33 -3.28,0.53 -6.8,1.39 -10.56,2.6 -3.76,1.21 -7.81,2.68 -12.16,4.37 -5.64,2.2 -9.99,3.67 -13.06,4.4 -3.06,0.73 -5.46,0.64 -7.19,-0.29 -0.96,-0.51 -1.46,-1.13 -1.51,-1.87 -0.04,-0.74 0.25,-1.55 0.93,-2.43 0.68,-0.87 1.65,-1.76 2.9,-2.69 1.25,-0.92 2.67,-1.81 4.25,-2.65 3.83,-2.05 7.56,-3.27 11.16,-3.65 3.61,-0.39 6.49,0 8.64,1.15 4.02,-2.14 8.04,-4.28 12.06,-6.43 -1.97,-1.05 -4.42,-1.83 -7.37,-2.37 -2.93,-0.53 -6.18,-0.69 -9.72,-0.46 -3.54,0.22 -7.32,0.89 -11.32,2 -3.44,0.96 -6.97,2.33 -10.57,4.13 -0.57,0.28 -1.15,0.59 -1.74,0.9 -3.71,1.98 -6.7,3.96 -8.97,5.93 -2.26,1.98 -3.81,3.88 -4.67,5.69 -0.86,1.82 -0.98,3.51 -0.36,5.07 0.62,1.57 2,2.92 4.17,4.08 2.68,1.43 5.59,2.25 8.71,2.45 3.13,0.21 6.35,0.04 9.68,-0.53zm-32.05 19.19l-5.04 -2.69 0 5.46 5.04 2.69 0 -5.46zm2.15 28.03l-5.04 -2.69 0 5.46 5.04 2.69 0 -5.46zm47.34 18.06l-68.91 -36.76 3.49 -1.86 -6.66 -3.56 -3.5 1.86 0 19.77 75.58 40.31 75.58 -40.31 0 -7.11 -75.58 40.31 -42.3 -22.56 0 -5.46 42.3 22.56 0 -7.19zm0 -114.62l-75.58 40.31 75.58 40.32 75.58 -40.32 -75.58 -40.31zm0 87.74l-68.91 -36.76 3.49 -1.86 -6.66 -3.56 -3.5 1.87 0 19.76 75.58 40.32 75.58 -40.32 0 -7.11 -75.58 40.31 -34.38 -18.33 0 -5.46 34.38 18.34 0 -7.2z"/>
 </g>
</svg>
