<?xml version="1.0" encoding="UTF-8"?>
<!DOCTYPE svg PUBLIC "-//W3C//DTD SVG 1.1//EN" "http://www.w3.org/Graphics/SVG/1.1/DTD/svg11.dtd">
<!-- Creator: CorelDRAW -->
<svg xmlns="http://www.w3.org/2000/svg" xml:space="preserve" width="700px" height="686px" version="1.1" style="shape-rendering:geometricPrecision; text-rendering:geometricPrecision; image-rendering:optimizeQuality; fill-rule:evenodd; clip-rule:evenodd"
viewBox="0 0 119.67 117.29"
 xmlns:xlink="http://www.w3.org/1999/xlink"
 xmlns:xodm="http://www.corel.com/coreldraw/odm/2003">
 <defs>
  <style type="text/css">
   <![CDATA[
    .fil0 {fill:white}
   ]]>
  </style>
 </defs>
 <g id="Layer_x0020_1">
  <metadata id="CorelCorpID_0Corel-Layer"/>
  <path class="fil0" d="M92.16 45.23c-0.63,0.63 -1.53,1.26 -2.72,1.89 -4.8,2.57 -9.61,5.13 -14.43,7.7 -4.81,2.56 -9.62,5.13 -14.42,7.69 -0.46,0.25 -0.99,0.24 -1.47,-0.01 -1.08,-0.58 -2.16,-1.15 -3.24,-1.73 -0.34,-0.18 -0.45,-0.38 -0.31,-0.57 0.05,-0.07 0.14,-0.14 0.28,-0.21 4.66,-2.49 9.33,-4.98 13.98,-7.46 4.67,-2.49 9.33,-4.98 14,-7.47 2.96,-1.58 2.21,-3.12 -0.48,-4.56 -1.08,-0.57 -2.15,-1.15 -3.23,-1.73 -2.96,-1.58 -5.7,-1.73 -8.51,-0.23 -3.45,1.85 -6.91,3.69 -10.37,5.53 -3.45,1.84 -6.91,3.69 -10.36,5.53 -4.13,2.2 -8.45,2.6 -12.72,1.32 -1.27,-0.38 -2.54,-0.91 -3.79,-1.58 -1.31,-0.7 -2.62,-1.4 -3.93,-2.1 -1.19,-0.63 -2.15,-1.28 -2.84,-1.96 -1.6,-1.55 -1.78,-3.2 -0.07,-4.88 0.64,-0.63 1.54,-1.27 2.74,-1.91 4.58,-2.44 9.17,-4.89 13.75,-7.34 4.59,-2.44 9.18,-4.89 13.77,-7.34 0.37,-0.2 0.76,-0.25 1.12,-0.16 0.14,0.04 0.27,0.09 0.39,0.15 1.08,0.58 2.16,1.15 3.24,1.73 0.48,0.26 0.49,0.54 -0.02,0.81 -4.45,2.37 -8.9,4.75 -13.35,7.12 -4.46,2.37 -8.9,4.75 -13.36,7.12 -2.96,1.58 -2.19,3.13 0.49,4.57 0.92,0.49 1.84,0.97 2.75,1.46 2.96,1.58 5.69,1.73 8.5,0.23 3.45,-1.84 6.91,-3.68 10.37,-5.52 3.45,-1.84 6.91,-3.69 10.36,-5.54 4.14,-2.21 8.47,-2.59 12.75,-1.31 1.27,0.38 2.53,0.91 3.78,1.58 1.47,0.78 2.94,1.56 4.41,2.35 1.18,0.63 2.14,1.28 2.83,1.95 1.61,1.56 1.8,3.2 0.11,4.88zm-39.11 -32.82c3.3,1.77 6.61,3.53 9.91,5.3 3.31,-1.77 6.62,-3.53 9.92,-5.3 -3.3,-1.76 -6.61,-3.52 -9.92,-5.28 -5.69,3.03 1.26,-0.67 -9.91,5.28zm6.78 89.23l-54.55 -29.1 2.77 -1.48 -5.28 -2.81 -2.77 1.48 0 5 0 10.64 59.83 31.92 38.72 -20.66 5.28 -2.81 15.84 -8.45 0 -5.63 -15.84 8.45 -5.28 2.81 -38.72 20.66 -27.21 -14.52 -6.27 -3.35 0 -4.32 6.83 3.65 26.65 14.22 0 -5.7zm-41.46 -12.1l0 -4.32 3.99 2.12 0 4.33 -3.99 -2.13zm41.46 -9.17l-54.55 -29.11 2.77 -1.47 -5.28 -2.82 -2.77 1.48 0 15.65 59.83 31.91 59.84 -31.91 0 -5.64 -59.84 31.92 -27.21 -14.52 0 -4.32 27.21 14.52 0 -5.69zm-43.17 -13.02l0 -4.32 3.99 2.13 0 4.32 -3.99 -2.13zm7.98 4.26l0 -4.33 3.99 2.13 0 4.32 -3.99 -2.12zm16.32 -61.4c-3.11,1.66 0.68,-0.37 -5.42,2.89 1.81,0.96 3.61,1.92 5.42,2.89 1.8,-0.97 3.61,-1.93 5.41,-2.89 -1.8,-0.96 -3.61,-1.93 -5.41,-2.89zm58 11.4c-3.11,1.66 0.68,-0.37 -5.42,2.89 1.8,0.96 3.61,1.92 5.42,2.89 1.8,-0.97 3.61,-1.93 5.41,-2.89 -1.8,-0.96 -3.61,-1.93 -5.41,-2.89zm-11.61 -11.35c-4.52,2.41 0.99,-0.53 -7.87,4.2 2.62,1.4 5.25,2.8 7.87,4.2 2.62,-1.4 5.25,-2.8 7.87,-4.2 -2.62,-1.4 -5.25,-2.8 -7.87,-4.2zm-18.09 -6.91c2.1,1.12 4.19,2.24 6.29,3.36 2.1,-1.12 4.19,-2.24 6.29,-3.36 -2.1,-1.11 -4.19,-2.23 -6.29,-3.35 -3.61,1.93 0.8,-0.42 -6.29,3.35zm-26.37 16.59l-42.89 22.88c19.94,10.64 39.89,21.28 59.83,31.91l39.96 -21.31 16.37 -8.73 3.5 -1.87 -44.62 -23.81 -2.25 -1.19c-3.27,1.75 -6.55,3.49 -9.83,5.24 -4.31,-2.3 -8.63,-4.61 -12.96,-6.91l-7.11 3.79zm39.42 5.84c-1.93,1.03 -3.86,2.06 -5.79,3.09 -1.93,-1.03 -3.86,-2.06 -5.79,-3.09 6.52,-3.48 2.46,-1.31 5.79,-3.08 1.93,1.02 3.86,2.05 5.79,3.08z"/>
 </g>
</svg>
