<?xml version="1.0" encoding="UTF-8"?>
<!DOCTYPE svg PUBLIC "-//W3C//DTD SVG 1.1//EN" "http://www.w3.org/Graphics/SVG/1.1/DTD/svg11.dtd">
<!-- Creator: CorelDRAW -->
<svg xmlns="http://www.w3.org/2000/svg" xml:space="preserve" width="749px" height="734px" version="1.1" style="shape-rendering:geometricPrecision; text-rendering:geometricPrecision; image-rendering:optimizeQuality; fill-rule:evenodd; clip-rule:evenodd"
viewBox="0 0 138.68 135.92"
 xmlns:xlink="http://www.w3.org/1999/xlink"
 xmlns:xodm="http://www.corel.com/coreldraw/odm/2003">
 <defs>
  <style type="text/css">
   <![CDATA[
    .fil0 {fill:white}
   ]]>
  </style>
 </defs>
 <g id="Layer_x0020_1">
  <metadata id="CorelCorpID_0Corel-Layer"/>
  <path class="fil0" d="M61.48 14.39c3.83,2.04 7.66,4.08 11.49,6.13 3.83,-2.05 7.66,-4.09 11.49,-6.13 -3.83,-2.05 -7.66,-4.09 -11.49,-6.13 -6.6,3.52 1.46,-0.78 -11.49,6.13zm-24.95 40.02c3.92,2.09 9.43,2.34 16.53,0.77 1.58,-0.35 3.82,-0.93 6.7,-1.81 2.88,-0.87 6.43,-2.02 10.63,-3.44 3.55,-1.19 6.68,-2.18 9.38,-2.95 2.69,-0.77 4.98,-1.34 6.83,-1.69 3.73,-0.7 6.77,-0.41 9.14,0.85 2.46,1.31 3.07,3.09 1.82,5.35 -1.25,2.25 -4.34,4.68 -9.24,7.3 -2.52,1.34 -5.01,2.46 -7.46,3.35 -2.46,0.89 -4.88,1.55 -7.27,1.98 -4.78,0.88 -9.16,0.88 -13.17,0.03 -1.12,1.41 -2.25,2.81 -3.38,4.22 5.13,0.94 10.84,0.78 17.12,-0.48 3.13,-0.62 6.25,-1.49 9.32,-2.61 3.07,-1.12 6.12,-2.49 9.14,-4.1 3.34,-1.78 6.06,-3.53 8.18,-5.27 2.1,-1.74 3.61,-3.48 4.5,-5.18 1.78,-3.41 0.76,-6.14 -3.07,-8.19 -1.16,-0.61 -2.49,-1.07 -3.98,-1.36 -1.49,-0.29 -2.88,-0.46 -4.19,-0.52 -1.32,-0.06 -3,0.08 -5.05,0.42 -2.07,0.34 -3.78,0.65 -5.13,0.94 -1.36,0.29 -3.28,0.81 -5.81,1.59 -2.52,0.77 -4.42,1.36 -5.69,1.79 -1.28,0.43 -3.4,1.11 -6.35,2.1 -6.39,2.15 -11.27,3.55 -14.66,4.17 -3.38,0.61 -6.19,0.31 -8.42,-0.88 -2.47,-1.31 -3.13,-3.01 -1.99,-5.09 1.14,-2.07 3.75,-4.2 7.84,-6.38 3.9,-2.08 7.83,-3.5 11.78,-4.28 3.96,-0.78 7.94,-0.91 11.96,-0.38 1.14,-1.37 2.28,-2.74 3.42,-4.11 -4.66,-0.54 -9.8,-0.29 -15.41,0.75 -2.8,0.51 -5.55,1.24 -8.24,2.19 -2.69,0.95 -5.32,2.11 -7.9,3.48 -2.87,1.53 -5.22,3.09 -7.07,4.67 -1.85,1.58 -3.2,3.18 -4.04,4.81 -1.69,3.26 -0.6,5.92 3.23,7.96zm32.81 63.38l-63.22 -33.72 3.21 -1.71 -6.12 -3.27 -3.21 1.72 0 5.8 0 12.33 69.34 36.98 44.87 -23.93 6.12 -3.26 18.35 -9.79 0 -6.53 -18.35 9.79 -6.12 3.26 -44.87 23.94 -31.54 -16.82 -7.27 -3.88 0 -5.01 7.92 4.22 30.89 16.48 0 -6.6zm-48.05 -14.02l0 -5.01 4.62 2.46 0 5.01 -4.62 -2.46zm48.05 -10.63l-63.22 -33.73 3.21 -1.71 -6.12 -3.26 -3.21 1.71 0 18.13 69.34 36.99 69.34 -36.99 0 -6.53 -69.34 36.99 -31.54 -16.82 0 -5.01 31.54 16.82 0 -6.59zm-50.03 -15.09l0 -5.01 4.62 2.47 0 5.01 -4.62 -2.47zm9.25 4.94l0 -5.01 4.62 2.46 0 5.01 -4.62 -2.46zm18.91 -71.16c-3.61,1.92 0.79,-0.42 -6.28,3.35 2.09,1.12 4.18,2.23 6.28,3.35 2.09,-1.12 4.18,-2.23 6.27,-3.35 -2.09,-1.12 -4.18,-2.23 -6.27,-3.35zm67.21 13.21c-3.6,1.92 0.79,-0.42 -6.28,3.35 2.1,1.12 4.19,2.23 6.28,3.35 2.09,-1.12 4.18,-2.23 6.28,-3.35 -2.1,-1.12 -4.19,-2.23 -6.28,-3.35zm-13.45 -13.15c-5.24,2.79 1.15,-0.62 -9.12,4.86 3.04,1.63 6.08,3.25 9.12,4.87 3.04,-1.62 6.08,-3.24 9.12,-4.87 -3.04,-1.62 -6.08,-3.24 -9.12,-4.86zm-20.96 -8c2.43,1.29 4.86,2.59 7.28,3.88 2.43,-1.29 4.86,-2.59 7.29,-3.88 -2.43,-1.3 -4.86,-2.59 -7.29,-3.89 -4.18,2.23 0.93,-0.49 -7.28,3.89zm-30.56 19.22l-49.71 26.51c23.11,12.33 46.23,24.66 69.34,36.99l46.31 -24.7 18.97 -10.12 4.06 -2.17 -51.72 -27.59 -2.6 -1.38c-3.8,2.02 -7.59,4.05 -11.39,6.08 -5.01,-2.68 -10.01,-5.35 -15.02,-8.02l-8.24 4.4zm45.68 6.77c-2.24,1.19 -4.48,2.39 -6.71,3.58 -2.24,-1.19 -4.48,-2.39 -6.72,-3.58 7.56,-4.03 2.86,-1.53 6.72,-3.58 2.23,1.19 4.47,2.39 6.71,3.58z"/>
 </g>
</svg>
