<?xml version="1.0" encoding="UTF-8"?>
<!DOCTYPE svg PUBLIC "-//W3C//DTD SVG 1.1//EN" "http://www.w3.org/Graphics/SVG/1.1/DTD/svg11.dtd">
<!-- Creator: CorelDRAW -->
<svg xmlns="http://www.w3.org/2000/svg" xml:space="preserve" width="700px" height="622px" version="1.1" style="shape-rendering:geometricPrecision; text-rendering:geometricPrecision; image-rendering:optimizeQuality; fill-rule:evenodd; clip-rule:evenodd"
viewBox="0 0 119.66 106.38"
 xmlns:xlink="http://www.w3.org/1999/xlink"
 xmlns:xodm="http://www.corel.com/coreldraw/odm/2003">
 <defs>
  <style type="text/css">
   <![CDATA[
    .fil0 {fill:white}
   ]]>
  </style>
 </defs>
 <g id="Layer_x0020_1">
  <metadata id="CorelCorpID_0Corel-Layer"/>
  <path class="fil0" d="M59.83 69.46l-54.55 -29.1 2.77 -1.48 -5.28 -2.81 -2.77 1.47 0 15.65 59.83 31.92 59.83 -31.92 0 -5.63 -59.83 31.92 -27.21 -14.52 0 -4.32 27.21 14.52 0 -5.7zm0 -57.2l-32.53 17.35 4.32 2.3 -4.32 2.31 14.39 7.68 4.32 -2.3 4.31 2.3 23.32 -12.44 4.61 2.46 -27.64 14.74 9.22 4.91 32.53 -17.35 -4.31 -2.31 4.31 -2.3 -14.4 -7.68 -4.31 2.3 -4.31 -2.3 -23.33 12.44 -4.6 -2.45 27.63 -14.74 -9.21 -4.92zm0 -12.26l-59.83 31.91 59.83 31.92 59.83 -31.92 -59.83 -31.91zm0 90.74l-54.55 -29.1 2.77 -1.48 -5.28 -2.82 -2.77 1.48 0 15.65 59.83 31.91 59.83 -31.91 0 -5.63 -59.83 31.91 -33.48 -17.86 0 -4.32 33.48 17.86 0 -5.69zm-37.47 -14.3l-3.99 -2.13 0 4.32 3.99 2.13 0 -4.32zm-1.71 -22.19l-3.99 -2.12 0 4.32 3.99 2.13 0 -4.33zm7.98 4.26l-3.99 -2.13 0 4.32 3.99 2.13 0 -4.32z"/>
 </g>
</svg>
