<?xml version="1.0" encoding="UTF-8"?>
<!DOCTYPE svg PUBLIC "-//W3C//DTD SVG 1.1//EN" "http://www.w3.org/Graphics/SVG/1.1/DTD/svg11.dtd">
<!-- Creator: CorelDRAW -->
<svg xmlns="http://www.w3.org/2000/svg" xml:space="preserve" width="749px" height="665px" version="1.1" style="shape-rendering:geometricPrecision; text-rendering:geometricPrecision; image-rendering:optimizeQuality; fill-rule:evenodd; clip-rule:evenodd"
viewBox="0 0 138.68 123.29"
 xmlns:xlink="http://www.w3.org/1999/xlink"
 xmlns:xodm="http://www.corel.com/coreldraw/odm/2003">
 <defs>
  <style type="text/css">
   <![CDATA[
    .fil0 {fill:white}
   ]]>
  </style>
 </defs>
 <g id="Layer_x0020_1">
  <metadata id="CorelCorpID_0Corel-Layer"/>
  <path class="fil0" d="M33.18 67.81l-4.62 -2.47 0 5.01 4.62 2.47 0 -5.01zm-9.25 -4.94l-4.62 -2.46 0 5.01 4.62 2.46 0 -5.01zm1.98 25.72l-4.62 -2.47 0 5.01 4.62 2.47 0 -5.01zm43.43 16.57l-63.22 -33.73 3.21 -1.71 -6.12 -3.26 -3.21 1.71 0 18.13 69.34 36.99 69.34 -36.99 0 -6.52 -69.34 36.98 -38.81 -20.7 0 -5.01 38.81 20.71 0 -6.6zm0 -105.16l-69.34 36.99 69.34 36.98 69.34 -36.98 -69.34 -36.99zm0 80.5l-63.22 -33.73 3.21 -1.71 -6.12 -3.26 -3.21 1.71 0 18.13 69.34 36.99 69.34 -36.99 0 -6.52 -69.34 36.99 -31.54 -16.83 0 -5.01 31.54 16.83 0 -6.6zm-32.81 -38.72c3.92,2.09 9.43,2.33 16.53,0.77 1.58,-0.35 3.82,-0.94 6.7,-1.81 2.89,-0.88 6.43,-2.02 10.64,-3.44 3.54,-1.2 6.67,-2.18 9.37,-2.96 2.69,-0.77 4.98,-1.34 6.84,-1.69 3.72,-0.7 6.76,-0.41 9.13,0.85 2.46,1.31 3.07,3.1 1.82,5.35 -1.25,2.25 -4.34,4.68 -9.24,7.3 -2.52,1.35 -5.01,2.46 -7.46,3.35 -2.45,0.89 -4.88,1.55 -7.26,1.99 -4.79,0.87 -9.17,0.88 -13.17,0.02 -1.13,1.41 -2.26,2.82 -3.39,4.23 5.14,0.93 10.85,0.77 17.12,-0.48 3.13,-0.63 6.25,-1.5 9.32,-2.62 3.07,-1.12 6.12,-2.48 9.15,-4.1 3.33,-1.77 6.05,-3.53 8.17,-5.27 2.1,-1.74 3.61,-3.47 4.5,-5.17 1.79,-3.41 0.77,-6.14 -3.07,-8.19 -1.16,-0.62 -2.49,-1.08 -3.98,-1.36 -1.48,-0.29 -2.88,-0.46 -4.19,-0.52 -1.31,-0.07 -3,0.08 -5.05,0.42 -2.07,0.34 -3.78,0.65 -5.13,0.93 -1.35,0.29 -3.28,0.82 -5.81,1.59 -2.52,0.77 -4.42,1.37 -5.69,1.79 -1.27,0.44 -3.4,1.12 -6.35,2.11 -6.39,2.14 -11.27,3.55 -14.66,4.16 -3.37,0.61 -6.19,0.32 -8.42,-0.87 -2.46,-1.32 -3.12,-3.01 -1.98,-5.09 1.13,-2.07 3.74,-4.21 7.83,-6.39 3.9,-2.08 7.83,-3.5 11.79,-4.28 3.95,-0.77 7.93,-0.9 11.95,-0.37 1.14,-1.37 2.28,-2.74 3.42,-4.11 -4.66,-0.55 -9.8,-0.29 -15.4,0.74 -2.81,0.52 -5.56,1.25 -8.25,2.2 -2.69,0.95 -5.32,2.1 -7.9,3.48 -2.87,1.52 -5.21,3.09 -7.07,4.67 -1.85,1.57 -3.2,3.17 -4.04,4.8 -1.69,3.27 -0.6,5.93 3.23,7.97z"/>
 </g>
</svg>
