<?xml version="1.0" encoding="UTF-8"?>
<!DOCTYPE svg PUBLIC "-//W3C//DTD SVG 1.1//EN" "http://www.w3.org/Graphics/SVG/1.1/DTD/svg11.dtd">
<!-- Creator: CorelDRAW -->
<svg xmlns="http://www.w3.org/2000/svg" xml:space="preserve" width="773px" height="687px" version="1.1" style="shape-rendering:geometricPrecision; text-rendering:geometricPrecision; image-rendering:optimizeQuality; fill-rule:evenodd; clip-rule:evenodd"
viewBox="0 0 27.9 24.8"
 xmlns:xlink="http://www.w3.org/1999/xlink"
 xmlns:xodm="http://www.corel.com/coreldraw/odm/2003">
 <defs>
  <style type="text/css">
   <![CDATA[
    .fil0 {fill:black}
   ]]>
  </style>
 </defs>
 <g id="Layer_x0020_1">
  <metadata id="CorelCorpID_0Corel-Layer"/>
  <path class="fil0" d="M6.67 13.64l-0.93 -0.5 0 1.01 0.93 0.5 0 -1.01zm4.06 -4.54c0.61,-0.1 1.24,-0.26 1.88,-0.48 0.64,-0.21 1.27,-0.44 1.89,-0.68 0.62,-0.25 1.15,-0.44 1.59,-0.59 0.45,-0.14 0.83,-0.24 1.14,-0.3 0.32,-0.06 0.58,-0.08 0.79,-0.05 0.2,0.02 0.38,0.06 0.52,0.14 0.22,0.12 0.34,0.26 0.34,0.42 0,0.17 -0.07,0.34 -0.21,0.53 -0.15,0.18 -0.36,0.37 -0.63,0.56 -0.27,0.2 -0.56,0.38 -0.88,0.54 -0.29,0.16 -0.62,0.3 -0.99,0.43 -0.37,0.12 -0.74,0.22 -1.12,0.28 -0.38,0.06 -0.75,0.08 -1.11,0.06 -0.35,-0.03 -0.67,-0.11 -0.95,-0.26 -0.74,0.4 -1.48,0.79 -2.22,1.19 0.56,0.3 1.18,0.48 1.86,0.54 0.69,0.07 1.39,0.05 2.1,-0.05 0.72,-0.11 1.43,-0.28 2.13,-0.51 0.7,-0.24 1.34,-0.51 1.91,-0.82 0.75,-0.39 1.35,-0.79 1.81,-1.17 0.46,-0.39 0.78,-0.77 0.95,-1.13 0.17,-0.36 0.18,-0.69 0.05,-1 -0.13,-0.31 -0.42,-0.59 -0.86,-0.82 -0.47,-0.26 -0.98,-0.41 -1.51,-0.46 -0.53,-0.06 -1.1,-0.04 -1.71,0.06 -0.6,0.09 -1.25,0.25 -1.95,0.48 -0.69,0.22 -1.44,0.49 -2.24,0.8 -1.04,0.41 -1.84,0.68 -2.41,0.81 -0.57,0.14 -1.01,0.12 -1.33,-0.05 -0.17,-0.09 -0.27,-0.21 -0.28,-0.35 0,-0.13 0.05,-0.28 0.18,-0.44 0.12,-0.16 0.3,-0.33 0.53,-0.5 0.23,-0.17 0.49,-0.33 0.78,-0.49 0.71,-0.38 1.4,-0.6 2.06,-0.67 0.67,-0.07 1.2,0 1.6,0.21 0.74,-0.4 1.48,-0.79 2.23,-1.19 -0.37,-0.19 -0.82,-0.33 -1.37,-0.43 -0.54,-0.1 -1.14,-0.13 -1.79,-0.09 -0.65,0.04 -1.35,0.17 -2.09,0.37 -0.63,0.18 -1.28,0.43 -1.95,0.76 -0.1,0.05 -0.21,0.11 -0.32,0.17 -0.68,0.36 -1.24,0.73 -1.65,1.09 -0.42,0.37 -0.71,0.72 -0.87,1.05 -0.16,0.34 -0.18,0.65 -0.06,0.94 0.11,0.29 0.37,0.54 0.77,0.75 0.49,0.27 1.03,0.42 1.6,0.45 0.58,0.04 1.18,0.01 1.79,-0.1zm-5.92 3.55l-0.93 -0.5 0 1.01 0.93 0.5 0 -1.01zm0.4 5.17l-0.93 -0.5 0 1.01 0.93 0.5 0 -1.01zm8.74 3.33l-12.72 -6.78 0.65 -0.34 -1.23 -0.66 -0.65 0.34 0 3.65 13.95 7.44 13.95 -7.44 0 -1.31 -13.95 7.44 -7.81 -4.17 0 -1 7.81 4.16 0 -1.33zm0 -21.15l-13.95 7.44 13.95 7.44 13.95 -7.44 -13.95 -7.44zm0 16.19l-12.72 -6.78 0.65 -0.35 -1.23 -0.65 -0.65 0.34 0 3.65 13.95 7.44 13.95 -7.44 0 -1.31 -13.95 7.44 -6.35 -3.39 0 -1 6.35 3.38 0 -1.33z"/>
 </g>
</svg>
