<?xml version="1.0" encoding="UTF-8"?>
<!DOCTYPE svg PUBLIC "-//W3C//DTD SVG 1.1//EN" "http://www.w3.org/Graphics/SVG/1.1/DTD/svg11.dtd">
<!-- Creator: CorelDRAW -->
<svg xmlns="http://www.w3.org/2000/svg" xml:space="preserve" width="749px" height="734px" version="1.1" style="shape-rendering:geometricPrecision; text-rendering:geometricPrecision; image-rendering:optimizeQuality; fill-rule:evenodd; clip-rule:evenodd"
viewBox="0 0 26.3 25.78"
 xmlns:xlink="http://www.w3.org/1999/xlink"
 xmlns:xodm="http://www.corel.com/coreldraw/odm/2003">
 <defs>
  <style type="text/css">
   <![CDATA[
    .fil0 {fill:black}
   ]]>
  </style>
 </defs>
 <g id="Layer_x0020_1">
  <metadata id="CorelCorpID_0Corel-Layer"/>
  <path class="fil0" d="M11.66 2.73c0.73,0.39 1.45,0.77 2.18,1.16 0.73,-0.39 1.45,-0.77 2.18,-1.16 -0.73,-0.39 -1.45,-0.78 -2.18,-1.16 -1.25,0.66 0.28,-0.15 -2.18,1.16zm-4.73 7.59c0.74,0.4 1.79,0.44 3.13,0.15 0.3,-0.07 0.73,-0.18 1.27,-0.35 0.55,-0.16 1.22,-0.38 2.02,-0.65 0.67,-0.23 1.27,-0.41 1.78,-0.56 0.51,-0.15 0.94,-0.25 1.29,-0.32 0.71,-0.13 1.29,-0.08 1.74,0.16 0.46,0.25 0.58,0.59 0.34,1.01 -0.23,0.43 -0.82,0.89 -1.75,1.39 -0.48,0.25 -0.95,0.47 -1.42,0.63 -0.46,0.17 -0.92,0.3 -1.37,0.38 -0.91,0.17 -1.74,0.17 -2.5,0.01 -0.21,0.26 -0.43,0.53 -0.64,0.8 0.97,0.17 2.05,0.14 3.24,-0.09 0.6,-0.12 1.19,-0.29 1.77,-0.5 0.58,-0.21 1.16,-0.47 1.74,-0.78 0.63,-0.33 1.15,-0.67 1.55,-1 0.4,-0.33 0.68,-0.66 0.85,-0.98 0.34,-0.64 0.15,-1.16 -0.58,-1.55 -0.22,-0.12 -0.47,-0.2 -0.76,-0.26 -0.28,-0.05 -0.54,-0.09 -0.79,-0.1 -0.25,-0.01 -0.57,0.02 -0.96,0.08 -0.39,0.07 -0.72,0.13 -0.97,0.18 -0.26,0.05 -0.62,0.15 -1.1,0.3 -0.48,0.15 -0.84,0.26 -1.08,0.34 -0.24,0.08 -0.65,0.21 -1.21,0.4 -1.21,0.41 -2.13,0.67 -2.78,0.79 -0.64,0.11 -1.17,0.06 -1.59,-0.17 -0.47,-0.25 -0.6,-0.57 -0.38,-0.96 0.21,-0.39 0.71,-0.8 1.48,-1.21 0.75,-0.4 1.49,-0.67 2.24,-0.81 0.75,-0.15 1.51,-0.18 2.27,-0.08 0.21,-0.26 0.43,-0.52 0.65,-0.78 -0.89,-0.1 -1.86,-0.05 -2.93,0.15 -0.53,0.09 -1.05,0.23 -1.56,0.41 -0.51,0.18 -1.01,0.4 -1.5,0.66 -0.54,0.29 -0.99,0.59 -1.34,0.89 -0.35,0.3 -0.61,0.6 -0.77,0.91 -0.32,0.62 -0.11,1.12 0.62,1.51zm6.22 12.02l-11.99 -6.4 0.61 -0.32 -1.16 -0.62 -0.61 0.33 0 1.1 0 2.33 13.15 7.02 8.51 -4.54 1.16 -0.62 3.48 -1.86 0 -1.23 -3.48 1.85 -1.16 0.62 -8.51 4.54 -5.98 -3.19 -1.38 -0.73 0 -0.95 1.5 0.8 5.86 3.12 0 -1.25zm-9.11 -2.66l0 -0.95 0.87 0.47 0 0.95 -0.87 -0.47zm9.11 -2.02l-11.99 -6.39 0.61 -0.33 -1.16 -0.62 -0.61 0.33 0 3.44 13.15 7.01 13.15 -7.01 0 -1.24 -13.15 7.01 -5.98 -3.19 0 -0.95 5.98 3.2 0 -1.26zm-9.49 -2.86l0 -0.95 0.88 0.47 0 0.95 -0.88 -0.47zm1.76 0.94l0 -0.95 0.87 0.47 0 0.95 -0.87 -0.47zm3.58 -13.5c-0.68,0.37 0.15,-0.08 -1.19,0.64 0.4,0.21 0.8,0.42 1.19,0.63 0.4,-0.21 0.8,-0.42 1.19,-0.63 -0.39,-0.21 -0.79,-0.42 -1.19,-0.64zm12.75 2.51c-0.68,0.36 0.15,-0.08 -1.19,0.63 0.4,0.22 0.79,0.43 1.19,0.64 0.4,-0.21 0.79,-0.42 1.19,-0.64 -0.4,-0.21 -0.79,-0.42 -1.19,-0.63zm-2.55 -2.5c-0.99,0.53 0.22,-0.11 -1.73,0.93 0.58,0.3 1.15,0.61 1.73,0.92 0.58,-0.31 1.15,-0.62 1.73,-0.92 -0.58,-0.31 -1.15,-0.62 -1.73,-0.93zm-3.98 -1.51c0.46,0.24 0.92,0.49 1.39,0.73 0.46,-0.24 0.92,-0.49 1.38,-0.73 -0.46,-0.25 -0.92,-0.49 -1.38,-0.74 -0.8,0.42 0.17,-0.09 -1.39,0.74zm-5.79 3.64l-9.43 5.03c4.38,2.34 8.77,4.68 13.15,7.02l8.78 -4.69 3.6 -1.92 0.77 -0.41 -9.81 -5.23 -0.49 -0.26c-0.72,0.38 -1.44,0.76 -2.16,1.15 -0.95,-0.51 -1.9,-1.01 -2.85,-1.52l-1.56 0.83zm8.66 1.29c-0.42,0.22 -0.85,0.45 -1.27,0.68 -0.43,-0.23 -0.85,-0.46 -1.28,-0.68 1.44,-0.77 0.55,-0.29 1.28,-0.68 0.42,0.22 0.85,0.45 1.27,0.68z"/>
 </g>
</svg>
