<?xml version="1.0" encoding="UTF-8"?>
<!DOCTYPE svg PUBLIC "-//W3C//DTD SVG 1.1//EN" "http://www.w3.org/Graphics/SVG/1.1/DTD/svg11.dtd">
<!-- Creator: CorelDRAW -->
<svg xmlns="http://www.w3.org/2000/svg" xml:space="preserve" width="700px" height="686px" version="1.1" style="shape-rendering:geometricPrecision; text-rendering:geometricPrecision; image-rendering:optimizeQuality; fill-rule:evenodd; clip-rule:evenodd"
viewBox="0 0 119.67 117.29"
 xmlns:xlink="http://www.w3.org/1999/xlink"
 xmlns:xodm="http://www.corel.com/coreldraw/odm/2003">
 <defs>
  <style type="text/css">
   <![CDATA[
    .fil0 {fill:white}
   ]]>
  </style>
 </defs>
 <g id="Layer_x0020_1">
  <metadata id="CorelCorpID_0Corel-Layer"/>
  <path class="fil0" d="M59.83 80.36l-54.55 -29.1 2.77 -1.47 -5.28 -2.82 -2.77 1.48 0 15.64 59.83 31.92 59.84 -31.92 0 -5.63 -59.84 31.92 -27.21 -14.52 0 -4.32 27.21 14.52 0 -5.7zm9.51 -47.53l4.31 2.31 4.31 -2.3 14.4 7.68 -4.31 2.3 4.31 2.3 -32.53 17.35 -9.22 -4.91 27.64 -14.74 -4.61 -2.45 -23.32 12.43 -4.31 -2.3 -4.32 2.3 -14.39 -7.68 4.32 -2.3 -4.32 -2.3 31.95 -17.05 -7.55 -4.03 -4.87 2.6 -3.94 -2.1 -42.89 22.88 59.83 31.91 59.84 -31.91 -44.63 -23.81 -11.5 6.13 5.51 2.94 -27.64 14.74 4.6 2.45 23.33 -12.44zm29.62 -11.22l-5.42 2.89 5.42 2.89 5.41 -2.89 -5.41 -2.89zm-11.61 -11.35l-7.87 4.2 7.87 4.2 7.87 -4.2 -7.87 -4.2zm-18.09 -6.91l6.29 3.36 6.29 -3.36 -6.29 -3.35 -6.29 3.35zm-28 12.48l5.11 -2.73 -5.11 -2.73 -5.11 2.73 5.11 2.73zm9.07 -2.76l12.63 6.74 12.64 -6.74 -12.64 -6.74 -12.63 6.74zm26.19 15.8l-5.8 -3.09 5.8 -3.09 5.79 3.09 -5.79 3.09zm-16.69 72.77l-54.55 -29.1 2.77 -1.48 -5.28 -2.81 -2.77 1.48 0 15.64 59.83 31.92 59.84 -31.92 0 -5.63 -59.84 31.92 -33.48 -17.87 0 -4.32 33.48 17.87 0 -5.7zm-37.47 -14.3l-3.99 -2.12 0 4.32 3.99 2.13 0 -4.33zm-1.71 -22.18l-3.99 -2.13 0 4.32 3.99 2.13 0 -4.32zm7.98 4.25l-3.99 -2.13 0 4.33 3.99 2.12 0 -4.32z"/>
 </g>
</svg>
