<?xml version="1.0" encoding="UTF-8"?>
<!DOCTYPE svg PUBLIC "-//W3C//DTD SVG 1.1//EN" "http://www.w3.org/Graphics/SVG/1.1/DTD/svg11.dtd">
<!-- Creator: CorelDRAW -->
<svg xmlns="http://www.w3.org/2000/svg" xml:space="preserve" width="700px" height="686px" version="1.1" style="shape-rendering:geometricPrecision; text-rendering:geometricPrecision; image-rendering:optimizeQuality; fill-rule:evenodd; clip-rule:evenodd"
viewBox="0 0 23.05 22.59"
 xmlns:xlink="http://www.w3.org/1999/xlink"
 xmlns:xodm="http://www.corel.com/coreldraw/odm/2003">
 <defs>
  <style type="text/css">
   <![CDATA[
    .fil0 {fill:black}
   ]]>
  </style>
 </defs>
 <g id="Layer_x0020_1">
  <metadata id="CorelCorpID_0Corel-Layer"/>
  <path class="fil0" d="M11.52 15.48l-10.5 -5.61 0.53 -0.28 -1.02 -0.54 -0.53 0.28 0 3.02 11.52 6.14 11.53 -6.14 0 -1.09 -11.53 6.15 -5.24 -2.8 0 -0.83 5.24 2.8 0 -1.1zm1.83 -9.16l0.84 0.45 0.83 -0.45 2.77 1.48 -0.83 0.45 0.83 0.44 -6.27 3.34 -1.77 -0.94 5.32 -2.84 -0.89 -0.48 -4.49 2.4 -0.83 -0.44 -0.83 0.44 -2.77 -1.48 0.83 -0.44 -0.83 -0.45 6.15 -3.28 -1.45 -0.77 -0.94 0.5 -0.76 -0.41 -8.26 4.41 11.52 6.14 11.53 -6.14 -8.6 -4.59 -2.21 1.18 1.06 0.57 -5.32 2.84 0.88 0.47 4.49 -2.4zm5.71 -2.16l-1.04 0.56 1.04 0.55 1.04 -0.55 -1.04 -0.56zm-2.24 -2.18l-1.51 0.8 1.51 0.81 1.52 -0.81 -1.52 -0.8zm-3.48 -1.33l1.21 0.64 1.21 -0.64 -1.21 -0.65 -1.21 0.65zm-5.39 2.4l0.98 -0.53 -0.98 -0.52 -0.99 0.52 0.99 0.53zm1.74 -0.53l2.44 1.3 2.43 -1.3 -2.43 -1.3 -2.44 1.3zm5.05 3.04l-1.12 -0.59 1.12 -0.6 1.11 0.6 -1.11 0.59zm-3.22 14.02l-10.5 -5.61 0.53 -0.28 -1.02 -0.55 -0.53 0.29 0 3.01 11.52 6.15 11.53 -6.15 0 -1.08 -11.53 6.15 -6.45 -3.44 0 -0.84 6.45 3.44 0 -1.09zm-7.21 -2.76l-0.77 -0.41 0 0.84 0.77 0.41 0 -0.84zm-0.33 -4.27l-0.77 -0.41 0 0.83 0.77 0.41 0 -0.83zm1.53 0.82l-0.76 -0.41 0 0.83 0.76 0.41 0 -0.83z"/>
 </g>
</svg>
