<?xml version="1.0" encoding="UTF-8"?>
<!DOCTYPE svg PUBLIC "-//W3C//DTD SVG 1.1//EN" "http://www.w3.org/Graphics/SVG/1.1/DTD/svg11.dtd">
<!-- Creator: CorelDRAW -->
<svg xmlns="http://www.w3.org/2000/svg" xml:space="preserve" width="700px" height="686px" version="1.1" style="shape-rendering:geometricPrecision; text-rendering:geometricPrecision; image-rendering:optimizeQuality; fill-rule:evenodd; clip-rule:evenodd"
viewBox="0 0 23.05 22.59"
 xmlns:xlink="http://www.w3.org/1999/xlink"
 xmlns:xodm="http://www.corel.com/coreldraw/odm/2003">
 <defs>
  <style type="text/css">
   <![CDATA[
    .fil0 {fill:black}
   ]]>
  </style>
 </defs>
 <g id="Layer_x0020_1">
  <metadata id="CorelCorpID_0Corel-Layer"/>
  <path class="fil0" d="M17.75 8.71c-0.12,0.12 -0.29,0.24 -0.52,0.37 -0.93,0.49 -1.86,0.98 -2.78,1.48 -0.93,0.49 -1.85,0.99 -2.78,1.48 -0.09,0.05 -0.19,0.05 -0.28,0 -0.21,-0.11 -0.42,-0.22 -0.63,-0.34 -0.06,-0.03 -0.08,-0.07 -0.06,-0.1 0.01,-0.02 0.03,-0.03 0.06,-0.05 0.89,-0.48 1.79,-0.95 2.69,-1.43 0.9,-0.48 1.8,-0.96 2.7,-1.44 0.57,-0.31 0.42,-0.6 -0.1,-0.88 -0.2,-0.11 -0.41,-0.22 -0.62,-0.33 -0.57,-0.31 -1.1,-0.34 -1.64,-0.05 -0.66,0.36 -1.33,0.71 -1.99,1.07 -0.67,0.35 -1.34,0.71 -2,1.06 -0.8,0.43 -1.63,0.5 -2.45,0.26 -0.25,-0.08 -0.49,-0.18 -0.73,-0.31 -0.25,-0.13 -0.5,-0.27 -0.76,-0.4 -0.23,-0.12 -0.41,-0.25 -0.54,-0.38 -0.31,-0.3 -0.35,-0.61 -0.02,-0.94 0.12,-0.12 0.3,-0.24 0.53,-0.37 0.88,-0.47 1.77,-0.94 2.65,-1.41 0.88,-0.47 1.77,-0.94 2.65,-1.41 0.07,-0.04 0.15,-0.05 0.22,-0.03 0.02,0 0.05,0.01 0.07,0.02 0.21,0.12 0.42,0.23 0.63,0.34 0.09,0.05 0.09,0.1 -0.01,0.15 -0.86,0.46 -1.71,0.92 -2.57,1.37 -0.86,0.46 -1.71,0.92 -2.57,1.38 -0.57,0.3 -0.43,0.6 0.09,0.88 0.18,0.09 0.36,0.18 0.53,0.28 0.57,0.3 1.1,0.33 1.64,0.04 0.66,-0.35 1.33,-0.71 2,-1.06 0.66,-0.36 1.33,-0.71 1.99,-1.07 0.8,-0.42 1.63,-0.5 2.46,-0.25 0.24,0.07 0.48,0.17 0.72,0.3 0.29,0.15 0.57,0.3 0.85,0.46 0.23,0.12 0.42,0.24 0.55,0.37 0.31,0.3 0.35,0.62 0.02,0.94zm-7.53 -6.32c0.63,0.34 1.27,0.68 1.91,1.02 0.63,-0.34 1.27,-0.68 1.91,-1.02 -0.64,-0.34 -1.28,-0.68 -1.91,-1.02 -1.1,0.59 0.24,-0.13 -1.91,1.02zm1.3 17.19l-10.5 -5.61 0.53 -0.28 -1.02 -0.54 -0.53 0.28 0 0.96 0 2.05 11.52 6.15 7.46 -3.98 1.02 -0.54 3.05 -1.63 0 -1.08 -3.05 1.63 -1.02 0.54 -7.46 3.98 -5.24 -2.8 -1.21 -0.64 0 -0.84 1.32 0.7 5.13 2.74 0 -1.09zm-7.98 -2.33l0 -0.84 0.77 0.41 0 0.84 -0.77 -0.41zm7.98 -1.77l-10.5 -5.61 0.53 -0.28 -1.02 -0.54 -0.53 0.28 0 3.02 11.52 6.14 11.53 -6.14 0 -1.09 -11.53 6.15 -5.24 -2.8 0 -0.83 5.24 2.8 0 -1.1zm-8.31 -2.51l0 -0.83 0.77 0.41 0 0.83 -0.77 -0.41zm1.54 0.82l0 -0.83 0.76 0.41 0 0.83 -0.76 -0.41zm3.14 -11.82c-0.6,0.32 0.13,-0.07 -1.04,0.55 0.34,0.19 0.69,0.37 1.04,0.56 0.35,-0.19 0.69,-0.37 1.04,-0.56 -0.35,-0.18 -0.69,-0.37 -1.04,-0.55zm11.17 2.19c-0.6,0.32 0.13,-0.07 -1.04,0.56 0.34,0.18 0.69,0.37 1.04,0.55 0.35,-0.18 0.69,-0.37 1.04,-0.55 -0.35,-0.19 -0.69,-0.37 -1.04,-0.56zm-2.24 -2.18c-0.87,0.46 0.2,-0.11 -1.51,0.8 0.5,0.27 1.01,0.54 1.51,0.81 0.51,-0.27 1.01,-0.54 1.52,-0.81 -0.51,-0.27 -1.01,-0.53 -1.52,-0.8zm-3.48 -1.33c0.4,0.21 0.81,0.43 1.21,0.64 0.41,-0.21 0.81,-0.43 1.21,-0.64 -0.4,-0.22 -0.8,-0.43 -1.21,-0.65 -0.69,0.37 0.15,-0.08 -1.21,0.65zm-5.08 3.19l-8.26 4.41c3.84,2.05 7.68,4.1 11.52,6.14l7.7 -4.1 3.15 -1.68 0.68 -0.36 -8.6 -4.59 -0.43 -0.23c-0.63,0.34 -1.26,0.68 -1.89,1.01 -0.83,-0.44 -1.67,-0.89 -2.5,-1.33l-1.37 0.73zm7.59 1.13c-0.37,0.19 -0.74,0.39 -1.11,0.59 -0.37,-0.2 -0.75,-0.4 -1.12,-0.59 1.26,-0.67 0.48,-0.26 1.12,-0.6 0.37,0.2 0.74,0.4 1.11,0.6z"/>
 </g>
</svg>
