<?xml version="1.0" encoding="UTF-8"?>
<!DOCTYPE svg PUBLIC "-//W3C//DTD SVG 1.1//EN" "http://www.w3.org/Graphics/SVG/1.1/DTD/svg11.dtd">
<!-- Creator: CorelDRAW -->
<svg xmlns="http://www.w3.org/2000/svg" xml:space="preserve" width="773px" height="757px" version="1.1" style="shape-rendering:geometricPrecision; text-rendering:geometricPrecision; image-rendering:optimizeQuality; fill-rule:evenodd; clip-rule:evenodd"
viewBox="0 0 151.16 148.16"
 xmlns:xlink="http://www.w3.org/1999/xlink"
 xmlns:xodm="http://www.corel.com/coreldraw/odm/2003">
 <defs>
  <style type="text/css">
   <![CDATA[
    .fil0 {fill:white}
   ]]>
  </style>
 </defs>
 <g id="Layer_x0020_1">
  <metadata id="CorelCorpID_0Corel-Layer"/>
  <path class="fil0" d="M67.01 15.68c4.18,2.23 8.35,4.46 12.53,6.69 4.17,-2.23 8.35,-4.46 12.53,-6.69 -4.18,-2.23 -8.36,-4.45 -12.53,-6.68 -7.19,3.83 1.58,-0.85 -12.53,6.68zm-7.95 39.4c-3.06,0.73 -5.46,0.64 -7.19,-0.28 -0.96,-0.51 -1.46,-1.14 -1.51,-1.88 -0.04,-0.74 0.25,-1.55 0.93,-2.42 0.68,-0.88 1.65,-1.77 2.9,-2.7 1.25,-0.92 2.67,-1.81 4.25,-2.65 3.83,-2.05 7.56,-3.27 11.16,-3.65 3.6,-0.38 6.48,0.01 8.64,1.15 4.02,-2.14 8.04,-4.28 12.06,-6.43 -1.97,-1.05 -4.42,-1.83 -7.37,-2.36 -2.94,-0.54 -6.18,-0.69 -9.73,-0.47 -3.53,0.22 -7.31,0.9 -11.31,2.01 -3.44,0.95 -6.97,2.32 -10.57,4.12 -0.57,0.29 -1.16,0.59 -1.74,0.9 -3.71,1.98 -6.71,3.96 -8.97,5.94 -2.26,1.97 -3.81,3.88 -4.67,5.69 -0.86,1.81 -0.98,3.5 -0.37,5.06 0.63,1.58 2.01,2.93 4.18,4.09 2.68,1.42 5.59,2.25 8.7,2.45 3.13,0.2 6.36,0.03 9.68,-0.54 3.32,-0.57 6.72,-1.44 10.19,-2.61 3.49,-1.16 6.9,-2.4 10.25,-3.73 3.37,-1.33 6.23,-2.38 8.63,-3.15 2.4,-0.77 4.47,-1.31 6.17,-1.63 1.71,-0.33 3.12,-0.42 4.25,-0.31 1.13,0.11 2.08,0.37 2.85,0.79 1.2,0.64 1.82,1.4 1.83,2.29 0.02,0.88 -0.37,1.83 -1.15,2.83 -0.79,1.01 -1.92,2.04 -3.38,3.08 -1.47,1.03 -3.06,2.01 -4.77,2.92 -1.57,0.84 -3.37,1.61 -5.37,2.29 -2,0.69 -4.04,1.2 -6.1,1.53 -2.06,0.33 -4.05,0.43 -5.99,0.31 -1.93,-0.12 -3.64,-0.58 -5.13,-1.37 -4.02,2.14 -8.03,4.28 -12.05,6.42 3.03,1.62 6.39,2.61 10.09,2.96 3.71,0.36 7.51,0.25 11.39,-0.31 3.88,-0.56 7.73,-1.49 11.52,-2.77 3.81,-1.29 7.26,-2.76 10.36,-4.41 4.03,-2.15 7.29,-4.27 9.79,-6.37 2.51,-2.11 4.22,-4.14 5.14,-6.08 0.91,-1.96 1,-3.77 0.28,-5.46 -0.73,-1.68 -2.29,-3.17 -4.69,-4.45 -2.54,-1.36 -5.26,-2.19 -8.14,-2.49 -2.89,-0.31 -5.98,-0.2 -9.26,0.32 -3.28,0.53 -6.8,1.39 -10.56,2.6 -3.76,1.21 -7.81,2.68 -12.16,4.38 -5.64,2.19 -9.99,3.66 -13.06,4.39zm16.52 73.31l-68.91 -36.76 3.49 -1.86 -6.66 -3.56 -3.5 1.87 0 6.32 0 13.44 75.58 40.32 48.91 -26.09 6.67 -3.56 20 -10.67 0 -7.11 -20 10.67 -6.67 3.56 -48.91 26.08 -34.38 -18.33 -7.92 -4.23 0 -5.46 8.63 4.6 33.67 17.97 0 -7.2zm-52.38 -15.29l0 -5.46 5.04 2.69 0 5.46 -5.04 -2.69zm52.38 -11.58l-68.91 -36.76 3.49 -1.87 -6.66 -3.55 -3.5 1.86 0 19.76 75.58 40.32 75.58 -40.32 0 -7.11 -75.58 40.32 -34.38 -18.34 0 -5.46 34.38 18.34 0 -7.19zm-54.53 -16.44l0 -5.46 5.04 2.69 0 5.46 -5.04 -2.69zm10.08 5.37l0 -5.46 5.04 2.69 0 5.46 -5.04 -2.69zm20.61 -77.55c-3.93,2.09 0.86,-0.47 -6.84,3.65 2.28,1.21 4.56,2.43 6.84,3.65 2.28,-1.22 4.56,-2.44 6.84,-3.65 -2.28,-1.22 -4.56,-2.44 -6.84,-3.65zm73.26 14.4c-3.93,2.09 0.87,-0.47 -6.84,3.64 2.28,1.22 4.56,2.44 6.84,3.65 2.28,-1.21 4.56,-2.43 6.84,-3.65 -2.28,-1.21 -4.56,-2.43 -6.84,-3.64zm-14.66 -14.34c-5.71,3.04 1.26,-0.67 -9.95,5.3 3.32,1.77 6.64,3.54 9.95,5.31 3.31,-1.77 6.63,-3.54 9.94,-5.31 -3.31,-1.77 -6.63,-3.53 -9.94,-5.3zm-22.85 -8.72c2.65,1.41 5.3,2.82 7.94,4.23 2.65,-1.41 5.3,-2.82 7.95,-4.23 -2.65,-1.41 -5.3,-2.83 -7.95,-4.24 -4.55,2.43 1.01,-0.54 -7.94,4.24zm-33.31 20.95l-54.18 28.9c25.19,13.44 50.39,26.87 75.58,40.31l50.47 -26.92 20.68 -11.03 4.43 -2.36 -56.38 -30.07 -2.83 -1.51c-4.14,2.2 -8.27,4.41 -12.41,6.62 -5.46,-2.91 -10.92,-5.82 -16.38,-8.73l-8.98 4.79zm49.79 7.38c-2.44,1.3 -4.88,2.6 -7.31,3.9 -2.44,-1.3 -4.88,-2.6 -7.32,-3.9 8.24,-4.4 3.12,-1.66 7.32,-3.9 2.43,1.3 4.87,2.6 7.31,3.9z"/>
 </g>
</svg>
