<?xml version="1.0" encoding="UTF-8"?>
<!DOCTYPE svg PUBLIC "-//W3C//DTD SVG 1.1//EN" "http://www.w3.org/Graphics/SVG/1.1/DTD/svg11.dtd">
<!-- Creator: CorelDRAW -->
<svg xmlns="http://www.w3.org/2000/svg" xml:space="preserve" width="773px" height="757px" version="1.1" style="shape-rendering:geometricPrecision; text-rendering:geometricPrecision; image-rendering:optimizeQuality; fill-rule:evenodd; clip-rule:evenodd"
viewBox="0 0 27.9 27.34"
 xmlns:xlink="http://www.w3.org/1999/xlink"
 xmlns:xodm="http://www.corel.com/coreldraw/odm/2003">
 <defs>
  <style type="text/css">
   <![CDATA[
    .fil0 {fill:black}
   ]]>
  </style>
 </defs>
 <g id="Layer_x0020_1">
  <metadata id="CorelCorpID_0Corel-Layer"/>
  <path class="fil0" d="M12.37 2.89c0.77,0.42 1.54,0.83 2.31,1.24 0.77,-0.41 1.54,-0.82 2.31,-1.24 -0.77,-0.41 -1.54,-0.82 -2.31,-1.23 -1.33,0.71 0.29,-0.16 -2.31,1.23zm-1.47 7.28c-0.57,0.13 -1.01,0.11 -1.33,-0.06 -0.18,-0.09 -0.27,-0.21 -0.28,-0.34 0,-0.14 0.05,-0.29 0.18,-0.45 0.12,-0.16 0.3,-0.33 0.53,-0.5 0.23,-0.17 0.49,-0.33 0.78,-0.49 0.71,-0.38 1.4,-0.6 2.06,-0.67 0.67,-0.07 1.2,0 1.6,0.21 0.74,-0.39 1.48,-0.79 2.22,-1.19 -0.36,-0.19 -0.81,-0.33 -1.36,-0.43 -0.54,-0.1 -1.14,-0.13 -1.79,-0.09 -0.65,0.04 -1.35,0.17 -2.09,0.37 -0.63,0.18 -1.28,0.43 -1.95,0.76 -0.1,0.06 -0.21,0.11 -0.32,0.17 -0.68,0.37 -1.24,0.73 -1.66,1.1 -0.41,0.36 -0.7,0.71 -0.86,1.05 -0.16,0.33 -0.18,0.64 -0.06,0.93 0.11,0.29 0.36,0.54 0.77,0.75 0.49,0.27 1.03,0.42 1.6,0.46 0.58,0.03 1.17,0 1.79,-0.1 0.61,-0.11 1.24,-0.27 1.88,-0.48 0.64,-0.22 1.27,-0.45 1.89,-0.69 0.62,-0.25 1.15,-0.44 1.59,-0.58 0.45,-0.15 0.83,-0.25 1.14,-0.31 0.32,-0.06 0.58,-0.07 0.79,-0.05 0.2,0.02 0.38,0.07 0.52,0.14 0.22,0.12 0.34,0.26 0.34,0.43 0,0.16 -0.07,0.33 -0.21,0.52 -0.15,0.19 -0.36,0.37 -0.63,0.57 -0.27,0.19 -0.56,0.37 -0.88,0.54 -0.29,0.15 -0.62,0.29 -0.99,0.42 -0.37,0.13 -0.74,0.22 -1.12,0.28 -0.38,0.06 -0.75,0.08 -1.11,0.06 -0.36,-0.02 -0.67,-0.11 -0.95,-0.26 -0.74,0.4 -1.48,0.79 -2.22,1.19 0.56,0.3 1.18,0.48 1.86,0.55 0.69,0.06 1.39,0.04 2.1,-0.06 0.72,-0.1 1.43,-0.28 2.13,-0.51 0.7,-0.24 1.34,-0.51 1.91,-0.82 0.75,-0.39 1.35,-0.78 1.81,-1.17 0.46,-0.39 0.78,-0.77 0.95,-1.12 0.17,-0.36 0.18,-0.7 0.05,-1.01 -0.13,-0.31 -0.42,-0.59 -0.87,-0.82 -0.46,-0.25 -0.97,-0.41 -1.5,-0.46 -0.53,-0.06 -1.1,-0.04 -1.71,0.06 -0.6,0.09 -1.25,0.25 -1.95,0.48 -0.69,0.22 -1.44,0.49 -2.24,0.8 -1.04,0.41 -1.84,0.68 -2.41,0.82zm3.05 13.53l-12.72 -6.79 0.65 -0.34 -1.23 -0.66 -0.65 0.34 0 1.17 0 2.48 13.95 7.44 9.03 -4.81 1.23 -0.66 3.69 -1.97 0 -1.31 -3.69 1.97 -1.23 0.66 -9.03 4.81 -6.35 -3.38 -1.46 -0.78 0 -1.01 1.59 0.85 6.22 3.31 0 -1.32zm-9.67 -2.83l0 -1 0.93 0.49 0 1.01 -0.93 -0.5zm9.67 -2.13l-12.72 -6.79 0.65 -0.34 -1.23 -0.66 -0.65 0.34 0 3.65 13.95 7.44 13.95 -7.44 0 -1.31 -13.95 7.44 -6.35 -3.38 0 -1.01 6.35 3.38 0 -1.32zm-10.07 -3.04l0 -1.01 0.93 0.5 0 1.01 -0.93 -0.5zm1.86 0.99l0 -1 0.93 0.49 0 1.01 -0.93 -0.5zm3.81 -14.31c-0.73,0.39 0.16,-0.09 -1.26,0.67 0.42,0.23 0.84,0.45 1.26,0.68 0.42,-0.23 0.84,-0.45 1.26,-0.68 -0.42,-0.22 -0.84,-0.45 -1.26,-0.67zm13.52 2.66c-0.73,0.38 0.16,-0.09 -1.26,0.67 0.42,0.23 0.84,0.45 1.26,0.67 0.42,-0.22 0.84,-0.44 1.26,-0.67 -0.42,-0.22 -0.84,-0.45 -1.26,-0.67zm-2.71 -2.65c-1.05,0.56 0.24,-0.12 -1.83,0.98 0.61,0.33 1.22,0.65 1.83,0.98 0.61,-0.33 1.23,-0.65 1.84,-0.98 -0.61,-0.33 -1.23,-0.65 -1.84,-0.98zm-4.21 -1.61c0.49,0.26 0.97,0.52 1.46,0.78 0.49,-0.26 0.98,-0.52 1.47,-0.78 -0.49,-0.26 -0.98,-0.52 -1.47,-0.78 -0.84,0.45 0.19,-0.1 -1.46,0.78zm-6.15 3.87l-10 5.33c4.65,2.48 9.3,4.96 13.95,7.44l9.31 -4.97 3.82 -2.03 0.82 -0.44 -10.41 -5.55 -0.52 -0.28c-0.76,0.41 -1.53,0.82 -2.29,1.23 -1.01,-0.54 -2.02,-1.08 -3.02,-1.62l-1.66 0.89zm9.19 1.36c-0.45,0.24 -0.9,0.48 -1.35,0.72 -0.45,-0.24 -0.9,-0.48 -1.35,-0.72 1.52,-0.81 0.57,-0.31 1.35,-0.72 0.45,0.24 0.9,0.48 1.35,0.72z"/>
 </g>
</svg>
