<?xml version="1.0" encoding="UTF-8"?>
<!DOCTYPE svg PUBLIC "-//W3C//DTD SVG 1.1//EN" "http://www.w3.org/Graphics/SVG/1.1/DTD/svg11.dtd">
<!-- Creator: CorelDRAW -->
<svg xmlns="http://www.w3.org/2000/svg" xml:space="preserve" width="700px" height="622px" version="1.1" style="shape-rendering:geometricPrecision; text-rendering:geometricPrecision; image-rendering:optimizeQuality; fill-rule:evenodd; clip-rule:evenodd"
viewBox="0 0 112.68 100.18"
 xmlns:xlink="http://www.w3.org/1999/xlink"
 xmlns:xodm="http://www.corel.com/coreldraw/odm/2003">
 <defs>
  <style type="text/css">
   <![CDATA[
    .fil0 {fill:white}
   ]]>
  </style>
 </defs>
 <g id="Layer_x0020_1">
  <metadata id="CorelCorpID_0Corel-Layer"/>
  <path class="fil0" d="M56.34 65.41l-51.37 -27.4 2.61 -1.39 -4.97 -2.66 -2.61 1.39 0 14.74 56.34 30.05 56.34 -30.05 0 -5.31 -56.34 30.06 -25.62 -13.67 0 -4.07 25.62 13.67 0 -5.36zm0 -53.86l8.68 4.63 -26.03 13.88 4.33 2.31 26.03 -13.88 21.69 11.56 -34.71 18.51 -8.67 -4.63 26.02 -13.87 -4.34 -2.32 -26.02 13.88 -21.68 -11.57 34.7 -18.5zm0 -11.55l-56.34 30.05 56.34 30.06 56.34 -30.06 -56.34 -30.05zm0 85.44l-51.37 -27.4 2.61 -1.39 -4.97 -2.65 -2.61 1.39 0 14.73 56.34 30.06 56.34 -30.06 0 -5.3 -56.34 30.05 -31.53 -16.82 0 -4.07 31.53 16.83 0 -5.37zm-35.29 -13.46l-3.75 -2 0 4.07 3.75 2 0 -4.07zm-1.6 -20.89l-3.76 -2.01 0 4.07 3.76 2.01 0 -4.07zm7.51 4l-3.76 -2 0 4.07 3.76 2 0 -4.07z"/>
 </g>
</svg>
