<?xml version="1.0" encoding="UTF-8"?>
<!DOCTYPE svg PUBLIC "-//W3C//DTD SVG 1.1//EN" "http://www.w3.org/Graphics/SVG/1.1/DTD/svg11.dtd">
<!-- Creator: CorelDRAW -->
<svg xmlns="http://www.w3.org/2000/svg" xml:space="preserve" width="749px" height="665px" version="1.1" style="shape-rendering:geometricPrecision; text-rendering:geometricPrecision; image-rendering:optimizeQuality; fill-rule:evenodd; clip-rule:evenodd"
viewBox="0 0 26.3 23.38"
 xmlns:xlink="http://www.w3.org/1999/xlink"
 xmlns:xodm="http://www.corel.com/coreldraw/odm/2003">
 <defs>
  <style type="text/css">
   <![CDATA[
    .fil0 {fill:black}
   ]]>
  </style>
 </defs>
 <g id="Layer_x0020_1">
  <metadata id="CorelCorpID_0Corel-Layer"/>
  <path class="fil0" d="M6.29 12.86l-0.87 -0.47 0 0.95 0.87 0.47 0 -0.95zm-1.75 -0.94l-0.88 -0.46 0 0.95 0.88 0.46 0 -0.95zm0.37 4.88l-0.87 -0.47 0 0.95 0.87 0.47 0 -0.95zm8.24 3.14l-11.99 -6.39 0.61 -0.33 -1.16 -0.62 -0.61 0.33 0 3.44 13.15 7.01 13.15 -7.01 0 -1.24 -13.15 7.02 -7.36 -3.93 0 -0.95 7.36 3.93 0 -1.26zm0 -19.94l-13.15 7.01 13.15 7.02 13.15 -7.02 -13.15 -7.01zm0 15.27l-11.99 -6.4 0.61 -0.32 -1.16 -0.62 -0.61 0.32 0 3.44 13.15 7.02 13.15 -7.02 0 -1.24 -13.15 7.02 -5.98 -3.19 0 -0.95 5.98 3.19 0 -1.25zm-6.22 -7.35c0.74,0.4 1.79,0.45 3.13,0.15 0.3,-0.07 0.73,-0.18 1.27,-0.34 0.55,-0.17 1.22,-0.39 2.02,-0.66 0.67,-0.22 1.27,-0.41 1.78,-0.56 0.51,-0.14 0.94,-0.25 1.3,-0.32 0.7,-0.13 1.28,-0.07 1.73,0.16 0.47,0.25 0.58,0.59 0.34,1.02 -0.23,0.43 -0.82,0.89 -1.75,1.38 -0.48,0.26 -0.95,0.47 -1.41,0.64 -0.47,0.17 -0.93,0.29 -1.38,0.38 -0.91,0.16 -1.74,0.16 -2.5,0 -0.21,0.27 -0.43,0.53 -0.64,0.8 0.97,0.18 2.06,0.15 3.24,-0.09 0.6,-0.12 1.19,-0.28 1.77,-0.5 0.58,-0.21 1.16,-0.47 1.74,-0.77 0.63,-0.34 1.15,-0.67 1.55,-1 0.4,-0.33 0.68,-0.66 0.85,-0.98 0.34,-0.65 0.15,-1.17 -0.58,-1.56 -0.22,-0.11 -0.47,-0.2 -0.76,-0.26 -0.28,-0.05 -0.54,-0.08 -0.79,-0.09 -0.25,-0.02 -0.57,0.01 -0.96,0.07 -0.39,0.07 -0.72,0.13 -0.97,0.18 -0.26,0.06 -0.62,0.16 -1.1,0.3 -0.48,0.15 -0.84,0.26 -1.08,0.34 -0.24,0.09 -0.65,0.21 -1.21,0.4 -1.21,0.41 -2.13,0.68 -2.78,0.79 -0.64,0.12 -1.17,0.06 -1.59,-0.16 -0.47,-0.25 -0.6,-0.57 -0.38,-0.97 0.21,-0.39 0.71,-0.8 1.49,-1.21 0.74,-0.39 1.48,-0.66 2.23,-0.81 0.75,-0.15 1.51,-0.17 2.27,-0.07 0.21,-0.26 0.43,-0.52 0.65,-0.78 -0.89,-0.11 -1.86,-0.06 -2.93,0.14 -0.53,0.1 -1.05,0.24 -1.56,0.42 -0.51,0.18 -1.01,0.39 -1.5,0.66 -0.54,0.29 -0.99,0.58 -1.34,0.88 -0.35,0.3 -0.61,0.6 -0.76,0.91 -0.32,0.62 -0.12,1.13 0.61,1.51z"/>
 </g>
</svg>
