<?xml version="1.0" encoding="UTF-8"?>
<!DOCTYPE svg PUBLIC "-//W3C//DTD SVG 1.1//EN" "http://www.w3.org/Graphics/SVG/1.1/DTD/svg11.dtd">
<!-- Creator: CorelDRAW -->
<svg xmlns="http://www.w3.org/2000/svg" xml:space="preserve" width="700px" height="622px" version="1.1" style="shape-rendering:geometricPrecision; text-rendering:geometricPrecision; image-rendering:optimizeQuality; fill-rule:evenodd; clip-rule:evenodd"
viewBox="0 0 23.05 20.49"
 xmlns:xlink="http://www.w3.org/1999/xlink"
 xmlns:xodm="http://www.corel.com/coreldraw/odm/2003">
 <defs>
  <style type="text/css">
   <![CDATA[
    .fil0 {fill:black}
   ]]>
  </style>
 </defs>
 <g id="Layer_x0020_1">
  <metadata id="CorelCorpID_0Corel-Layer"/>
  <path class="fil0" d="M11.52 13.38l-10.5 -5.61 0.53 -0.28 -1.02 -0.54 -0.53 0.28 0 3.02 11.52 6.14 11.53 -6.14 0 -1.09 -11.53 6.15 -5.24 -2.8 0 -0.83 5.24 2.8 0 -1.1zm2.27 -8.06c0.54,-0.29 1.07,-0.26 1.64,0.05 0.21,0.11 0.42,0.22 0.62,0.33 0.52,0.28 0.67,0.57 0.1,0.88 -0.9,0.48 -1.8,0.96 -2.7,1.44 -0.9,0.48 -1.8,0.95 -2.69,1.43 -0.09,0.05 -0.09,0.11 0,0.15 0.21,0.12 0.42,0.23 0.63,0.34 0.09,0.05 0.19,0.05 0.28,0 0.93,-0.49 1.85,-0.99 2.78,-1.48 0.92,-0.5 1.85,-0.99 2.78,-1.48 1.1,-0.59 0.91,-1.18 -0.05,-1.68 -0.28,-0.16 -0.56,-0.31 -0.85,-0.46 -1.05,-0.56 -2.15,-0.6 -3.18,-0.05 -0.66,0.36 -1.33,0.71 -1.99,1.07 -0.67,0.35 -1.34,0.71 -2,1.06 -0.54,0.29 -1.07,0.26 -1.64,-0.04 -0.17,-0.1 -0.35,-0.19 -0.53,-0.28 -0.52,-0.28 -0.66,-0.58 -0.09,-0.88 0.86,-0.46 1.71,-0.92 2.57,-1.38 0.86,-0.45 1.71,-0.91 2.57,-1.37 0.1,-0.05 0.1,-0.1 0.01,-0.15 -0.21,-0.11 -0.42,-0.22 -0.63,-0.34 -0.09,-0.04 -0.19,-0.05 -0.29,0.01 -0.88,0.47 -1.77,0.94 -2.65,1.41 -0.88,0.47 -1.77,0.94 -2.65,1.41 -1.11,0.6 -0.92,1.18 0.03,1.69 0.26,0.13 0.51,0.27 0.76,0.4 1.06,0.57 2.15,0.6 3.18,0.05 0.66,-0.35 1.33,-0.71 2,-1.06 0.66,-0.36 1.33,-0.71 1.99,-1.07zm-2.27 -5.32l-11.52 6.15 11.52 6.14 11.53 -6.14 -11.53 -6.15zm0 17.48l-10.5 -5.61 0.53 -0.28 -1.02 -0.55 -0.53 0.29 0 3.01 11.52 6.15 11.53 -6.15 0 -1.08 -11.53 6.15 -6.45 -3.44 0 -0.84 6.45 3.44 0 -1.09zm-7.21 -2.76l-0.77 -0.41 0 0.84 0.77 0.41 0 -0.84zm-0.33 -4.27l-0.77 -0.41 0 0.83 0.77 0.41 0 -0.83zm1.53 0.82l-0.76 -0.41 0 0.83 0.76 0.41 0 -0.83z"/>
 </g>
</svg>
