<?xml version="1.0" encoding="UTF-8"?>
<!DOCTYPE svg PUBLIC "-//W3C//DTD SVG 1.1//EN" "http://www.w3.org/Graphics/SVG/1.1/DTD/svg11.dtd">
<!-- Creator: CorelDRAW -->
<svg xmlns="http://www.w3.org/2000/svg" xml:space="preserve" width="700px" height="686px" version="1.1" style="shape-rendering:geometricPrecision; text-rendering:geometricPrecision; image-rendering:optimizeQuality; fill-rule:evenodd; clip-rule:evenodd"
viewBox="0 0 23.34 22.88"
 xmlns:xlink="http://www.w3.org/1999/xlink"
 xmlns:xodm="http://www.corel.com/coreldraw/odm/2003">
 <defs>
  <style type="text/css">
   <![CDATA[
    .fil0 {fill:black}
   ]]>
  </style>
 </defs>
 <g id="Layer_x0020_1">
  <metadata id="CorelCorpID_0Corel-Layer"/>
  <path class="fil0" d="M11.67 15.68l-10.64 -5.68 0.54 -0.29 -1.03 -0.55 -0.54 0.29 0 3.05 11.67 6.23 11.67 -6.23 0 -1.1 -11.67 6.23 -5.31 -2.83 0 -0.84 5.31 2.83 0 -1.11zm7.63 -11.46c-0.6,0.32 0.14,-0.08 -1.05,0.56 0.35,0.19 0.7,0.37 1.05,0.56 0.36,-0.19 0.71,-0.37 1.06,-0.56 -0.35,-0.19 -0.7,-0.38 -1.06,-0.56zm-2.26 -2.22c-0.88,0.47 0.19,-0.1 -1.54,0.82 0.52,0.27 1.03,0.55 1.54,0.82 0.51,-0.27 1.02,-0.55 1.54,-0.82 -0.52,-0.27 -1.03,-0.55 -1.54,-0.82zm-3.53 -1.35c0.41,0.22 0.82,0.44 1.23,0.66 0.41,-0.22 0.82,-0.44 1.22,-0.66 -0.4,-0.21 -0.81,-0.43 -1.22,-0.65 -0.71,0.38 0.15,-0.08 -1.23,0.65zm-5.46 2.44c0.33,-0.18 0.66,-0.36 1,-0.53 -0.34,-0.18 -0.67,-0.36 -1,-0.54 -0.57,0.31 0.13,-0.06 -1,0.54 0.33,0.17 0.67,0.35 1,0.53zm1.77 -0.54c0.82,0.44 1.64,0.88 2.46,1.32 0.82,-0.44 1.65,-0.88 2.47,-1.32 -0.82,-0.44 -1.65,-0.88 -2.47,-1.32 -1.41,0.76 0.32,-0.16 -2.46,1.32zm-9.82 5.8c3.89,2.08 7.78,4.15 11.67,6.23 3.89,-2.08 7.78,-4.15 11.67,-6.23l-8.7 -4.64 -2.25 1.2 0.18 0.09c0.3,0.16 0.6,0.32 0.9,0.48 -0.9,0.48 -1.8,0.96 -2.7,1.44 -0.9,0.48 -1.79,0.95 -2.69,1.43 0.3,0.16 0.6,0.32 0.89,0.48 0.9,-0.48 1.8,-0.96 2.7,-1.44 0.9,-0.48 1.8,-0.95 2.7,-1.43 0.75,0.4 1.5,0.8 2.24,1.2 0.75,0.39 1.5,0.79 2.25,1.19 -1.2,0.64 -2.4,1.28 -3.6,1.92 -1.19,0.64 -2.39,1.28 -3.59,1.92 -0.6,-0.32 -1.2,-0.64 -1.8,-0.96 0.9,-0.48 1.8,-0.96 2.7,-1.44 0.9,-0.48 1.8,-0.96 2.69,-1.44 -0.29,-0.16 -0.6,-0.32 -0.89,-0.48 -0.9,0.48 -1.8,0.96 -2.7,1.44 -0.9,0.48 -1.8,0.96 -2.7,1.44 -0.74,-0.4 -1.49,-0.8 -2.24,-1.2 -0.75,-0.4 -1.5,-0.8 -2.25,-1.2 1.2,-0.64 2.4,-1.27 3.6,-1.91l3.48 -1.86 -1.47 -0.79 -0.95 0.51 -0.77 -0.41 -8.37 4.46zm14.93 -2.72c-0.38,-0.2 -0.76,-0.4 -1.13,-0.6 1.27,-0.68 0.48,-0.26 1.13,-0.6 0.37,0.2 0.75,0.4 1.13,0.6 -0.38,0.2 -0.76,0.4 -1.13,0.6zm-3.26 14.2l-10.64 -5.68 0.54 -0.29 -1.03 -0.55 -0.54 0.29 0 0.98 0 2.07 11.67 6.23 7.56 -4.03 1.02 -0.55 3.09 -1.65 0 -1.09 -3.09 1.64 -1.02 0.55 -7.56 4.03 -5.31 -2.83 -1.22 -0.65 0 -0.85 1.33 0.71 5.2 2.78 0 -1.11zm-7.31 -2.79l-0.78 -0.42 0 0.85 0.78 0.41 0 -0.84zm-0.33 -4.33l-0.78 -0.41 0 0.84 0.78 0.41 0 -0.84zm1.55 0.83l-0.77 -0.41 0 0.84 0.77 0.41 0 -0.84z"/>
 </g>
</svg>
