<?xml version="1.0" encoding="UTF-8"?>
<!DOCTYPE svg PUBLIC "-//W3C//DTD SVG 1.1//EN" "http://www.w3.org/Graphics/SVG/1.1/DTD/svg11.dtd">
<!-- Creator: CorelDRAW -->
<svg xmlns="http://www.w3.org/2000/svg" xml:space="preserve" width="700px" height="622px" version="1.1" style="shape-rendering:geometricPrecision; text-rendering:geometricPrecision; image-rendering:optimizeQuality; fill-rule:evenodd; clip-rule:evenodd"
viewBox="0 0 119.66 106.38"
 xmlns:xlink="http://www.w3.org/1999/xlink"
 xmlns:xodm="http://www.corel.com/coreldraw/odm/2003">
 <defs>
  <style type="text/css">
   <![CDATA[
    .fil0 {fill:white}
   ]]>
  </style>
 </defs>
 <g id="Layer_x0020_1">
  <metadata id="CorelCorpID_0Corel-Layer"/>
  <path class="fil0" d="M59.83 69.46l-54.55 -29.1 2.77 -1.48 -5.28 -2.81 -2.77 1.47 0 15.65 59.83 31.92 59.83 -31.92 0 -5.63 -59.83 31.92 -27.21 -14.52 0 -4.32 27.21 14.52 0 -5.7zm11.78 -41.82c2.81,-1.5 5.55,-1.35 8.51,0.23 1.08,0.58 2.15,1.15 3.23,1.73 2.69,1.43 3.44,2.98 0.48,4.56 -4.67,2.49 -9.33,4.98 -14,7.46 -4.65,2.49 -9.32,4.98 -13.98,7.46 -0.46,0.25 -0.45,0.53 0.03,0.79 1.08,0.57 2.16,1.15 3.24,1.72 0.48,0.26 1.01,0.26 1.47,0.02 4.8,-2.57 9.61,-5.13 14.42,-7.7 4.82,-2.56 9.63,-5.12 14.43,-7.69 5.72,-3.05 4.74,-6.08 -0.22,-8.73 -1.47,-0.78 -2.94,-1.56 -4.41,-2.35 -5.5,-2.93 -11.17,-3.12 -16.53,-0.26 -3.45,1.84 -6.91,3.69 -10.36,5.53 -3.46,1.84 -6.92,3.69 -10.37,5.53 -2.81,1.49 -5.54,1.35 -8.5,-0.23 -0.91,-0.49 -1.83,-0.98 -2.75,-1.47 -2.68,-1.43 -3.45,-2.98 -0.49,-4.56 4.46,-2.38 8.9,-4.75 13.36,-7.12 4.45,-2.38 8.9,-4.75 13.35,-7.13 0.51,-0.27 0.5,-0.55 0.02,-0.8 -1.08,-0.58 -2.16,-1.15 -3.24,-1.73 -0.48,-0.26 -1,-0.26 -1.51,0.01 -4.59,2.45 -9.18,4.89 -13.77,7.34 -4.58,2.44 -9.17,4.89 -13.75,7.34 -5.77,3.08 -4.79,6.11 0.17,8.75 1.31,0.7 2.62,1.4 3.93,2.1 5.49,2.93 11.15,3.12 16.51,0.26 3.45,-1.84 6.91,-3.69 10.36,-5.53 3.46,-1.84 6.92,-3.69 10.37,-5.53zm-11.78 -27.64l-59.83 31.92 59.83 31.91 59.83 -31.91 -59.83 -31.92zm0 90.74l-54.55 -29.1 2.77 -1.48 -5.28 -2.82 -2.77 1.48 0 15.65 59.83 31.91 59.83 -31.91 0 -5.63 -59.83 31.91 -33.48 -17.86 0 -4.32 33.48 17.86 0 -5.69zm-37.47 -14.3l-3.99 -2.13 0 4.32 3.99 2.13 0 -4.32zm-1.71 -22.19l-3.99 -2.12 0 4.32 3.99 2.13 0 -4.33zm7.98 4.26l-3.99 -2.13 0 4.32 3.99 2.13 0 -4.32z"/>
 </g>
</svg>
