<?xml version="1.0" encoding="UTF-8"?>
<!DOCTYPE svg PUBLIC "-//W3C//DTD SVG 1.1//EN" "http://www.w3.org/Graphics/SVG/1.1/DTD/svg11.dtd">
<!-- Creator: CorelDRAW -->
<svg xmlns="http://www.w3.org/2000/svg" xml:space="preserve" width="700px" height="622px" version="1.1" style="shape-rendering:geometricPrecision; text-rendering:geometricPrecision; image-rendering:optimizeQuality; fill-rule:evenodd; clip-rule:evenodd"
viewBox="0 0 23.05 20.49"
 xmlns:xlink="http://www.w3.org/1999/xlink"
 xmlns:xodm="http://www.corel.com/coreldraw/odm/2003">
 <defs>
  <style type="text/css">
   <![CDATA[
    .fil0 {fill:black}
   ]]>
  </style>
 </defs>
 <g id="Layer_x0020_1">
  <metadata id="CorelCorpID_0Corel-Layer"/>
  <path class="fil0" d="M11.52 13.38l-10.5 -5.61 0.53 -0.28 -1.02 -0.54 -0.53 0.28 0 3.02 11.52 6.14 11.53 -6.14 0 -1.09 -11.53 6.15 -5.24 -2.8 0 -0.83 5.24 2.8 0 -1.1zm0 -11.02l-6.26 3.34 0.83 0.45 -0.83 0.44 2.77 1.48 0.83 -0.44 0.83 0.44 4.49 -2.4 0.89 0.48 -5.32 2.84 1.77 0.94 6.27 -3.34 -0.83 -0.44 0.83 -0.45 -2.77 -1.48 -0.83 0.45 -0.84 -0.45 -4.49 2.4 -0.88 -0.47 5.32 -2.84 -1.78 -0.95zm0 -2.36l-11.52 6.15 11.52 6.14 11.53 -6.14 -11.53 -6.15zm0 17.48l-10.5 -5.61 0.53 -0.28 -1.02 -0.55 -0.53 0.29 0 3.01 11.52 6.15 11.53 -6.15 0 -1.08 -11.53 6.15 -6.45 -3.44 0 -0.84 6.45 3.44 0 -1.09zm-7.21 -2.76l-0.77 -0.41 0 0.84 0.77 0.41 0 -0.84zm-0.33 -4.27l-0.77 -0.41 0 0.83 0.77 0.41 0 -0.83zm1.53 0.82l-0.76 -0.41 0 0.83 0.76 0.41 0 -0.83z"/>
 </g>
</svg>
