<?xml version="1.0" encoding="UTF-8"?>
<!DOCTYPE svg PUBLIC "-//W3C//DTD SVG 1.1//EN" "http://www.w3.org/Graphics/SVG/1.1/DTD/svg11.dtd">
<!-- Creator: CorelDRAW -->
<svg xmlns="http://www.w3.org/2000/svg" xml:space="preserve" width="1956px" height="424px" version="1.1" style="shape-rendering:geometricPrecision; text-rendering:geometricPrecision; image-rendering:optimizeQuality; fill-rule:evenodd; clip-rule:evenodd"
viewBox="0 0 591.43 128.13"
 xmlns:xlink="http://www.w3.org/1999/xlink"
 xmlns:xodm="http://www.corel.com/coreldraw/odm/2003">
 <defs>
  <style type="text/css">
   <![CDATA[
    .fil0 {fill:white}
    .fil1 {fill:white;fill-rule:nonzero}
   ]]>
  </style>
 </defs>
 <g id="Layer_x0020_1">
  <metadata id="CorelCorpID_0Corel-Layer"/>
  <g id="_2189758295680">
   <path class="fil0" d="M72.07 83.66l-65.71 -35.05 3.33 -1.78 -6.36 -3.39 -3.33 1.78 0 18.85 72.07 38.44 72.06 -38.44 0 -6.79 -72.06 38.44 -32.78 -17.48 0 -5.21 32.78 17.49 0 -6.86zm-0.01 -68.89l11.1 5.92 -33.29 17.76 5.54 2.95 33.3 -17.76 27.73 14.8 -44.38 23.67 -11.1 -5.91 33.29 -17.75 -5.55 -2.96 -33.29 17.75 -27.73 -14.8 44.38 -23.67zm0 -14.77l-72.06 38.44 72.06 38.44 72.07 -38.44 -72.07 -38.44zm0.01 109.29l-65.71 -35.05 3.33 -1.78 -6.36 -3.39 -3.33 1.78 0 18.84 72.07 38.44 72.06 -38.44 0 -6.78 -72.06 38.44 -40.34 -21.51 0 -5.21 40.34 21.52 0 -6.86zm-45.14 -17.22l-4.81 -2.56 0 5.2 4.81 2.56 0 -5.2zm-2.06 -26.72l-4.8 -2.57 0 5.21 4.8 2.56 0 -5.2zm9.61 5.12l-4.8 -2.56 0 5.2 4.8 2.57 0 -5.21z"/>
   <path class="fil1" d="M169.46 78.68c0.61,16.66 12.68,28.37 33.33,28.37 17.74,0 30.06,-10.26 30.06,-24.87 0,-16.42 -14.13,-21.01 -27.89,-23.3 -12.68,-2.18 -22.94,-4.23 -22.94,-14.37 0,-9.06 7.37,-13.89 18.35,-13.89 11.47,0 19.32,6.4 20.53,16.18l10.86 0c-0.96,-15.21 -12.55,-25.71 -31.39,-25.71 -17.14,0 -28.85,9.65 -28.85,24.02 0,16.42 14,20.89 27.65,23.18 12.79,2.18 23.18,4.35 23.18,14.85 0,9.18 -8.09,14.37 -19.44,14.37 -12.92,0 -21.73,-7.48 -22.58,-18.83l-10.87 0zm75.22 27.64l9.9 0 0 -84.51 -9.9 0 0 84.51zm77.88 -9.05c-2.78,0 -3.99,-0.85 -3.99,-4.11l0 -26.92c0,-14.37 -9.05,-22.22 -24.75,-22.22 -14.85,0 -24.63,7.13 -26.08,19.2l9.9 0c1.21,-6.28 7.01,-10.38 15.7,-10.38 9.66,0 15.33,4.83 15.33,12.8l0 4.22 -18.11 0c-16.18,0 -24.75,6.88 -24.75,19.2 0,11.23 9.18,17.99 22.7,17.99 10.62,0 16.78,-4.71 20.64,-10.26 0.12,6.03 2.9,9.53 11.11,9.53l5.43 0 0 -9.05 -3.13 0zm-13.89 -16.06c0,10.26 -7.12,17.39 -19.44,17.39 -8.21,0 -13.4,-4.11 -13.4,-10.15 0,-7 4.95,-10.26 13.76,-10.26l19.08 0 0 3.02zm29.22 9.06c0,10.86 4.22,16.05 16.06,16.05l10.74 0 0 -9.05 -9.78 0c-5.31,0 -7.12,-1.93 -7.12,-7.12l0 -36.34 15.94 0 0 -9.06 -15.94 0 0 -17.27 -9.9 0 0 17.27 -11.11 0 0 9.06 11.11 0 0 36.46zm62.18 16.78c14.24,0 24.38,-9.06 26.8,-21.37l-10.02 0c-2.05,7.97 -8.81,12.55 -17.51,12.55 -11.71,0 -19.07,-8.2 -19.44,-19.92l0 -0.84 47.81 0c0.13,-1.45 0.25,-2.9 0.25,-4.23 -0.49,-18.23 -11.84,-29.22 -29.22,-29.22 -17.39,0 -29.22,12.8 -29.22,31.52 0,18.83 12.07,31.51 30.55,31.51zm-19.56 -37.79c0.96,-10.02 9.29,-16.54 18.35,-16.54 10.26,0 17.51,5.91 18.47,16.54l-36.82 0zm90.07 37.06c26.32,0 43.82,-17.62 43.82,-42.37 0,-24.88 -17.5,-42.14 -43.82,-42.14l-30.79 0 0 84.51 30.79 0zm-12.68 -69.42l12.68 0c16.17,0 25.23,10.87 25.23,27.05 0,16.05 -9.06,27.28 -25.23,27.28l-12.68 0 0 -54.33zm67.49 69.42l33.68 0c20.77,0 32.36,-9.29 32.36,-24.02 0,-12.08 -7.73,-17.99 -18.96,-19.44 9.66,-2.05 15.94,-8.09 15.94,-18.71 0,-14.13 -11.35,-22.34 -30.91,-22.34l-32.11 0 0 84.51zm32.6 -70.26c7.84,0 12.31,3.98 12.31,10.26 0,6.28 -4.59,10.26 -12.31,10.26l-14.49 0 0 -20.52 14.49 0zm1.2 34.53c8.58,0 13.65,3.98 13.65,10.86 0,6.52 -4.95,10.51 -13.65,10.51l-15.69 0 0 -21.37 15.69 0z"/>
  </g>
 </g>
</svg>
