<?xml version="1.0" encoding="UTF-8"?>
<!DOCTYPE svg PUBLIC "-//W3C//DTD SVG 1.1//EN" "http://www.w3.org/Graphics/SVG/1.1/DTD/svg11.dtd">
<!-- Creator: CorelDRAW -->
<svg xmlns="http://www.w3.org/2000/svg" xml:space="preserve" width="1956px" height="424px" version="1.1" style="shape-rendering:geometricPrecision; text-rendering:geometricPrecision; image-rendering:optimizeQuality; fill-rule:evenodd; clip-rule:evenodd"
viewBox="0 0 1131.9 245.23"
 xmlns:xlink="http://www.w3.org/1999/xlink"
 xmlns:xodm="http://www.corel.com/coreldraw/odm/2003">
 <defs>
  <style type="text/css">
   <![CDATA[
    .fil0 {fill:black}
    .fil1 {fill:black;fill-rule:nonzero}
   ]]>
  </style>
 </defs>
 <g id="Layer_x0020_1">
  <metadata id="CorelCorpID_0Corel-Layer"/>
  <g id="_2189496996560">
   <path class="fil0" d="M137.92 160.12l-125.75 -67.08 6.38 -3.41 -12.17 -6.49 -6.38 3.4 0 36.07 137.92 73.57 137.92 -73.57 0 -12.98 -137.92 73.57 -62.73 -33.46 0 -9.97 62.73 33.47 0 -13.12zm-0.01 -131.85l21.25 11.33 -63.71 33.98 10.6 5.65 63.72 -33.98 53.09 28.32 -84.96 45.3 -21.23 -11.32 63.7 -33.97 -10.62 -5.67 -63.7 33.97 -53.07 -28.31 84.93 -45.3zm0.01 -28.27l-137.92 73.57 137.92 73.57 137.92 -73.57 -137.92 -73.57zm0 209.16l-125.75 -67.08 6.38 -3.4 -12.17 -6.49 -6.38 3.4 0 36.07 137.92 73.57 137.92 -73.57 0 -12.98 -137.92 73.57 -77.19 -41.18 0 -9.96 77.19 41.18 0 -13.13zm-86.39 -32.96l-9.19 -4.9 0 9.96 9.19 4.91 0 -9.97zm-3.93 -51.14l-9.19 -4.9 0 9.96 9.19 4.9 0 -9.96zm18.39 9.81l-9.19 -4.91 0 9.97 9.19 4.9 0 -9.96z"/>
   <path class="fil1" d="M324.33 150.57c1.15,31.89 24.26,54.3 63.77,54.3 33.97,0 57.54,-19.64 57.54,-47.6 0,-31.42 -27.04,-40.2 -53.38,-44.59 -24.26,-4.16 -43.9,-8.09 -43.9,-27.5 0,-17.33 14.09,-26.57 35.12,-26.57 21.95,0 36.97,12.24 39.28,30.96l20.8 0c-1.85,-29.11 -24.03,-49.21 -60.08,-49.21 -32.81,0 -55.22,18.48 -55.22,45.98 0,31.42 26.8,39.97 52.91,44.36 24.49,4.16 44.36,8.32 44.36,28.42 0,17.56 -15.48,27.5 -37.2,27.5 -24.72,0 -41.59,-14.33 -43.21,-36.05l-20.79 0zm143.95 52.92l18.95 0 0 -161.75 -18.95 0 0 161.75zm149.04 -17.34c-5.32,0 -7.63,-1.61 -7.63,-7.85l0 -51.53c0,-27.49 -17.33,-42.51 -47.37,-42.51 -28.42,0 -47.13,13.63 -49.91,36.74l18.95 0c2.31,-12.02 13.4,-19.88 30.04,-19.88 18.48,0 29.35,9.25 29.35,24.5l0 8.09 -34.66 0c-30.97,0 -47.37,13.16 -47.37,36.73 0,21.49 17.56,34.43 43.44,34.43 20.33,0 32.12,-9.01 39.51,-19.64 0.23,11.55 5.54,18.26 21.26,18.26l10.4 0 0 -17.34 -6.01 0zm-26.57 -30.73c0,19.64 -13.64,33.28 -37.21,33.28 -15.71,0 -25.64,-7.86 -25.64,-19.41 0,-13.4 9.47,-19.64 26.34,-19.64l36.51 0 0 5.77zm55.91 17.33c0,20.8 8.09,30.74 30.73,30.74l20.57 0 0 -17.34 -18.72 0c-10.16,0 -13.63,-3.69 -13.63,-13.63l0 -69.55 30.5 0 0 -17.33 -30.5 0 0 -33.04 -18.95 0 0 33.04 -21.25 0 0 17.33 21.25 0 0 69.78zm119 32.12c27.27,0 46.68,-17.33 51.3,-40.9l-19.18 0c-3.93,15.26 -16.87,24.03 -33.5,24.03 -22.42,0 -36.51,-15.71 -37.21,-38.12l0 -1.62 91.5 0c0.24,-2.77 0.47,-5.54 0.47,-8.09 -0.93,-34.89 -22.65,-55.91 -55.92,-55.91 -33.27,0 -55.92,24.49 -55.92,60.31 0,36.04 23.11,60.3 58.46,60.3zm-37.43 -72.32c1.85,-19.18 17.79,-31.66 35.12,-31.66 19.64,0 33.5,11.33 35.35,31.66l-70.47 0zm172.37 70.94c50.38,0 83.88,-33.74 83.88,-81.11 0,-47.6 -33.5,-80.64 -83.88,-80.64l-58.92 0 0 161.75 58.92 0zm-24.26 -132.87l24.26 0c30.97,0 48.3,20.8 48.3,51.76 0,30.73 -17.33,52.22 -48.3,52.22l-24.26 0 0 -103.98zm129.17 132.87l64.46 0c39.75,0 61.93,-17.8 61.93,-45.98 0,-23.11 -14.79,-34.43 -36.28,-37.21 18.49,-3.93 30.5,-15.48 30.5,-35.81 0,-27.04 -21.72,-42.75 -59.15,-42.75l-61.46 0 0 161.75zm62.38 -134.48c15.02,0 23.57,7.62 23.57,19.64 0,12.01 -8.78,19.64 -23.57,19.64l-27.72 0 0 -39.28 27.72 0zm2.31 66.08c16.41,0 26.12,7.63 26.12,20.8 0,12.47 -9.48,20.1 -26.12,20.1l-30.03 0 0 -40.9 30.03 0z"/>
  </g>
 </g>
</svg>
