<?xml version="1.0" encoding="UTF-8"?>
<!DOCTYPE svg PUBLIC "-//W3C//DTD SVG 1.1//EN" "http://www.w3.org/Graphics/SVG/1.1/DTD/svg11.dtd">
<!-- Creator: CorelDRAW -->
<svg xmlns="http://www.w3.org/2000/svg" xml:space="preserve" width="1956px" height="456px" version="1.1" style="shape-rendering:geometricPrecision; text-rendering:geometricPrecision; image-rendering:optimizeQuality; fill-rule:evenodd; clip-rule:evenodd"
viewBox="0 0 270.93 63.11"
 xmlns:xlink="http://www.w3.org/1999/xlink"
 xmlns:xodm="http://www.corel.com/coreldraw/odm/2003">
 <defs>
  <style type="text/css">
   <![CDATA[
    .fil1 {fill:black}
    .fil0 {fill:black;fill-rule:nonzero}
   ]]>
  </style>
 </defs>
 <g id="Layer_x0020_1">
  <metadata id="CorelCorpID_0Corel-Layer"/>
  <g id="_2190072924144">
   <g>
    <path class="fil0" d="M98.06 11.64c0.35,0 0.7,0.01 1.03,0.02l0.01 0c2.09,0.09 3.93,0.45 5.51,1.08 1.83,0.74 3.34,1.7 4.54,2.89 1.19,1.19 2.08,2.54 2.66,4.04 0.59,1.51 0.88,3.01 0.88,4.51l-7.26 0c0,-1.65 -0.65,-3.02 -1.95,-4.12 -1.3,-1.1 -3.11,-1.65 -5.42,-1.65 -0.95,0 -1.88,0.09 -2.77,0.27 -0.9,0.19 -1.7,0.46 -2.4,0.83 -0.69,0.37 -1.24,0.82 -1.65,1.37 -0.4,0.55 -0.6,1.2 -0.6,1.93 0,1.32 0.67,2.3 2.01,2.94 1.33,0.64 3.47,1.26 6.4,1.84 2.28,0.44 4.32,0.95 6.14,1.52 1.81,0.57 3.36,1.29 4.64,2.17 1.29,0.88 2.28,1.98 2.97,3.3 0.7,1.32 1.05,2.95 1.05,4.89 0,1.84 -0.37,3.5 -1.1,4.98 -0.73,1.49 -1.79,2.75 -3.16,3.8 -1.38,1.04 -3.04,1.84 -4.98,2.39 -1.95,0.55 -4.13,0.82 -6.55,0.82 -1.87,0 -3.74,-0.26 -5.61,-0.79 -1.87,-0.53 -3.54,-1.34 -5.03,-2.42 -1.48,-1.08 -2.69,-2.46 -3.6,-4.13 -0.92,-1.67 -1.38,-3.66 -1.38,-5.97l7.26 0c0,1.14 0.26,2.12 0.77,2.95 0.52,0.82 1.18,1.51 1.98,2.06 0.81,0.55 1.71,0.96 2.7,1.24 0.99,0.27 1.96,0.41 2.91,0.41 1.03,0 2.06,-0.09 3.08,-0.28 1.03,-0.18 1.95,-0.48 2.75,-0.9 0.81,-0.42 1.46,-0.96 1.96,-1.6 0.49,-0.64 0.74,-1.42 0.74,-2.34 0,-0.58 -0.14,-1.13 -0.41,-1.65 -0.28,-0.51 -0.76,-0.98 -1.46,-1.4 -0.7,-0.42 -1.62,-0.81 -2.78,-1.18 -1.15,-0.37 -2.61,-0.72 -4.37,-1.05 -1.76,-0.33 -3.49,-0.74 -5.2,-1.23 -1.7,-0.5 -3.22,-1.18 -4.54,-2.04 -1.32,-0.86 -2.39,-1.96 -3.21,-3.3 -0.83,-1.34 -1.24,-3.03 -1.24,-5.09 0,-1.65 0.35,-3.15 1.04,-4.51 0.7,-1.35 1.69,-2.52 2.97,-3.49 1.29,-0.97 2.83,-1.73 4.62,-2.28 1.8,-0.55 3.82,-0.83 6.05,-0.83z"/>
    <polygon class="fil0" points="123.95,50.8 116.69,50.8 116.69,11.66 123.95,11.66 "/>
    <path class="fil0" d="M155.89 50.78l-6.93 0 0 -3.03c-1.1,1.18 -2.38,2.09 -3.85,2.72 -1.47,0.63 -3.08,0.94 -4.84,0.94 -1.83,0 -3.57,-0.38 -5.2,-1.13 -1.63,-0.75 -3.06,-1.79 -4.29,-3.11 -1.23,-1.32 -2.2,-2.88 -2.91,-4.69 -0.72,-1.8 -1.07,-3.75 -1.07,-5.84 0,-2.09 0.35,-4.05 1.07,-5.87 0.71,-1.82 1.68,-3.39 2.91,-4.71 1.23,-1.32 2.66,-2.36 4.29,-3.11 1.63,-0.76 3.37,-1.13 5.2,-1.13 1.76,0 3.37,0.31 4.84,0.94 1.47,0.63 2.75,1.53 3.85,2.72l0 -3.03 6.93 0 0 28.33zm-7.26 -14.08c0,-1.14 -0.19,-2.19 -0.58,-3.18 -0.38,-0.99 -0.91,-1.85 -1.57,-2.58 -0.66,-0.73 -1.43,-1.3 -2.32,-1.72 -0.88,-0.43 -1.83,-0.64 -2.82,-0.64 -0.99,0 -1.93,0.21 -2.81,0.64 -0.89,0.42 -1.66,0.98 -2.32,1.69 -0.66,0.72 -1.19,1.57 -1.58,2.58 -0.38,1.01 -0.57,2.07 -0.57,3.21 0,1.13 0.19,2.18 0.57,3.15 0.39,0.96 0.92,1.81 1.58,2.52 0.66,0.72 1.43,1.27 2.32,1.67 0.88,0.4 1.82,0.6 2.81,0.6 0.99,0 1.94,-0.21 2.82,-0.63 0.89,-0.42 1.66,-0.98 2.32,-1.69 0.66,-0.72 1.19,-1.56 1.57,-2.52 0.39,-0.98 0.58,-2 0.58,-3.1z"/>
    <path class="fil0" d="M171.55 51.46c-1.91,0 -3.63,-0.31 -5.17,-0.93 -1.54,-0.62 -2.85,-1.49 -3.93,-2.6 -1.09,-1.12 -1.92,-2.44 -2.51,-3.95 -0.58,-1.53 -0.88,-3.19 -0.88,-4.97l0 -23.68 7.26 0 0 7.2 5.23 0 1.69 0 0 6.77 -1.69 0 -5.23 0 0 10.06c0,0.66 0.1,1.31 0.3,1.93 0.21,0.62 0.52,1.18 0.94,1.68 0.42,0.49 0.96,0.89 1.62,1.18 0.66,0.29 1.45,0.44 2.37,0.44l1.69 0 0 6.87 -1.69 0z"/>
    <path class="fil0" d="M181.56 39.47c0.48,1.76 1.35,3.14 2.62,4.13 1.26,0.99 2.75,1.48 4.48,1.48 1.21,0 2.35,-0.26 3.44,-0.79 1.08,-0.53 1.93,-1.37 2.55,-2.51l7.76 0c-0.84,2.9 -2.45,5.24 -4.81,7.02 -2.37,1.78 -5.33,2.66 -8.89,2.66 -1.98,0 -3.85,-0.38 -5.61,-1.15 -1.76,-0.77 -3.3,-1.82 -4.62,-3.16 -1.32,-1.34 -2.36,-2.91 -3.13,-4.71 -0.77,-1.79 -1.16,-3.72 -1.16,-5.77 0,-2.05 0.39,-3.99 1.16,-5.8 0.77,-1.82 1.81,-3.4 3.13,-4.73 1.32,-1.34 2.86,-2.41 4.62,-3.19 1.76,-0.79 3.63,-1.19 5.61,-1.19 2.09,0 4.06,0.4 5.92,1.19 1.85,0.78 3.43,1.94 4.75,3.46 1.32,1.52 2.31,3.38 2.97,5.58 0.66,2.2 0.87,4.7 0.61,7.48l-21.4 0zm14.19 -5.94c-0.44,-1.65 -1.29,-2.96 -2.55,-3.93 -1.27,-0.97 -2.78,-1.46 -4.54,-1.46 -1.65,0 -3.1,0.49 -4.35,1.46 -1.24,0.97 -2.12,2.28 -2.64,3.93l14.08 0z"/>
    <path class="fil0" d="M237.43 31.72c0,2.93 -0.4,5.57 -1.21,7.92 -0.81,2.35 -1.96,4.34 -3.47,5.99 -1.5,1.65 -3.31,2.93 -5.44,3.83 -2.13,0.9 -4.49,1.34 -7.1,1.34l-14.13 0 0 -38.17 14.13 0c2.64,0 5.03,0.44 7.15,1.32 2.13,0.88 3.94,2.15 5.42,3.8 1.49,1.65 2.63,3.66 3.44,6.02 0.81,2.37 1.21,5.02 1.21,7.95zm-7.26 -0.06c0,-1.39 -0.14,-2.81 -0.41,-4.26 -0.28,-1.45 -0.78,-2.77 -1.52,-3.96 -0.73,-1.19 -1.74,-2.16 -3.02,-2.91 -1.28,-0.76 -2.95,-1.13 -5.01,-1.13l-6.87 0 0 24.64 6.87 0c2.17,0 3.9,-0.43 5.2,-1.29 1.3,-0.86 2.31,-1.92 3.03,-3.17 0.71,-1.24 1.18,-2.58 1.4,-4.01 0.22,-1.43 0.33,-2.73 0.33,-3.91z"/>
    <path class="fil0" d="M270.93 39.58c0,1.73 -0.28,3.28 -0.83,4.65 -0.55,1.38 -1.34,2.55 -2.39,3.52 -1.04,0.97 -2.31,1.73 -3.79,2.26 -1.49,0.53 -3.15,0.79 -4.98,0.79l-18.59 0 0 -38.17 17.6 0c3.85,0 6.73,0.92 8.63,2.75 1.91,1.84 2.86,4.37 2.86,7.59 0,1.62 -0.33,3.06 -0.99,4.32 -0.66,1.27 -1.57,2.32 -2.75,3.16 1.65,0.85 2.94,2.03 3.85,3.55 0.92,1.52 1.38,3.38 1.38,5.58zm-23.32 -20.35l0 8.42 10.34 0c1.24,0 2.3,-0.39 3.16,-1.16 0.86,-0.77 1.29,-1.79 1.29,-3.08 0,-1.28 -0.39,-2.3 -1.18,-3.05 -0.79,-0.75 -1.88,-1.13 -3.27,-1.13l-10.34 0zm15.89 20.08c0,-1.61 -0.48,-2.85 -1.45,-3.71 -0.98,-0.86 -2.4,-1.3 -4.27,-1.3l-10.17 0 0 9.85 10.34 0c0.69,0 1.37,-0.07 2.03,-0.22 0.66,-0.15 1.26,-0.41 1.79,-0.8 0.53,-0.38 0.95,-0.88 1.27,-1.48 0.31,-0.61 0.46,-1.39 0.46,-2.34z"/>
   </g>
   <path class="fil1" d="M35.5 41.21l-32.37 -17.27 1.64 -0.87 -3.13 -1.67 -1.64 0.87 0 9.29 35.5 18.93 35.49 -18.93 0 -3.35 -35.49 18.94 -16.15 -8.61 0 -2.57 16.15 8.61 0 -3.37zm-0.01 -33.94l-19.29 10.3 2.56 1.36 -2.56 1.37 8.53 4.55 2.56 -1.36 2.56 1.36 13.84 -7.37 2.73 1.46 -16.39 8.74 5.46 2.91 19.3 -10.29 -2.56 -1.37 2.56 -1.36 -8.54 -4.56 -2.56 1.37 -2.56 -1.37 -13.84 7.38 -2.72 -1.45 16.39 -8.75 -5.47 -2.92zm0 -7.27l-35.49 18.93 35.49 18.94 35.5 -18.94 -35.5 -18.93zm0.01 53.83l-32.37 -17.26 1.64 -0.88 -3.13 -1.67 -1.64 0.88 0 9.28 35.5 18.93 35.49 -18.93 0 -3.34 -35.49 18.93 -19.87 -10.6 0 -2.56 19.87 10.6 0 -3.38zm-22.24 -8.48l-2.36 -1.27 0 2.57 2.36 1.26 0 -2.56zm-1.01 -13.16l-2.36 -1.27 0 2.57 2.36 1.26 0 -2.56zm4.73 2.52l-2.36 -1.26 0 2.56 2.36 1.26 0 -2.56z"/>
  </g>
 </g>
</svg>
