<?xml version="1.0" encoding="UTF-8"?>
<!DOCTYPE svg PUBLIC "-//W3C//DTD SVG 1.1//EN" "http://www.w3.org/Graphics/SVG/1.1/DTD/svg11.dtd">
<!-- Creator: CorelDRAW -->
<svg xmlns="http://www.w3.org/2000/svg" xml:space="preserve" width="1956px" height="455px" version="1.1" style="shape-rendering:geometricPrecision; text-rendering:geometricPrecision; image-rendering:optimizeQuality; fill-rule:evenodd; clip-rule:evenodd"
viewBox="0 0 1183.36 275.4"
 xmlns:xlink="http://www.w3.org/1999/xlink"
 xmlns:xodm="http://www.corel.com/coreldraw/odm/2003">
 <defs>
  <style type="text/css">
   <![CDATA[
    .fil0 {fill:black}
    .fil1 {fill:black;fill-rule:nonzero}
   ]]>
  </style>
 </defs>
 <g id="Layer_x0020_1">
  <metadata id="CorelCorpID_0Corel-Layer"/>
  <g id="_2189493961440">
   <path class="fil0" d="M140.49 188.7l-128.1 -68.33 6.5 -3.47 -12.39 -6.61 -6.5 3.47 0 36.74 140.49 74.94 140.49 -74.94 0 -13.23 -140.49 74.94 -63.9 -34.08 0 -10.15 63.9 34.09 0 -13.37zm91.86 -137.96c-7.3,3.89 1.61,-0.86 -12.72,6.78 4.24,2.26 8.48,4.52 12.72,6.78 4.24,-2.26 8.48,-4.52 12.72,-6.78 -4.24,-2.26 -8.48,-4.52 -12.72,-6.78zm-27.25 -26.65c-10.61,5.65 2.34,-1.25 -18.48,9.85 6.16,3.29 12.32,6.58 18.48,9.86 6.16,-3.28 12.32,-6.57 18.48,-9.86 -6.16,-3.28 -12.32,-6.57 -18.48,-9.85zm-42.47 -16.22c4.92,2.63 9.84,5.26 14.76,7.88 4.93,-2.62 9.85,-5.25 14.77,-7.88 -4.92,-2.62 -9.84,-5.25 -14.77,-7.87 -8.47,4.52 1.87,-1 -14.76,7.87zm-65.74 29.29c4,-2.14 8,-4.27 12,-6.4 -4,-2.14 -8,-4.27 -12,-6.41 -6.9,3.68 1.51,-0.81 -12.01,6.41 4.01,2.13 8,4.26 12.01,6.4zm21.28 -6.47c9.89,5.28 19.78,10.56 29.67,15.84 9.89,-5.28 19.79,-10.56 29.68,-15.84 -9.89,-5.27 -19.79,-10.55 -29.68,-15.82 -17.03,9.08 3.76,-2.01 -29.67,15.82zm-118.17 69.85c46.83,24.98 93.66,49.96 140.49,74.94 46.83,-24.98 93.66,-49.96 140.49,-74.94l-104.79 -55.9 -27 14.4 2.12 1.13c3.59,1.92 7.21,3.85 10.81,5.77 -10.81,5.77 -21.63,11.53 -32.45,17.3 -10.81,5.77 -21.63,11.54 -32.44,17.31 3.6,1.92 7.2,3.84 10.8,5.76 10.81,-5.77 21.63,-11.54 32.44,-17.31 10.82,-5.77 21.63,-11.54 32.46,-17.3 9.02,4.81 18.04,9.61 27.05,14.43 9,4.79 18.01,9.61 27.03,14.41 -14.43,7.7 -28.87,15.39 -43.3,23.08 -14.41,7.69 -28.83,15.38 -43.24,23.07 -7.21,-3.84 -14.41,-7.69 -21.63,-11.54 10.82,-5.77 21.63,-11.54 32.43,-17.29 10.82,-5.77 21.65,-11.54 32.46,-17.31 -3.6,-1.92 -7.21,-3.84 -10.81,-5.77 -10.82,5.77 -21.65,11.54 -32.47,17.31 -10.79,5.76 -21.62,11.53 -32.42,17.29 -9.02,-4.8 -18.02,-9.61 -27.03,-14.41 -9,-4.8 -18.03,-9.62 -27.03,-14.43 14.42,-7.69 28.83,-15.38 43.25,-23.07l41.91 -22.36 -17.73 -9.45 -11.43 6.09 -9.26 -4.93 -100.71 53.72zm179.66 -32.75c-4.53,-2.42 -9.06,-4.83 -13.59,-7.25 15.31,-8.17 5.79,-3.09 13.59,-7.25 4.53,2.42 9.07,4.83 13.6,7.25 -4.53,2.42 -9.07,4.83 -13.6,7.25zm-39.17 170.87l-128.1 -68.33 6.5 -3.47 -12.39 -6.61 -6.5 3.47 0 11.76 0 24.98 140.49 74.94 90.91 -48.5 12.4 -6.61 37.18 -19.83 0 -13.22 -37.18 19.83 -12.4 6.61 -90.91 48.49 -63.9 -34.08 -14.73 -7.86 0 -10.15 16.04 8.56 62.59 33.39 0 -13.37zm-87.99 -33.57l-9.37 -5 0 10.15 9.37 4.99 0 -10.14zm-4.01 -52.1l-9.36 -5 0 10.15 9.36 5 0 -10.15zm18.73 9.99l-9.36 -4.99 0 10.14 9.36 5 0 -10.15z"/>
   <path class="fil1" d="M357.19 93.37c-19.86,0 -27.95,10.9 -27.95,27.07l0 12.83c0,17.93 9.14,27.77 27.6,27.77l71.37 0c9.66,0 13.88,4.93 13.88,14.6l0 10.54c0,8.79 -3.69,14.77 -13.88,14.77l-96.33 0c-1.58,0 -2.46,0.88 -2.46,2.46l0 10.55c0,1.58 0.88,2.46 2.46,2.46l99.31 0c19.69,0 27.78,-10.9 27.78,-27.07l0 -14.42c0,-17.93 -9.14,-27.77 -27.6,-27.77l-71.37 0c-9.67,0 -13.88,-4.92 -13.88,-14.59l0 -8.97c0,-8.79 3.69,-14.76 13.88,-14.76l91.94 0c1.75,0 2.63,-0.88 2.63,-2.46l0 -10.55c0,-1.58 -0.88,-2.46 -2.63,-2.46l-94.75 0zm126.03 -8.79c-1.75,0 -2.63,0.88 -2.63,2.46l0 126.92c0,1.58 0.88,2.46 2.63,2.46l10.73 0c1.75,0 2.46,-0.88 2.46,-2.46l0 -126.92c0,-1.58 -0.71,-2.46 -2.46,-2.46l-10.73 0zm38.5 38.15c-1.41,0 -2.11,0.52 -2.11,2.1l0 9.32c0,1.41 0.7,2.11 2.11,2.11l73.83 0c20.39,0 26.54,5.98 26.54,21.62l0 4.75 -78.75 0c-20.39,0 -26.54,7.91 -26.54,22.32l0 7.21c0,16.87 6.15,24.26 26.54,24.26l81.91 0c9.85,0 12.66,-2.46 12.66,-13.71l0 -45.53c0,-24.79 -10.02,-34.45 -40.96,-34.45l-75.23 0zm93.52 81.03l-67.86 0c-11.42,0 -15.11,-4.04 -15.11,-13.54l0 -4.57c0,-8.08 3.69,-12.65 15.11,-12.65l74.71 0 0 23.38c0,5.8 -1.76,7.38 -6.85,7.38zm37.26 -81.03c-1.41,0 -2.11,0.52 -2.11,2.1l0 9.15c0,1.4 0.7,2.1 2.11,2.1l17.4 0 0 46.23c0,24.26 7.21,34.11 34.81,34.11l19.16 0c1.4,0 2.11,-0.71 2.11,-2.11l0 -9.14c0,-1.41 -0.71,-2.11 -2.11,-2.11l-16.88 0c-16.7,0 -21.27,-6.16 -21.27,-20.75l0 -46.23 37.09 0c1.41,0 2.11,-0.7 2.11,-2.1l0 -9.15c0,-1.58 -0.7,-2.1 -2.11,-2.1l-37.09 0 0 -24.09c0,-1.58 -0.88,-2.46 -2.63,-2.46l-10.73 0c-1.75,0 -2.46,0.88 -2.46,2.46l0 24.09 -17.4 0zm126.39 0c-30.94,0 -40.78,9.66 -40.78,34.45l0 24.61c0,24.78 9.84,34.63 40.78,34.63l75.23 0c1.41,0 2.11,-0.71 2.11,-2.11l0 -9.32c0,-1.41 -0.7,-2.11 -2.11,-2.11l-73.83 0c-20.39,0 -26.36,-6.15 -26.36,-21.62l0 -6.5 95.44 0c6.68,0 9.85,-2.46 9.85,-9.67l0 -14.42c0,-20.74 -6.33,-27.94 -29.88,-27.94l-50.45 0zm-24.96 34.27c0,-15.64 5.97,-21.79 26.36,-21.79l46.41 0c13.18,0 16.87,4.21 16.87,15.82l0 9.14c0,2.98 -1.4,4.04 -4.21,4.04l-85.43 0 0 -7.21zm130.6 -63.63c-3.52,0 -5.27,1.76 -5.27,5.27l0 112.5c0,3.52 1.75,5.28 5.27,5.28l82.27 0c38.14,0 53.79,-15.3 53.79,-49.57l0 -23.91c0,-34.28 -15.65,-49.57 -53.79,-49.57l-82.27 0zm21.62 26.89c0,-1.75 0.7,-2.46 2.29,-2.46l57.65 0c20.75,0 27.6,6.68 27.6,27.43l0 19.33c0,20.74 -6.85,27.42 -27.6,27.42l-57.65 0c-1.59,0 -2.29,-0.7 -2.29,-2.28l0 -69.44zm141.68 -26.89c-3.52,0 -5.27,1.76 -5.27,5.27l0 112.5c0,3.52 1.75,5.28 5.27,5.28l104.41 0c23.38,0 31.12,-11.78 31.12,-30.41l0 -10.2c0,-10.37 -3.87,-17.93 -12.13,-22.68 7.38,-4.92 11.25,-12.3 11.25,-22.32l0 -8.44c0,-19.51 -9.14,-29 -33.4,-29l-101.25 0zm93.69 70.31c11.6,0 15.29,3.87 15.29,11.08l0 6.68c0,7.38 -3.69,10.72 -13,10.72l-72.07 0c-1.59,0 -2.29,-0.7 -2.29,-2.29l0 -26.19 72.07 0zm-72.07 -43.77c0,-1.58 0.7,-2.28 2.29,-2.28l71.89 0c9.14,0 13.01,3.34 13.01,10.54l0 5.98c0,6.86 -3.52,10.37 -15.12,10.37l-72.07 0 0 -24.61z"/>
  </g>
 </g>
</svg>
