<?xml version="1.0" encoding="UTF-8"?>
<!DOCTYPE svg PUBLIC "-//W3C//DTD SVG 1.1//EN" "http://www.w3.org/Graphics/SVG/1.1/DTD/svg11.dtd">
<!-- Creator: CorelDRAW -->
<svg xmlns="http://www.w3.org/2000/svg" xml:space="preserve" width="1956px" height="502px" version="1.1" style="shape-rendering:geometricPrecision; text-rendering:geometricPrecision; image-rendering:optimizeQuality; fill-rule:evenodd; clip-rule:evenodd"
viewBox="0 0 270.93 69.58"
 xmlns:xlink="http://www.w3.org/1999/xlink"
 xmlns:xodm="http://www.corel.com/coreldraw/odm/2003">
 <defs>
  <style type="text/css">
   <![CDATA[
    .fil0 {fill:black}
    .fil1 {fill:black;fill-rule:nonzero}
   ]]>
  </style>
 </defs>
 <g id="Layer_x0020_1">
  <metadata id="CorelCorpID_0Corel-Layer"/>
  <g id="_2190077238576">
   <path class="fil0" d="M31.47 7.36c1.96,1.05 3.92,2.1 5.88,3.14 1.96,-1.04 3.93,-2.09 5.89,-3.14 -1.96,-1.04 -3.93,-2.09 -5.89,-3.13 -3.37,1.8 0.75,-0.4 -5.88,3.13zm-3.73 18.51c-1.44,0.34 -2.57,0.3 -3.38,-0.14 -0.45,-0.24 -0.69,-0.53 -0.71,-0.88 -0.02,-0.34 0.12,-0.73 0.44,-1.14 0.32,-0.41 0.77,-0.82 1.36,-1.26 0.58,-0.43 1.25,-0.85 1.99,-1.25 1.81,-0.96 3.55,-1.53 5.24,-1.71 1.7,-0.18 3.05,0 4.06,0.54 1.89,-1.01 3.78,-2.01 5.67,-3.02 -0.93,-0.49 -2.08,-0.86 -3.47,-1.11 -1.37,-0.25 -2.9,-0.32 -4.56,-0.22 -1.66,0.1 -3.43,0.42 -5.32,0.94 -1.61,0.45 -3.27,1.1 -4.96,1.94 -0.27,0.14 -0.54,0.28 -0.82,0.42 -1.74,0.93 -3.14,1.86 -4.21,2.79 -1.06,0.93 -1.79,1.82 -2.19,2.67 -0.41,0.86 -0.46,1.65 -0.17,2.38 0.29,0.74 0.94,1.38 1.96,1.92 1.25,0.67 2.62,1.06 4.09,1.15 1.47,0.1 2.98,0.02 4.54,-0.25 1.56,-0.27 3.16,-0.68 4.79,-1.23 1.63,-0.54 3.24,-1.13 4.81,-1.75 1.58,-0.62 2.93,-1.12 4.05,-1.48 1.13,-0.36 2.1,-0.61 2.9,-0.77 0.8,-0.15 1.47,-0.19 2,-0.14 0.52,0.05 0.97,0.18 1.33,0.37 0.57,0.3 0.86,0.66 0.87,1.08 0,0.41 -0.18,0.85 -0.55,1.33 -0.37,0.47 -0.9,0.95 -1.59,1.44 -0.68,0.49 -1.43,0.95 -2.23,1.38 -0.74,0.39 -1.59,0.75 -2.53,1.07 -0.94,0.32 -1.89,0.56 -2.86,0.72 -0.97,0.15 -1.9,0.2 -2.81,0.14 -0.91,-0.05 -1.71,-0.27 -2.41,-0.64 -1.89,1 -3.77,2.01 -5.66,3.02 1.42,0.75 3,1.22 4.74,1.39 1.74,0.16 3.52,0.11 5.34,-0.15 1.83,-0.26 3.63,-0.7 5.42,-1.3 1.78,-0.61 3.41,-1.3 4.86,-2.07 1.89,-1.01 3.43,-2.01 4.6,-2.99 1.18,-0.99 1.98,-1.95 2.41,-2.86 0.43,-0.92 0.47,-1.77 0.13,-2.56 -0.34,-0.79 -1.07,-1.49 -2.2,-2.09 -1.19,-0.64 -2.47,-1.03 -3.82,-1.17 -1.36,-0.15 -2.81,-0.1 -4.35,0.15 -1.54,0.25 -3.2,0.65 -4.96,1.22 -1.77,0.57 -3.67,1.26 -5.71,2.05 -2.65,1.04 -4.69,1.72 -6.13,2.07zm7.76 34.43l-32.37 -17.27 1.64 -0.87 -3.13 -1.67 -1.64 0.87 0 2.97 0 6.32 35.5 18.93 22.96 -12.25 3.14 -1.67 9.39 -5.01 0 -3.34 -9.39 5.01 -3.14 1.67 -22.96 12.25 -16.15 -8.61 -3.72 -1.99 0 -2.56 4.05 2.16 15.82 8.44 0 -3.38zm-24.6 -7.18l0 -2.57 2.36 1.27 0 2.56 -2.36 -1.26zm24.6 -5.44l-32.37 -17.27 1.64 -0.87 -3.13 -1.67 -1.64 0.87 0 9.28 35.5 18.94 35.49 -18.94 0 -3.34 -35.49 18.94 -16.15 -8.62 0 -2.56 16.15 8.61 0 -3.37zm-25.61 -7.72l0 -2.57 2.36 1.26 0 2.57 -2.36 -1.26zm4.73 2.52l0 -2.56 2.36 1.26 0 2.56 -2.36 -1.26zm9.68 -36.42c-1.85,0.98 0.4,-0.22 -3.22,1.71 1.08,0.57 2.15,1.14 3.22,1.71 1.07,-0.57 2.14,-1.14 3.21,-1.71 -1.07,-0.57 -2.14,-1.14 -3.21,-1.71zm34.4 6.76c-1.84,0.98 0.41,-0.22 -3.21,1.71 1.07,0.57 2.14,1.15 3.21,1.72 1.07,-0.57 2.15,-1.15 3.22,-1.72 -1.07,-0.57 -2.15,-1.14 -3.22,-1.71zm-6.88 -6.73c-2.68,1.42 0.59,-0.32 -4.67,2.49 1.56,0.83 3.11,1.66 4.67,2.49 1.55,-0.83 3.11,-1.66 4.67,-2.49 -1.56,-0.83 -3.12,-1.66 -4.67,-2.49zm-10.73 -4.1c1.24,0.66 2.49,1.33 3.73,1.99 1.24,-0.66 2.49,-1.33 3.73,-1.99 -1.24,-0.66 -2.49,-1.33 -3.73,-1.99 -2.14,1.14 0.47,-0.25 -3.73,1.99zm-15.64 9.84l-25.45 13.57c11.83,6.31 23.66,12.62 35.49,18.93l23.71 -12.64 9.71 -5.18 2.08 -1.11 -26.48 -14.12 -1.33 -0.71c-1.94,1.04 -3.88,2.07 -5.83,3.11 -2.56,-1.37 -5.12,-2.73 -7.69,-4.1l-4.21 2.25zm23.38 3.46c-1.15,0.62 -2.29,1.23 -3.44,1.84 -1.14,-0.61 -2.29,-1.22 -3.43,-1.84 3.87,-2.06 1.46,-0.78 3.43,-1.83 1.15,0.61 2.29,1.22 3.44,1.83z"/>
   <g>
    <path class="fil1" d="M98.06 18.11c0.35,0 0.7,0.01 1.04,0.02l0 0c2.09,0.09 3.93,0.45 5.51,1.08 1.83,0.74 3.34,1.7 4.54,2.89 1.19,1.19 2.08,2.54 2.66,4.04 0.59,1.51 0.88,3.01 0.88,4.51l-7.26 0c0,-1.65 -0.65,-3.02 -1.95,-4.12 -1.3,-1.1 -3.11,-1.65 -5.42,-1.65 -0.95,0 -1.88,0.09 -2.77,0.27 -0.9,0.19 -1.7,0.46 -2.4,0.83 -0.69,0.36 -1.24,0.82 -1.65,1.37 -0.4,0.55 -0.6,1.19 -0.6,1.93 0,1.32 0.67,2.3 2.01,2.94 1.33,0.64 3.47,1.26 6.4,1.84 2.28,0.44 4.32,0.95 6.14,1.52 1.81,0.56 3.36,1.29 4.64,2.17 1.29,0.88 2.28,1.98 2.97,3.3 0.7,1.32 1.05,2.95 1.05,4.89 0,1.84 -0.37,3.5 -1.1,4.98 -0.73,1.49 -1.79,2.75 -3.16,3.8 -1.38,1.04 -3.04,1.84 -4.98,2.39 -1.94,0.55 -4.13,0.82 -6.55,0.82 -1.87,0 -3.74,-0.26 -5.61,-0.79 -1.87,-0.54 -3.54,-1.34 -5.03,-2.42 -1.48,-1.09 -2.69,-2.46 -3.6,-4.13 -0.92,-1.67 -1.38,-3.66 -1.38,-5.97l7.26 0c0,1.14 0.26,2.12 0.77,2.95 0.52,0.82 1.18,1.51 1.98,2.06 0.81,0.55 1.71,0.96 2.7,1.24 0.99,0.27 1.96,0.41 2.91,0.41 1.03,0 2.06,-0.09 3.08,-0.28 1.03,-0.18 1.95,-0.48 2.75,-0.9 0.81,-0.43 1.46,-0.96 1.96,-1.6 0.49,-0.64 0.74,-1.42 0.74,-2.34 0,-0.58 -0.14,-1.13 -0.41,-1.65 -0.28,-0.51 -0.76,-0.98 -1.46,-1.4 -0.7,-0.42 -1.62,-0.82 -2.78,-1.18 -1.15,-0.37 -2.61,-0.72 -4.37,-1.05 -1.76,-0.33 -3.49,-0.74 -5.2,-1.23 -1.7,-0.5 -3.22,-1.18 -4.54,-2.04 -1.32,-0.86 -2.39,-1.96 -3.21,-3.3 -0.83,-1.34 -1.24,-3.03 -1.24,-5.09 0,-1.65 0.35,-3.15 1.04,-4.51 0.7,-1.35 1.69,-2.52 2.97,-3.49 1.29,-0.97 2.83,-1.73 4.62,-2.28 1.8,-0.55 3.82,-0.83 6.05,-0.83z"/>
    <polygon class="fil1" points="123.95,57.27 116.69,57.27 116.69,18.13 123.95,18.13 "/>
    <path class="fil1" d="M155.89 57.25l-6.93 0 0 -3.03c-1.1,1.18 -2.38,2.09 -3.85,2.71 -1.47,0.64 -3.08,0.95 -4.84,0.95 -1.83,0 -3.56,-0.38 -5.2,-1.13 -1.63,-0.75 -3.06,-1.8 -4.29,-3.12 -1.22,-1.32 -2.2,-2.87 -2.91,-4.68 -0.72,-1.8 -1.07,-3.75 -1.07,-5.84 0,-2.09 0.35,-4.05 1.07,-5.87 0.71,-1.82 1.69,-3.39 2.91,-4.71 1.23,-1.32 2.66,-2.36 4.29,-3.12 1.64,-0.75 3.37,-1.12 5.2,-1.12 1.76,0 3.37,0.31 4.84,0.94 1.47,0.62 2.75,1.53 3.85,2.72l0 -3.03 6.93 0 0 28.33zm-7.26 -14.08c0,-1.14 -0.19,-2.2 -0.58,-3.19 -0.38,-0.99 -0.91,-1.84 -1.57,-2.57 -0.66,-0.73 -1.43,-1.3 -2.32,-1.72 -0.88,-0.43 -1.83,-0.64 -2.82,-0.64 -0.99,0 -1.93,0.21 -2.81,0.64 -0.89,0.42 -1.66,0.98 -2.32,1.69 -0.66,0.72 -1.19,1.57 -1.58,2.58 -0.38,1.01 -0.57,2.07 -0.57,3.21 0,1.13 0.19,2.18 0.57,3.15 0.39,0.96 0.92,1.81 1.58,2.52 0.66,0.71 1.43,1.26 2.32,1.67 0.88,0.4 1.82,0.6 2.81,0.6 0.99,0 1.94,-0.21 2.82,-0.63 0.89,-0.42 1.66,-0.98 2.32,-1.7 0.66,-0.71 1.19,-1.55 1.57,-2.52 0.39,-0.97 0.58,-1.99 0.58,-3.09z"/>
    <path class="fil1" d="M171.55 57.93c-1.91,0 -3.63,-0.31 -5.17,-0.93 -1.54,-0.62 -2.85,-1.5 -3.93,-2.61 -1.09,-1.11 -1.92,-2.43 -2.51,-3.95 -0.58,-1.52 -0.88,-3.18 -0.88,-4.96l0 -23.68 7.26 0 0 7.2 5.23 0 1.69 0 0 6.77 -1.69 0 -5.23 0 0 10.06c0,0.66 0.1,1.3 0.31,1.93 0.2,0.62 0.51,1.18 0.93,1.68 0.42,0.49 0.96,0.88 1.62,1.18 0.66,0.29 1.45,0.44 2.37,0.44l1.69 0 0 6.87 -1.69 0z"/>
    <path class="fil1" d="M181.56 45.94c0.48,1.76 1.35,3.14 2.62,4.13 1.26,0.99 2.76,1.48 4.48,1.48 1.21,0 2.35,-0.26 3.44,-0.79 1.08,-0.54 1.93,-1.37 2.55,-2.51l7.76 0c-0.84,2.9 -2.45,5.24 -4.81,7.02 -2.37,1.77 -5.33,2.66 -8.89,2.66 -1.98,0 -3.85,-0.38 -5.61,-1.15 -1.76,-0.77 -3.3,-1.83 -4.62,-3.16 -1.32,-1.34 -2.36,-2.91 -3.13,-4.71 -0.77,-1.79 -1.16,-3.72 -1.16,-5.77 0,-2.06 0.39,-3.99 1.16,-5.8 0.77,-1.82 1.81,-3.4 3.13,-4.74 1.32,-1.33 2.86,-2.4 4.62,-3.19 1.76,-0.78 3.63,-1.18 5.61,-1.18 2.09,0 4.06,0.4 5.92,1.18 1.85,0.79 3.43,1.95 4.75,3.47 1.32,1.52 2.31,3.38 2.97,5.58 0.66,2.2 0.87,4.7 0.61,7.48l-21.4 0zm14.19 -5.94c-0.44,-1.65 -1.29,-2.96 -2.55,-3.93 -1.27,-0.97 -2.78,-1.46 -4.54,-1.46 -1.65,0 -3.1,0.49 -4.35,1.46 -1.24,0.97 -2.12,2.28 -2.64,3.93l14.08 0z"/>
    <path class="fil1" d="M237.43 38.19c0,2.93 -0.4,5.57 -1.21,7.92 -0.81,2.34 -1.96,4.34 -3.47,5.99 -1.5,1.65 -3.31,2.93 -5.44,3.83 -2.13,0.89 -4.49,1.34 -7.1,1.34l-14.13 0 0 -38.17 14.13 0c2.64,0 5.03,0.44 7.15,1.32 2.13,0.88 3.94,2.15 5.42,3.8 1.49,1.65 2.63,3.66 3.44,6.02 0.81,2.36 1.21,5.01 1.21,7.95zm-7.26 -0.06c0,-1.39 -0.14,-2.81 -0.41,-4.26 -0.28,-1.45 -0.78,-2.77 -1.52,-3.96 -0.73,-1.19 -1.74,-2.16 -3.02,-2.92 -1.28,-0.75 -2.95,-1.12 -5.01,-1.12l-6.87 0 0 24.64 6.87 0c2.17,0 3.9,-0.43 5.2,-1.29 1.3,-0.87 2.31,-1.92 3.03,-3.17 0.71,-1.24 1.18,-2.58 1.4,-4.01 0.22,-1.43 0.33,-2.73 0.33,-3.91z"/>
    <path class="fil1" d="M270.93 46.05c0,1.73 -0.28,3.28 -0.83,4.65 -0.55,1.38 -1.34,2.55 -2.39,3.52 -1.04,0.97 -2.31,1.72 -3.79,2.26 -1.49,0.53 -3.15,0.79 -4.98,0.79l-18.59 0 0 -38.17 17.6 0c3.85,0 6.73,0.92 8.63,2.75 1.91,1.84 2.86,4.37 2.86,7.59 0,1.62 -0.33,3.06 -0.99,4.32 -0.66,1.27 -1.57,2.32 -2.75,3.16 1.65,0.85 2.94,2.03 3.85,3.55 0.92,1.52 1.38,3.38 1.38,5.58zm-23.32 -20.35l0 8.42 10.34 0c1.25,0 2.3,-0.39 3.16,-1.16 0.86,-0.77 1.29,-1.79 1.29,-3.08 0,-1.28 -0.39,-2.3 -1.18,-3.05 -0.79,-0.75 -1.88,-1.13 -3.27,-1.13l-10.34 0zm15.89 20.08c0,-1.62 -0.48,-2.85 -1.45,-3.71 -0.98,-0.87 -2.4,-1.3 -4.27,-1.3l-10.17 0 0 9.85 10.34 0c0.69,0 1.37,-0.08 2.03,-0.22 0.66,-0.15 1.26,-0.41 1.79,-0.8 0.53,-0.38 0.95,-0.88 1.27,-1.48 0.31,-0.61 0.46,-1.39 0.46,-2.34z"/>
   </g>
  </g>
 </g>
</svg>
