<?xml version="1.0" encoding="UTF-8"?>
<!DOCTYPE svg PUBLIC "-//W3C//DTD SVG 1.1//EN" "http://www.w3.org/Graphics/SVG/1.1/DTD/svg11.dtd">
<!-- Creator: CorelDRAW -->
<svg xmlns="http://www.w3.org/2000/svg" xml:space="preserve" width="1956px" height="442px" version="1.1" style="shape-rendering:geometricPrecision; text-rendering:geometricPrecision; image-rendering:optimizeQuality; fill-rule:evenodd; clip-rule:evenodd"
viewBox="0 0 701 158.21"
 xmlns:xlink="http://www.w3.org/1999/xlink"
 xmlns:xodm="http://www.corel.com/coreldraw/odm/2003">
 <defs>
  <style type="text/css">
   <![CDATA[
    .fil1 {fill:white}
    .fil0 {fill:white;fill-rule:nonzero}
   ]]>
  </style>
 </defs>
 <g id="Layer_x0020_1">
  <metadata id="CorelCorpID_0Corel-Layer"/>
  <g id="_2190036494000">
   <path class="fil0" d="M252.23 126.72c-8.6,0 -15.97,-2.04 -22.11,-6.11 -6.13,-4.08 -10.41,-9.7 -12.83,-16.87l8.06 -4.7c1.71,5.82 4.84,10.37 9.41,13.64 4.57,3.27 10.44,4.9 17.6,4.9 6.99,0 12.43,-1.54 16.33,-4.63 3.89,-3.09 5.84,-7.19 5.84,-12.3 0,-4.92 -1.79,-8.64 -5.37,-11.15 -3.59,-2.51 -9.5,-5.1 -17.74,-7.79 -9.76,-3.23 -16.21,-5.82 -19.35,-7.79 -7.16,-4.3 -10.75,-10.53 -10.75,-18.68 0,-7.97 2.78,-14.27 8.33,-18.88 5.56,-4.61 12.41,-6.92 20.56,-6.92 7.35,0 13.71,1.9 19.08,5.71 5.38,3.81 9.36,8.67 11.96,14.58l-7.93 4.43c-4.3,-10.39 -12,-15.58 -23.11,-15.58 -5.82,0 -10.52,1.43 -14.11,4.3 -3.58,2.86 -5.37,6.85 -5.37,11.96 0,4.65 1.61,8.15 4.84,10.48 3.22,2.32 8.55,4.7 15.98,7.12 3.41,1.16 5.85,1.99 7.33,2.48 1.48,0.5 3.63,1.3 6.45,2.42 2.82,1.12 4.9,2.11 6.25,2.96 1.34,0.85 2.97,2.01 4.9,3.49 1.93,1.48 3.31,2.96 4.17,4.43 0.85,1.48 1.61,3.27 2.28,5.38 0.67,2.11 1.01,4.37 1.01,6.79 0,7.97 -2.91,14.35 -8.74,19.14 -5.82,4.79 -13.48,7.19 -22.97,7.19zm46.49 -1.61l0 -98.09 8.87 0 0 98.09 -8.87 0zm85.45 -67.18l8.87 0 0 67.18 -8.87 0 0 -13.17c-6.18,9.85 -15.23,14.78 -27.14,14.78 -9.58,0 -17.76,-3.4 -24.52,-10.21 -6.76,-6.81 -10.14,-15.14 -10.14,-24.99 0,-9.86 3.38,-18.19 10.14,-24.99 6.76,-6.81 14.94,-10.22 24.52,-10.22 11.91,0 20.96,4.93 27.14,14.78l0 -13.16zm-45.28 52.47c5.11,5.15 11.38,7.72 18.81,7.72 7.44,0 13.71,-2.57 18.81,-7.72 5.11,-5.16 7.66,-11.45 7.66,-18.88 0,-7.44 -2.55,-13.73 -7.66,-18.88 -5.1,-5.15 -11.37,-7.73 -18.81,-7.73 -7.43,0 -13.7,2.58 -18.81,7.73 -5.1,5.15 -7.66,11.44 -7.66,18.88 0,7.43 2.56,13.72 7.66,18.88zm108.57 -43.87l-19.35 0 0 40.71c0,3.67 0.72,6.29 2.15,7.86 1.43,1.57 3.58,2.37 6.45,2.42 2.87,0.04 6.45,-0.03 10.75,-0.2l0 7.79c-9.41,1.43 -16.46,0.76 -21.16,-2.02 -4.71,-2.77 -7.06,-8.06 -7.06,-15.85l0 -40.71 -14.11 0 0 -8.6 14.11 0 0 -16.13 8.87 -2.69 0 18.82 19.35 0 0 8.6zm41.79 -10.22c9.94,0 17.98,3.52 24.11,10.55 6.14,7.03 9.21,15.34 9.21,24.93 0,0.98 -0.09,2.37 -0.27,4.16l-58.99 0c0.9,6.81 3.79,12.21 8.67,16.19 4.88,3.99 10.91,5.98 18.07,5.98 5.11,0 9.52,-1.05 13.24,-3.16 3.71,-2.1 6.51,-4.86 8.39,-8.26l7.8 4.57c-2.96,4.75 -6.99,8.51 -12.1,11.29 -5.1,2.77 -10.92,4.16 -17.46,4.16 -10.57,0 -19.17,-3.31 -25.8,-9.94 -6.63,-6.63 -9.94,-15.05 -9.94,-25.26 0,-10.04 3.27,-18.41 9.81,-25.13 6.53,-6.72 14.96,-10.08 25.26,-10.08zm0 8.6c-6.99,0 -12.84,2.09 -17.54,6.25 -4.7,4.17 -7.5,9.56 -8.4,16.19l50.12 0c-0.89,-7.08 -3.63,-12.58 -8.19,-16.53 -4.57,-3.94 -9.9,-5.91 -15.99,-5.91zm84.11 -33.86c12.9,0 23.67,4.53 32.31,13.57 8.65,9.05 12.97,20.2 12.97,33.46 0,13.26 -4.32,24.41 -12.97,33.46 -8.64,9.04 -19.41,13.57 -32.31,13.57l-37.35 0 0 -94.06 37.35 0zm0 76.32c8.15,0 14.78,-2.71 19.88,-8.13 5.11,-5.42 7.66,-12.47 7.66,-21.16 0,-8.69 -2.55,-15.74 -7.66,-21.16 -5.1,-5.42 -11.73,-8.13 -19.88,-8.13l-18.81 0 0 58.58 18.81 0zm115.28 -31.04c8.24,4.75 12.36,11.92 12.36,21.5 0,7.97 -2.82,14.51 -8.46,19.62 -5.64,5.11 -12.59,7.66 -20.83,7.66l-39.9 0 0 -94.06 37.08 0c8.06,0 14.85,2.49 20.36,7.46 5.51,4.97 8.26,11.31 8.26,19.01 0,7.8 -2.95,14.07 -8.87,18.81zm-19.75 -27.94l-18.54 0 0 20.69 18.54 0c2.87,0 5.26,-0.99 7.19,-2.96 1.93,-1.97 2.89,-4.43 2.89,-7.39 0,-2.95 -0.94,-5.42 -2.82,-7.39 -1.88,-1.97 -4.3,-2.95 -7.26,-2.95zm2.82 59.38c3.14,0 5.74,-1.05 7.8,-3.15 2.06,-2.11 3.09,-4.77 3.09,-8 0,-3.13 -1.03,-5.75 -3.09,-7.86 -2.06,-2.1 -4.66,-3.16 -7.8,-3.16l-21.36 0 0 22.17 21.36 0z"/>
   <path class="fil1" d="M88.98 103.3l-81.13 -43.28 4.12 -2.19 -7.85 -4.19 -4.12 2.19 0 23.27 88.98 47.47 88.98 -47.47 0 -8.37 -88.98 47.46 -40.47 -21.59 0 -6.42 40.47 21.59 0 -8.47zm-0.01 -85.06l13.71 7.31 -41.1 21.92 6.84 3.65 41.11 -21.93 34.25 18.27 -54.81 29.23 -13.7 -7.3 41.1 -21.92 -6.85 -3.65 -41.1 21.91 -34.24 -18.27 54.79 -29.22zm0.01 -18.24l-88.98 47.46 88.98 47.47 88.98 -47.47 -88.98 -47.46zm0 134.94l-81.13 -43.28 4.12 -2.19 -7.85 -4.19 -4.12 2.2 0 23.27 88.98 47.46 88.98 -47.46 0 -8.38 -88.98 47.46 -49.8 -26.56 0 -6.43 49.8 26.57 0 -8.47zm-55.73 -21.26l-5.93 -3.17 0 6.43 5.93 3.16 0 -6.42zm-2.54 -33l-5.93 -3.16 0 6.43 5.93 3.16 0 -6.43zm11.87 6.33l-5.94 -3.16 0 6.42 5.94 3.17 0 -6.43z"/>
  </g>
 </g>
</svg>
