<?xml version="1.0" encoding="UTF-8"?>
<!DOCTYPE svg PUBLIC "-//W3C//DTD SVG 1.1//EN" "http://www.w3.org/Graphics/SVG/1.1/DTD/svg11.dtd">
<!-- Creator: CorelDRAW -->
<svg xmlns="http://www.w3.org/2000/svg" xml:space="preserve" width="1956px" height="413px" version="1.1" style="shape-rendering:geometricPrecision; text-rendering:geometricPrecision; image-rendering:optimizeQuality; fill-rule:evenodd; clip-rule:evenodd"
viewBox="0 0 1183.36 249.79"
 xmlns:xlink="http://www.w3.org/1999/xlink"
 xmlns:xodm="http://www.corel.com/coreldraw/odm/2003">
 <defs>
  <style type="text/css">
   <![CDATA[
    .fil0 {fill:black}
    .fil1 {fill:black;fill-rule:nonzero}
   ]]>
  </style>
 </defs>
 <g id="Layer_x0020_1">
  <metadata id="CorelCorpID_0Corel-Layer"/>
  <g id="_2189749923696">
   <path class="fil0" d="M140.49 163.1l-128.1 -68.33 6.5 -3.47 -12.39 -6.61 -6.5 3.47 0 36.74 140.49 74.94 140.49 -74.94 0 -13.23 -140.49 74.94 -63.9 -34.08 0 -10.15 63.9 34.09 0 -13.37zm-0.01 -134.31l-76.38 40.75 10.13 5.4 -10.13 5.4 33.79 18.04 10.14 -5.41 10.13 5.41 54.76 -29.2 10.81 5.77 -64.89 34.6 21.63 11.54 76.4 -40.75 -10.13 -5.4 10.14 -5.4 -33.82 -18.04 -10.13 5.4 -10.13 -5.4 -54.77 29.21 -10.8 -5.76 64.89 -34.61 -21.64 -11.55zm0.01 -28.79l-140.49 74.94 140.49 74.94 140.49 -74.94 -140.49 -74.94zm0 213.06l-128.1 -68.33 6.5 -3.47 -12.39 -6.61 -6.5 3.47 0 36.74 140.49 74.93 140.49 -74.93 0 -13.23 -140.49 74.94 -78.63 -41.94 0 -10.15 78.63 41.95 0 -13.37zm-88 -33.58l-9.36 -4.99 0 10.15 9.36 4.99 0 -10.15zm-4 -52.09l-9.36 -5 0 10.15 9.36 5 0 -10.15zm18.73 9.99l-9.36 -5 0 10.15 9.36 5 0 -10.15z"/>
   <path class="fil1" d="M357.19 67.77c-19.86,0 -27.95,10.9 -27.95,27.07l0 12.83c0,17.93 9.14,27.77 27.6,27.77l71.37 0c9.66,0 13.88,4.93 13.88,14.59l0 10.55c0,8.79 -3.69,14.77 -13.88,14.77l-96.33 0c-1.58,0 -2.46,0.88 -2.46,2.46l0 10.54c0,1.59 0.88,2.47 2.46,2.47l99.31 0c19.69,0 27.78,-10.9 27.78,-27.08l0 -14.41c0,-17.93 -9.14,-27.77 -27.6,-27.77l-71.37 0c-9.67,0 -13.88,-4.92 -13.88,-14.59l0 -8.97c0,-8.79 3.69,-14.76 13.88,-14.76l91.94 0c1.75,0 2.63,-0.88 2.63,-2.46l0 -10.55c0,-1.58 -0.88,-2.46 -2.63,-2.46l-94.75 0zm126.03 -8.79c-1.75,0 -2.63,0.88 -2.63,2.46l0 126.91c0,1.59 0.88,2.47 2.63,2.47l10.73 0c1.75,0 2.46,-0.88 2.46,-2.47l0 -126.91c0,-1.58 -0.71,-2.46 -2.46,-2.46l-10.73 0zm38.5 38.14c-1.41,0 -2.11,0.53 -2.11,2.11l0 9.32c0,1.41 0.7,2.11 2.11,2.11l73.83 0c20.39,0 26.54,5.98 26.54,21.62l0 4.75 -78.75 0c-20.39,0 -26.54,7.91 -26.54,22.32l0 7.21c0,16.87 6.15,24.26 26.54,24.26l81.91 0c9.85,0 12.66,-2.47 12.66,-13.72l0 -45.52c0,-24.79 -10.02,-34.46 -40.96,-34.46l-75.23 0zm93.51 81.04l-67.85 0c-11.42,0 -15.11,-4.04 -15.11,-13.54l0 -4.57c0,-8.08 3.69,-12.65 15.11,-12.65l74.71 0 0 23.38c0,5.8 -1.76,7.38 -6.86,7.38zm37.27 -81.04c-1.41,0 -2.11,0.53 -2.11,2.11l0 9.14c0,1.41 0.7,2.11 2.11,2.11l17.4 0 0 46.23c0,24.26 7.21,34.11 34.81,34.11l19.16 0c1.4,0 2.11,-0.71 2.11,-2.11l0 -9.14c0,-1.41 -0.71,-2.11 -2.11,-2.11l-16.88 0c-16.7,0 -21.27,-6.16 -21.27,-20.75l0 -46.23 37.09 0c1.41,0 2.11,-0.7 2.11,-2.11l0 -9.14c0,-1.58 -0.7,-2.11 -2.11,-2.11l-37.09 0 0 -24.08c0,-1.58 -0.88,-2.46 -2.63,-2.46l-10.73 0c-1.75,0 -2.46,0.88 -2.46,2.46l0 24.08 -17.4 0zm126.39 0c-30.94,0 -40.78,9.67 -40.78,34.46l0 24.61c0,24.78 9.84,34.63 40.78,34.63l75.23 0c1.41,0 2.11,-0.71 2.11,-2.11l0 -9.32c0,-1.41 -0.7,-2.11 -2.11,-2.11l-73.83 0c-20.39,0 -26.36,-6.15 -26.36,-21.62l0 -6.51 95.44 0c6.68,0 9.85,-2.46 9.85,-9.66l0 -14.42c0,-20.74 -6.33,-27.95 -29.88,-27.95l-50.45 0zm-24.96 34.28c0,-15.64 5.97,-21.8 26.36,-21.8l46.41 0c13.18,0 16.87,4.22 16.87,15.82l0 9.15c0,2.98 -1.4,4.04 -4.22,4.04l-85.42 0 0 -7.21zm130.6 -63.63c-3.52,0 -5.27,1.76 -5.27,5.27l0 112.5c0,3.52 1.75,5.28 5.27,5.28l82.27 0c38.14,0 53.78,-15.3 53.78,-49.57l0 -23.91c0,-34.28 -15.64,-49.57 -53.78,-49.57l-82.27 0zm21.62 26.89c0,-1.75 0.7,-2.46 2.29,-2.46l57.65 0c20.74,0 27.6,6.68 27.6,27.42l0 19.34c0,20.74 -6.86,27.42 -27.6,27.42l-57.65 0c-1.59,0 -2.29,-0.7 -2.29,-2.28l0 -69.44zm141.68 -26.89c-3.52,0 -5.27,1.76 -5.27,5.27l0 112.5c0,3.52 1.75,5.28 5.27,5.28l104.41 0c23.38,0 31.12,-11.78 31.12,-30.42l0 -10.19c0,-10.37 -3.87,-17.93 -12.13,-22.68 7.38,-4.92 11.25,-12.3 11.25,-22.32l0 -8.44c0,-19.51 -9.14,-29 -33.4,-29l-101.25 0zm93.69 70.31c11.6,0 15.29,3.87 15.29,11.07l0 6.68c0,7.39 -3.69,10.73 -13,10.73l-72.07 0c-1.59,0 -2.29,-0.71 -2.29,-2.29l0 -26.19 72.07 0zm-72.07 -43.77c0,-1.58 0.7,-2.28 2.29,-2.28l71.89 0c9.14,0 13.01,3.34 13.01,10.54l0 5.98c0,6.86 -3.52,10.37 -15.12,10.37l-72.07 0 0 -24.61z"/>
  </g>
 </g>
</svg>
