<?xml version="1.0" encoding="UTF-8"?>
<!DOCTYPE svg PUBLIC "-//W3C//DTD SVG 1.1//EN" "http://www.w3.org/Graphics/SVG/1.1/DTD/svg11.dtd">
<!-- Creator: CorelDRAW -->
<svg xmlns="http://www.w3.org/2000/svg" xml:space="preserve" width="1956px" height="456px" version="1.1" style="shape-rendering:geometricPrecision; text-rendering:geometricPrecision; image-rendering:optimizeQuality; fill-rule:evenodd; clip-rule:evenodd"
viewBox="0 0 270.93 63.11"
 xmlns:xlink="http://www.w3.org/1999/xlink"
 xmlns:xodm="http://www.corel.com/coreldraw/odm/2003">
 <defs>
  <style type="text/css">
   <![CDATA[
    .fil1 {fill:black}
    .fil0 {fill:black;fill-rule:nonzero}
   ]]>
  </style>
 </defs>
 <g id="Layer_x0020_1">
  <metadata id="CorelCorpID_0Corel-Layer"/>
  <g id="_2190064729296">
   <g>
    <path class="fil0" d="M98.06 11.64c0.35,0 0.7,0.01 1.04,0.03l0 0c2.09,0.08 3.93,0.44 5.51,1.08 1.83,0.73 3.35,1.69 4.54,2.88 1.19,1.19 2.08,2.54 2.66,4.05 0.59,1.5 0.88,3 0.88,4.51l-7.26 0c0,-1.65 -0.65,-3.03 -1.95,-4.13 -1.3,-1.1 -3.11,-1.65 -5.42,-1.65 -0.95,0 -1.88,0.09 -2.77,0.28 -0.9,0.18 -1.7,0.45 -2.4,0.82 -0.69,0.37 -1.24,0.83 -1.65,1.38 -0.4,0.55 -0.6,1.19 -0.6,1.92 0,1.32 0.67,2.3 2.01,2.94 1.33,0.64 3.47,1.26 6.4,1.85 2.28,0.44 4.32,0.94 6.14,1.51 1.81,0.57 3.36,1.29 4.64,2.17 1.29,0.88 2.28,1.98 2.97,3.3 0.7,1.32 1.05,2.95 1.05,4.9 0,1.83 -0.37,3.49 -1.1,4.97 -0.73,1.49 -1.79,2.75 -3.16,3.8 -1.38,1.04 -3.04,1.84 -4.98,2.39 -1.94,0.55 -4.13,0.83 -6.55,0.83 -1.87,0 -3.74,-0.27 -5.61,-0.8 -1.87,-0.53 -3.54,-1.34 -5.03,-2.42 -1.48,-1.08 -2.69,-2.46 -3.6,-4.13 -0.92,-1.66 -1.38,-3.65 -1.38,-5.96l7.26 0c0,1.13 0.26,2.11 0.77,2.94 0.52,0.82 1.18,1.51 1.98,2.06 0.81,0.55 1.71,0.96 2.7,1.24 0.99,0.27 1.96,0.41 2.91,0.41 1.03,0 2.06,-0.09 3.08,-0.27 1.03,-0.19 1.95,-0.49 2.75,-0.91 0.81,-0.42 1.46,-0.95 1.96,-1.6 0.49,-0.64 0.74,-1.42 0.74,-2.33 0,-0.59 -0.14,-1.14 -0.41,-1.65 -0.28,-0.52 -0.76,-0.98 -1.46,-1.41 -0.7,-0.42 -1.62,-0.81 -2.78,-1.18 -1.15,-0.37 -2.61,-0.71 -4.37,-1.04 -1.76,-0.33 -3.49,-0.75 -5.2,-1.24 -1.7,-0.5 -3.22,-1.17 -4.54,-2.04 -1.32,-0.86 -2.39,-1.96 -3.21,-3.3 -0.83,-1.34 -1.24,-3.03 -1.24,-5.08 0,-1.65 0.35,-3.16 1.04,-4.51 0.7,-1.36 1.69,-2.53 2.97,-3.5 1.29,-0.97 2.83,-1.73 4.62,-2.28 1.8,-0.55 3.82,-0.83 6.05,-0.83z"/>
    <polygon class="fil0" points="123.95,50.81 116.69,50.81 116.69,11.67 123.95,11.67 "/>
    <path class="fil0" d="M155.89 50.78l-6.93 0 0 -3.03c-1.1,1.19 -2.38,2.09 -3.85,2.72 -1.46,0.63 -3.08,0.94 -4.84,0.94 -1.83,0 -3.56,-0.37 -5.2,-1.13 -1.63,-0.75 -3.06,-1.79 -4.29,-3.11 -1.22,-1.32 -2.2,-2.88 -2.91,-4.69 -0.72,-1.79 -1.07,-3.75 -1.07,-5.84 0,-2.09 0.35,-4.05 1.07,-5.86 0.71,-1.83 1.69,-3.4 2.91,-4.72 1.23,-1.32 2.66,-2.36 4.29,-3.11 1.64,-0.75 3.37,-1.13 5.2,-1.13 1.76,0 3.38,0.31 4.84,0.94 1.47,0.63 2.75,1.54 3.85,2.72l0 -3.03 6.93 0 0 28.33zm-7.26 -14.08c0,-1.14 -0.19,-2.19 -0.58,-3.18 -0.38,-0.99 -0.91,-1.85 -1.57,-2.58 -0.66,-0.73 -1.43,-1.3 -2.32,-1.72 -0.88,-0.42 -1.83,-0.63 -2.82,-0.63 -0.99,0 -1.93,0.21 -2.81,0.63 -0.89,0.42 -1.66,0.98 -2.32,1.69 -0.66,0.72 -1.19,1.57 -1.58,2.58 -0.38,1.01 -0.57,2.07 -0.57,3.21 0,1.14 0.19,2.18 0.57,3.15 0.39,0.96 0.92,1.81 1.58,2.52 0.66,0.72 1.43,1.27 2.32,1.67 0.88,0.4 1.82,0.61 2.81,0.61 0.99,0 1.94,-0.21 2.82,-0.64 0.89,-0.42 1.66,-0.98 2.32,-1.69 0.66,-0.72 1.19,-1.56 1.57,-2.52 0.39,-0.97 0.58,-2 0.58,-3.1z"/>
    <path class="fil0" d="M171.55 51.47c-1.91,0 -3.63,-0.32 -5.17,-0.94 -1.54,-0.62 -2.85,-1.49 -3.93,-2.6 -1.09,-1.12 -1.92,-2.44 -2.51,-3.95 -0.58,-1.52 -0.88,-3.18 -0.88,-4.97l0 -23.68 7.26 0 0 7.21 5.23 0 1.69 0 0 6.76 -1.69 0 -5.23 0 0 10.07c0,0.66 0.1,1.3 0.31,1.92 0.2,0.62 0.51,1.18 0.93,1.68 0.42,0.49 0.96,0.89 1.62,1.18 0.66,0.29 1.45,0.44 2.37,0.44l1.69 0 0 6.88 -1.69 0z"/>
    <path class="fil0" d="M181.56 39.48c0.48,1.76 1.35,3.13 2.62,4.12 1.26,0.99 2.76,1.49 4.48,1.49 1.21,0 2.36,-0.27 3.44,-0.8 1.08,-0.53 1.93,-1.37 2.55,-2.5l7.76 0c-0.84,2.89 -2.45,5.23 -4.81,7.01 -2.37,1.78 -5.33,2.67 -8.89,2.67 -1.98,0 -3.85,-0.39 -5.61,-1.16 -1.76,-0.77 -3.3,-1.82 -4.62,-3.16 -1.32,-1.34 -2.36,-2.91 -3.13,-4.7 -0.77,-1.8 -1.16,-3.73 -1.16,-5.78 0,-2.05 0.39,-3.99 1.16,-5.8 0.77,-1.82 1.81,-3.39 3.13,-4.73 1.32,-1.34 2.86,-2.4 4.62,-3.19 1.76,-0.79 3.63,-1.18 5.61,-1.18 2.09,0 4.07,0.39 5.92,1.18 1.85,0.79 3.43,1.94 4.75,3.46 1.32,1.52 2.31,3.39 2.97,5.59 0.66,2.2 0.87,4.69 0.61,7.48l-21.4 0zm14.19 -5.94c-0.44,-1.65 -1.29,-2.97 -2.55,-3.94 -1.27,-0.97 -2.78,-1.45 -4.54,-1.45 -1.65,0 -3.1,0.48 -4.35,1.45 -1.24,0.97 -2.12,2.29 -2.64,3.94l14.08 0z"/>
    <path class="fil0" d="M237.43 31.72c0,2.93 -0.4,5.57 -1.21,7.92 -0.81,2.35 -1.96,4.35 -3.47,6 -1.5,1.65 -3.31,2.92 -5.44,3.82 -2.13,0.9 -4.49,1.35 -7.1,1.35l-14.13 0 0 -38.18 14.13 0c2.64,0 5.03,0.44 7.15,1.32 2.13,0.89 3.94,2.15 5.42,3.8 1.49,1.65 2.63,3.66 3.44,6.02 0.81,2.37 1.21,5.02 1.21,7.95zm-7.26 -0.05c0,-1.4 -0.14,-2.82 -0.41,-4.27 -0.28,-1.45 -0.78,-2.77 -1.52,-3.96 -0.73,-1.19 -1.74,-2.16 -3.02,-2.91 -1.28,-0.75 -2.95,-1.13 -5.01,-1.13l-6.87 0 0 24.64 6.87 0c2.17,0 3.9,-0.43 5.2,-1.29 1.3,-0.86 2.31,-1.92 3.03,-3.16 0.71,-1.25 1.18,-2.59 1.4,-4.02 0.22,-1.43 0.33,-2.73 0.33,-3.9z"/>
    <path class="fil0" d="M270.93 39.59c0,1.72 -0.28,3.27 -0.83,4.64 -0.55,1.38 -1.34,2.55 -2.39,3.52 -1.04,0.98 -2.31,1.73 -3.79,2.26 -1.49,0.53 -3.15,0.8 -4.98,0.8l-18.59 0 0 -38.18 17.6 0c3.85,0 6.73,0.92 8.63,2.75 1.91,1.84 2.86,4.37 2.86,7.6 0,1.61 -0.33,3.05 -0.99,4.31 -0.66,1.27 -1.57,2.32 -2.75,3.17 1.65,0.84 2.94,2.02 3.85,3.54 0.92,1.53 1.38,3.39 1.38,5.59zm-23.32 -20.36l0 8.42 10.34 0c1.25,0 2.3,-0.38 3.16,-1.15 0.86,-0.77 1.29,-1.8 1.29,-3.08 0,-1.29 -0.39,-2.31 -1.18,-3.06 -0.79,-0.75 -1.88,-1.13 -3.27,-1.13l-10.34 0zm15.89 20.08c0,-1.61 -0.48,-2.85 -1.45,-3.71 -0.98,-0.86 -2.4,-1.29 -4.27,-1.29l-10.17 0 0 9.84 10.34 0c0.7,0 1.37,-0.07 2.03,-0.22 0.66,-0.15 1.26,-0.41 1.79,-0.8 0.53,-0.38 0.95,-0.88 1.27,-1.48 0.31,-0.61 0.46,-1.39 0.46,-2.34z"/>
   </g>
   <path class="fil1" d="M35.5 41.21l-32.37 -17.27 1.64 -0.87 -3.13 -1.67 -1.64 0.87 0 9.29 35.5 18.93 35.49 -18.93 0 -3.35 -35.49 18.94 -16.15 -8.61 0 -2.57 16.15 8.62 0 -3.38zm-0.01 -33.94l5.47 2.92 -16.39 8.75 2.72 1.45 16.4 -8.74 13.66 7.28 -21.86 11.66 -5.46 -2.91 16.39 -8.74 -2.73 -1.46 -16.4 8.74 -13.65 -7.29 21.85 -11.66zm0.01 -7.27l-35.5 18.93 35.49 18.94 35.5 -18.94 -35.49 -18.93zm0 53.83l-32.37 -17.26 1.64 -0.88 -3.13 -1.67 -1.64 0.88 0 9.28 35.5 18.93 35.49 -18.93 0 -3.34 -35.49 18.93 -19.87 -10.6 0 -2.56 19.87 10.6 0 -3.38zm-22.24 -8.48l-2.36 -1.26 0 2.56 2.36 1.26 0 -2.56zm-1.01 -13.16l-2.36 -1.27 0 2.57 2.36 1.26 0 -2.56zm4.73 2.52l-2.36 -1.26 0 2.56 2.36 1.26 0 -2.56z"/>
  </g>
 </g>
</svg>
