<?xml version="1.0" encoding="UTF-8"?>
<!DOCTYPE svg PUBLIC "-//W3C//DTD SVG 1.1//EN" "http://www.w3.org/Graphics/SVG/1.1/DTD/svg11.dtd">
<!-- Creator: CorelDRAW -->
<svg xmlns="http://www.w3.org/2000/svg" xml:space="preserve" width="1956px" height="467px" version="1.1" style="shape-rendering:geometricPrecision; text-rendering:geometricPrecision; image-rendering:optimizeQuality; fill-rule:evenodd; clip-rule:evenodd"
viewBox="0 0 1131.9 270.36"
 xmlns:xlink="http://www.w3.org/1999/xlink"
 xmlns:xodm="http://www.corel.com/coreldraw/odm/2003">
 <defs>
  <style type="text/css">
   <![CDATA[
    .fil0 {fill:black}
    .fil1 {fill:black;fill-rule:nonzero}
   ]]>
  </style>
 </defs>
 <g id="Layer_x0020_1">
  <metadata id="CorelCorpID_0Corel-Layer"/>
  <g id="_2189487452112">
   <path class="fil0" d="M137.92 185.25l-125.75 -67.08 6.38 -3.41 -12.17 -6.49 -6.38 3.41 0 36.06 137.92 73.57 137.92 -73.57 0 -12.98 -137.92 73.57 -62.73 -33.46 0 -9.96 62.73 33.46 0 -13.12zm90.18 -135.44l-12.49 6.66 12.49 6.66 12.48 -6.66 -12.48 -6.66zm-26.76 -26.16l-18.14 9.67 18.14 9.68 18.15 -9.68 -18.15 -9.67zm-41.68 -15.92l14.49 7.73 14.49 -7.73 -14.49 -7.73 -14.49 7.73zm-64.55 28.75l11.79 -6.29 -11.79 -6.28 -11.78 6.28 11.78 6.29zm20.89 -6.35l29.14 15.54 29.13 -15.54 -29.13 -15.54 -29.14 15.54zm-116 68.57l137.92 73.57 137.92 -73.57 -102.88 -54.88 -26.5 14.14 12.69 6.77 -63.7 33.98 10.6 5.65 63.72 -33.98 53.08 28.32 -84.95 45.31 -21.23 -11.33 63.7 -33.97 -10.62 -5.66 -63.7 33.97 -53.07 -28.32 83.61 -44.59 -17.41 -9.29 -11.22 5.99 -9.09 -4.85 -98.87 52.74zm176.38 -32.15l-13.35 -7.12 13.35 -7.12 13.34 7.12 -13.34 7.12zm-38.46 167.74l-125.75 -67.08 6.38 -3.4 -12.17 -6.49 -6.38 3.4 0 36.07 137.92 73.57 137.92 -73.57 0 -12.98 -137.92 73.57 -77.19 -41.18 0 -9.96 77.19 41.18 0 -13.13zm-86.39 -32.96l-9.19 -4.9 0 9.96 9.19 4.91 0 -9.97zm-3.93 -51.14l-9.19 -4.9 0 9.96 9.19 4.9 0 -9.96zm18.39 9.81l-9.19 -4.9 0 9.96 9.19 4.9 0 -9.96z"/>
   <path class="fil1" d="M324.33 175.37c1.15,31.89 24.26,54.3 63.77,54.3 33.97,0 57.54,-19.64 57.54,-47.6 0,-31.43 -27.04,-40.2 -53.38,-44.59 -24.26,-4.16 -43.9,-8.09 -43.9,-27.5 0,-17.33 14.09,-26.57 35.12,-26.57 21.95,0 36.97,12.24 39.28,30.96l20.79 0c-1.84,-29.12 -24.03,-49.22 -60.07,-49.22 -32.81,0 -55.23,18.49 -55.23,45.98 0,31.43 26.81,39.98 52.92,44.37 24.49,4.16 44.36,8.32 44.36,28.42 0,17.56 -15.48,27.5 -37.2,27.5 -24.72,0 -41.59,-14.33 -43.21,-36.05l-20.79 0zm143.95 52.91l18.95 0 0 -161.74 -18.95 0 0 161.74zm149.04 -17.33c-5.32,0 -7.63,-1.61 -7.63,-7.85l0 -51.53c0,-27.5 -17.33,-42.52 -47.37,-42.52 -28.42,0 -47.13,13.64 -49.91,36.74l18.95 0c2.31,-12.01 13.4,-19.87 30.04,-19.87 18.48,0 29.34,9.25 29.34,24.49l0 8.09 -34.66 0c-30.96,0 -47.36,13.17 -47.36,36.74 0,21.49 17.56,34.43 43.44,34.43 20.33,0 32.11,-9.01 39.51,-19.64 0.23,11.55 5.54,18.25 21.26,18.25l10.39 0 0 -17.33 -6 0zm-26.58 -30.73c0,19.64 -13.63,33.28 -37.2,33.28 -15.71,0 -25.65,-7.86 -25.65,-19.41 0,-13.41 9.48,-19.64 26.35,-19.64l36.5 0 0 5.77zm55.92 17.33c0,20.8 8.09,30.73 30.73,30.73l20.57 0 0 -17.33 -18.72 0c-10.17,0 -13.63,-3.69 -13.63,-13.63l0 -69.55 30.5 0 0 -17.33 -30.5 0 0 -33.04 -18.95 0 0 33.04 -21.26 0 0 17.33 21.26 0 0 69.78zm119 32.12c27.27,0 46.68,-17.33 51.3,-40.9l-19.18 0c-3.93,15.25 -16.87,24.03 -33.51,24.03 -22.41,0 -36.51,-15.71 -37.2,-38.12l0 -1.62 91.5 0c0.23,-2.77 0.47,-5.55 0.47,-8.09 -0.93,-34.89 -22.65,-55.92 -55.92,-55.92 -33.27,0 -55.92,24.5 -55.92,60.31 0,36.05 23.11,60.31 58.46,60.31zm-37.43 -72.32c1.85,-19.18 17.79,-31.66 35.12,-31.66 19.64,0 33.5,11.32 35.35,31.66l-70.47 0zm172.37 70.93c50.37,0 83.88,-33.73 83.88,-81.1 0,-47.6 -33.51,-80.64 -83.88,-80.64l-58.92 0 0 161.74 58.92 0zm-24.26 -132.86l24.26 0c30.96,0 48.29,20.8 48.29,51.76 0,30.73 -17.33,52.22 -48.29,52.22l-24.26 0 0 -103.98zm129.17 132.86l64.46 0c39.75,0 61.93,-17.79 61.93,-45.98 0,-23.11 -14.79,-34.43 -36.28,-37.2 18.49,-3.93 30.5,-15.48 30.5,-35.82 0,-27.03 -21.72,-42.74 -59.15,-42.74l-61.46 0 0 161.74zm62.38 -134.48c15.02,0 23.57,7.63 23.57,19.64 0,12.02 -8.78,19.64 -23.57,19.64l-27.72 0 0 -39.28 27.72 0zm2.31 66.09c16.41,0 26.11,7.62 26.11,20.79 0,12.48 -9.47,20.11 -26.11,20.11l-30.03 0 0 -40.9 30.03 0z"/>
  </g>
 </g>
</svg>
