<?xml version="1.0" encoding="UTF-8"?>
<!DOCTYPE svg PUBLIC "-//W3C//DTD SVG 1.1//EN" "http://www.w3.org/Graphics/SVG/1.1/DTD/svg11.dtd">
<!-- Creator: CorelDRAW -->
<svg xmlns="http://www.w3.org/2000/svg" xml:space="preserve" width="1956px" height="456px" version="1.1" style="shape-rendering:geometricPrecision; text-rendering:geometricPrecision; image-rendering:optimizeQuality; fill-rule:evenodd; clip-rule:evenodd"
viewBox="0 0 670.12 156.1"
 xmlns:xlink="http://www.w3.org/1999/xlink"
 xmlns:xodm="http://www.corel.com/coreldraw/odm/2003">
 <defs>
  <style type="text/css">
   <![CDATA[
    .fil1 {fill:white}
    .fil0 {fill:white;fill-rule:nonzero}
   ]]>
  </style>
 </defs>
 <g id="Layer_x0020_1">
  <metadata id="CorelCorpID_0Corel-Layer"/>
  <g id="_2190083115472">
   <g>
    <path class="fil0" d="M242.55 28.8c0.87,0 1.72,0.02 2.55,0.05l0.01 0c5.18,0.22 9.72,1.11 13.63,2.67 4.53,1.81 8.28,4.19 11.22,7.14 2.95,2.95 5.15,6.28 6.6,10 1.45,3.72 2.18,7.44 2.18,11.16l-17.96 0c0,-4.08 -1.61,-7.49 -4.83,-10.21 -3.22,-2.72 -7.69,-4.08 -13.4,-4.08 -2.36,0 -4.65,0.23 -6.87,0.68 -2.22,0.46 -4.2,1.14 -5.92,2.04 -1.72,0.91 -3.08,2.04 -4.08,3.4 -1,1.36 -1.5,2.95 -1.5,4.77 0,3.26 1.66,5.69 4.97,7.27 3.31,1.59 8.59,3.11 15.85,4.56 5.62,1.09 10.68,2.34 15.17,3.74 4.49,1.41 8.32,3.2 11.49,5.38 3.18,2.17 5.63,4.89 7.35,8.16 1.72,3.26 2.58,7.3 2.58,12.11 0,4.53 -0.9,8.63 -2.72,12.31 -1.81,3.67 -4.42,6.8 -7.82,9.39 -3.4,2.58 -7.51,4.55 -12.31,5.91 -4.81,1.36 -10.2,2.04 -16.19,2.04 -4.63,0 -9.25,-0.65 -13.88,-1.97 -4.62,-1.31 -8.77,-3.31 -12.45,-5.98 -3.67,-2.68 -6.64,-6.08 -8.9,-10.21 -2.27,-4.12 -3.41,-9.05 -3.41,-14.76l17.96 0c0,2.81 0.64,5.24 1.91,7.28 1.27,2.04 2.9,3.74 4.89,5.1 2,1.36 4.22,2.38 6.67,3.06 2.45,0.68 4.85,1.02 7.21,1.02 2.54,0 5.08,-0.22 7.62,-0.68 2.54,-0.45 4.81,-1.2 6.8,-2.24 2,-1.04 3.6,-2.36 4.83,-3.95 1.22,-1.59 1.84,-3.51 1.84,-5.78 0,-1.45 -0.34,-2.81 -1.02,-4.08 -0.68,-1.27 -1.89,-2.43 -3.61,-3.47 -1.72,-1.04 -4.01,-2.02 -6.87,-2.93 -2.86,-0.9 -6.46,-1.76 -10.81,-2.58 -4.36,-0.82 -8.64,-1.84 -12.86,-3.06 -4.22,-1.23 -7.96,-2.9 -11.22,-5.03 -3.27,-2.14 -5.92,-4.86 -7.96,-8.17 -2.04,-3.31 -3.06,-7.5 -3.06,-12.58 0,-4.08 0.86,-7.8 2.58,-11.16 1.72,-3.35 4.17,-6.23 7.35,-8.64 3.17,-2.4 6.98,-4.28 11.42,-5.64 4.45,-1.36 9.44,-2.04 14.97,-2.04z"/>
    <polygon class="fil0" points="306.58,125.66 288.63,125.66 288.63,28.85 306.58,28.85 "/>
    <path class="fil0" d="M385.58 125.59l-17.14 0 0 -7.48c-2.72,2.93 -5.89,5.17 -9.52,6.71 -3.63,1.57 -7.62,2.34 -11.97,2.34 -4.54,0 -8.82,-0.93 -12.86,-2.79 -4.04,-1.86 -7.57,-4.45 -10.61,-7.71 -3.04,-3.27 -5.44,-7.12 -7.21,-11.59 -1.77,-4.44 -2.65,-9.27 -2.65,-14.44 0,-5.17 0.88,-10.02 2.65,-14.51 1.77,-4.51 4.17,-8.39 7.21,-11.66 3.04,-3.26 6.57,-5.84 10.61,-7.7 4.04,-1.86 8.32,-2.79 12.86,-2.79 4.35,0 8.34,0.77 11.97,2.33 3.63,1.54 6.8,3.79 9.52,6.71l0 -7.48 17.14 0 0 70.06zm-17.95 -34.82c0,-2.82 -0.48,-5.42 -1.43,-7.87 -0.96,-2.45 -2.27,-4.56 -3.9,-6.37 -1.64,-1.82 -3.54,-3.22 -5.74,-4.27 -2.18,-1.04 -4.51,-1.56 -6.96,-1.56 -2.45,0 -4.78,0.52 -6.96,1.56 -2.2,1.05 -4.11,2.43 -5.74,4.2 -1.63,1.77 -2.95,3.88 -3.9,6.37 -0.95,2.49 -1.43,5.12 -1.43,7.94 0,2.81 0.48,5.39 1.43,7.8 0.95,2.38 2.27,4.46 3.9,6.23 1.63,1.77 3.54,3.13 5.74,4.13 2.18,1 4.51,1.49 6.96,1.49 2.45,0 4.78,-0.52 6.96,-1.56 2.2,-1.04 4.1,-2.43 5.74,-4.19 1.63,-1.77 2.94,-3.86 3.9,-6.24 0.95,-2.4 1.43,-4.94 1.43,-7.66z"/>
    <path class="fil0" d="M424.31 127.29c-4.72,0 -8.98,-0.77 -12.79,-2.31 -3.81,-1.54 -7.05,-3.69 -9.73,-6.44 -2.67,-2.77 -4.74,-6.03 -6.19,-9.77 -1.45,-3.76 -2.17,-7.87 -2.17,-12.29l0 -58.57 17.95 0 0 17.83 12.93 0 4.18 0 0 16.73 -4.18 0 -12.93 0 0 24.89c0,1.64 0.25,3.22 0.75,4.77 0.5,1.54 1.27,2.92 2.31,4.14 1.05,1.23 2.38,2.2 4.02,2.93 1.63,0.73 3.58,1.09 5.85,1.09l4.18 0 0 17 -4.18 0z"/>
    <path class="fil0" d="M449.08 97.64c1.18,4.35 3.33,7.75 6.46,10.2 3.13,2.45 6.83,3.67 11.09,3.67 2.99,0 5.83,-0.66 8.5,-1.97 2.68,-1.32 4.78,-3.38 6.33,-6.19l19.18 0c-2.09,7.16 -6.06,12.95 -11.9,17.35 -5.85,4.39 -13.18,6.59 -21.98,6.59 -4.89,0 -9.52,-0.95 -13.87,-2.85 -4.36,-1.91 -8.16,-4.52 -11.43,-7.83 -3.26,-3.31 -5.85,-7.18 -7.75,-11.63 -1.91,-4.44 -2.86,-9.2 -2.86,-14.28 0,-5.08 0.95,-9.87 2.86,-14.35 1.9,-4.49 4.49,-8.39 7.75,-11.7 3.27,-3.31 7.07,-5.94 11.43,-7.89 4.35,-1.95 8.98,-2.93 13.87,-2.93 5.17,0 10.05,0.98 14.63,2.93 4.58,1.95 8.5,4.8 11.77,8.57 3.26,3.76 5.71,8.36 7.34,13.81 1.64,5.44 2.13,11.6 1.5,18.5l-52.92 0zm35.1 -14.7c-1.09,-4.08 -3.2,-7.32 -6.33,-9.72 -3.13,-2.41 -6.87,-3.61 -11.22,-3.61 -4.08,0 -7.67,1.2 -10.75,3.61 -3.08,2.4 -5.26,5.64 -6.53,9.72l34.83 0z"/>
    <path class="fil0" d="M587.26 78.45c0,7.26 -1,13.79 -3,19.59 -1.99,5.81 -4.85,10.75 -8.57,14.83 -3.71,4.08 -8.2,7.24 -13.46,9.46 -5.26,2.22 -11.11,3.33 -17.55,3.33l-34.97 0 0 -94.41 34.97 0c6.53,0 12.42,1.09 17.68,3.26 5.26,2.18 9.73,5.31 13.4,9.39 3.68,4.08 6.51,9.05 8.5,14.9 2,5.85 3,12.4 3,19.65zm-17.96 -0.13c0,-3.45 -0.34,-6.96 -1.02,-10.55 -0.68,-3.58 -1.93,-6.84 -3.74,-9.79 -1.82,-2.95 -4.31,-5.35 -7.48,-7.21 -3.18,-1.86 -7.3,-2.79 -12.38,-2.79l-17.01 0 0 60.95 17.01 0c5.35,0 9.63,-1.07 12.85,-3.2 3.22,-2.13 5.72,-4.74 7.49,-7.82 1.76,-3.09 2.92,-6.4 3.46,-9.93 0.55,-3.54 0.82,-6.76 0.82,-9.66z"/>
    <path class="fil0" d="M670.12 97.91c0,4.26 -0.69,8.09 -2.05,11.49 -1.36,3.4 -3.33,6.31 -5.91,8.71 -2.59,2.4 -5.72,4.26 -9.39,5.58 -3.67,1.31 -7.78,1.97 -12.31,1.97l-45.98 0 0 -94.41 43.53 0c9.52,0 16.64,2.26 21.36,6.8 4.71,4.53 7.07,10.79 7.07,18.77 0,3.99 -0.81,7.55 -2.45,10.68 -1.63,3.13 -3.9,5.74 -6.8,7.83 4.08,2.08 7.26,5.01 9.52,8.77 2.27,3.76 3.41,8.37 3.41,13.81zm-57.69 -50.34l0 20.82 25.58 0c3.08,0 5.69,-0.96 7.82,-2.86 2.13,-1.9 3.2,-4.44 3.2,-7.62 0,-3.17 -0.98,-5.69 -2.93,-7.55 -1.95,-1.86 -4.64,-2.79 -8.09,-2.79l-25.58 0zm39.32 49.66c0,-3.99 -1.2,-7.05 -3.61,-9.18 -2.4,-2.14 -5.91,-3.2 -10.54,-3.2l-25.17 0 0 24.35 25.58 0c1.72,0 3.4,-0.18 5.03,-0.54 1.63,-0.37 3.11,-1.03 4.42,-1.98 1.32,-0.95 2.36,-2.17 3.13,-3.67 0.77,-1.5 1.16,-3.42 1.16,-5.78z"/>
   </g>
   <path class="fil1" d="M87.79 101.92l-80.04 -42.7 4.06 -2.16 -7.75 -4.14 -4.06 2.17 0 22.96 87.79 46.83 87.8 -46.83 0 -8.27 -87.8 46.84 -39.93 -21.31 0 -6.34 39.93 21.31 0 -8.36zm0 -83.93l-47.73 25.46 6.33 3.38 -6.33 3.38 21.12 11.27 6.33 -3.38 6.33 3.38 34.22 -18.25 6.76 3.61 -40.55 21.62 13.51 7.21 47.75 -25.46 -6.33 -3.38 6.33 -3.38 -21.13 -11.27 -6.33 3.38 -6.33 -3.38 -34.23 18.25 -6.75 -3.59 40.55 -21.63 -13.52 -7.22zm0 -17.99l-87.79 46.83 87.79 46.83 87.8 -46.83 -87.8 -46.83zm0 133.14l-80.04 -42.7 4.06 -2.16 -7.75 -4.14 -4.06 2.17 0 22.96 87.79 46.83 87.8 -46.83 0 -8.26 -87.8 46.83 -49.13 -26.21 0 -6.35 49.13 26.22 0 -8.36zm-54.99 -20.98l-5.85 -3.12 0 6.34 5.85 3.12 0 -6.34zm-2.5 -32.55l-5.85 -3.13 0 6.35 5.85 3.12 0 -6.34zm11.71 6.24l-5.85 -3.12 0 6.34 5.85 3.12 0 -6.34z"/>
  </g>
 </g>
</svg>
