<?xml version="1.0" encoding="UTF-8"?>
<!DOCTYPE svg PUBLIC "-//W3C//DTD SVG 1.1//EN" "http://www.w3.org/Graphics/SVG/1.1/DTD/svg11.dtd">
<!-- Creator: CorelDRAW -->
<svg xmlns="http://www.w3.org/2000/svg" xml:space="preserve" width="1956px" height="487px" version="1.1" style="shape-rendering:geometricPrecision; text-rendering:geometricPrecision; image-rendering:optimizeQuality; fill-rule:evenodd; clip-rule:evenodd"
viewBox="0 0 701 174.42"
 xmlns:xlink="http://www.w3.org/1999/xlink"
 xmlns:xodm="http://www.corel.com/coreldraw/odm/2003">
 <defs>
  <style type="text/css">
   <![CDATA[
    .fil0 {fill:white}
    .fil1 {fill:white;fill-rule:nonzero}
   ]]>
  </style>
 </defs>
 <g id="Layer_x0020_1">
  <metadata id="CorelCorpID_0Corel-Layer"/>
  <g id="_2190068131600">
   <path class="fil0" d="M78.89 18.46c4.91,2.62 9.83,5.25 14.75,7.87 4.91,-2.62 9.83,-5.25 14.75,-7.87 -4.92,-2.62 -9.84,-5.24 -14.75,-7.86 -8.47,4.51 1.86,-1 -14.75,7.86zm-32.02 51.36c5.03,2.68 12.11,3 21.21,0.99 2.03,-0.45 4.91,-1.2 8.6,-2.32 3.7,-1.12 8.26,-2.59 13.65,-4.41 4.55,-1.54 8.56,-2.8 12.03,-3.8 3.45,-0.99 6.4,-1.71 8.77,-2.16 4.78,-0.91 8.69,-0.53 11.73,1.09 3.15,1.68 3.93,3.97 2.33,6.86 -1.61,2.89 -5.57,6.01 -11.86,9.37 -3.23,1.72 -6.43,3.15 -9.57,4.29 -3.15,1.15 -6.26,2 -9.32,2.55 -6.14,1.12 -11.76,1.13 -16.9,0.04 -1.44,1.8 -2.9,3.61 -4.35,5.42 6.59,1.2 13.92,0.99 21.97,-0.62 4.02,-0.8 8.02,-1.92 11.96,-3.35 3.94,-1.44 7.86,-3.2 11.74,-5.26 4.27,-2.29 7.77,-4.53 10.48,-6.77 2.7,-2.23 4.64,-4.46 5.78,-6.64 2.29,-4.37 0.98,-7.88 -3.94,-10.51 -1.49,-0.79 -3.2,-1.37 -5.11,-1.75 -1.9,-0.37 -3.7,-0.58 -5.38,-0.66 -1.68,-0.08 -3.84,0.1 -6.47,0.54 -2.66,0.44 -4.85,0.83 -6.58,1.2 -1.74,0.37 -4.22,1.05 -7.46,2.04 -3.23,0.99 -5.67,1.75 -7.31,2.3 -1.63,0.55 -4.35,1.42 -8.14,2.7 -8.2,2.75 -14.46,4.55 -18.81,5.34 -4.34,0.78 -7.94,0.41 -10.81,-1.12 -3.16,-1.69 -4.01,-3.86 -2.55,-6.53 1.46,-2.66 4.81,-5.4 10.06,-8.19 5.01,-2.68 10.05,-4.5 15.12,-5.5 5.08,-0.99 10.19,-1.16 15.34,-0.48 1.47,-1.76 2.93,-3.51 4.4,-5.28 -5.99,-0.7 -12.58,-0.36 -19.78,0.96 -3.6,0.66 -7.13,1.6 -10.58,2.82 -3.44,1.21 -6.82,2.7 -10.13,4.46 -3.68,1.96 -6.7,3.97 -9.07,5.99 -2.38,2.03 -4.11,4.08 -5.19,6.17 -2.17,4.19 -0.77,7.61 4.14,10.22zm42.11 81.33l-81.13 -43.27 4.12 -2.2 -7.85 -4.19 -4.12 2.2 0 7.45 0 15.82 88.98 47.46 57.58 -30.71 7.85 -4.19 23.55 -12.56 0 -8.37 -23.55 12.56 -7.85 4.18 -57.58 30.72 -40.47 -21.59 -9.33 -4.98 0 -6.42 10.16 5.41 39.64 21.15 0 -8.47zm-61.66 -18l0 -6.42 5.93 3.16 0 6.43 -5.93 -3.17zm61.66 -13.64l-81.13 -43.27 4.12 -2.2 -7.85 -4.19 -4.12 2.2 0 23.27 88.98 47.46 88.98 -47.46 0 -8.38 -88.98 47.47 -40.47 -21.59 0 -6.43 40.47 21.59 0 -8.47zm-64.2 -19.35l0 -6.43 5.93 3.17 0 6.42 -5.93 -3.16zm11.86 6.33l0 -6.43 5.94 3.16 0 6.43 -5.94 -3.16zm24.27 -91.31c-4.62,2.47 1.02,-0.54 -8.06,4.3 2.69,1.43 5.38,2.86 8.06,4.3 2.68,-1.44 5.37,-2.87 8.05,-4.3 -2.68,-1.43 -5.37,-2.87 -8.05,-4.3zm86.25 16.95c-4.63,2.47 1.02,-0.54 -8.06,4.3 2.69,1.43 5.37,2.87 8.06,4.3 2.68,-1.43 5.37,-2.87 8.05,-4.3 -2.68,-1.43 -5.37,-2.86 -8.05,-4.3zm-17.26 -16.87c-6.72,3.58 1.48,-0.8 -11.71,6.24 3.91,2.08 7.81,4.16 11.71,6.24 3.9,-2.08 7.8,-4.16 11.7,-6.24 -3.9,-2.08 -7.8,-4.16 -11.7,-6.24zm-26.9 -10.27c3.12,1.66 6.24,3.32 9.35,4.99 3.12,-1.67 6.24,-3.33 9.35,-4.99 -3.11,-1.66 -6.23,-3.33 -9.35,-4.99 -5.36,2.86 1.19,-0.63 -9.35,4.99zm-39.21 24.66l-63.79 34.03c29.66,15.82 59.32,31.64 88.98,47.46l59.42 -31.7 24.34 -12.98 5.22 -2.78 -66.37 -35.41 -3.34 -1.77c-4.87,2.6 -9.74,5.2 -14.61,7.8 -6.43,-3.43 -12.85,-6.86 -19.28,-10.29l-10.57 5.64zm58.61 8.69c-2.87,1.53 -5.74,3.07 -8.61,4.6 -2.87,-1.53 -5.74,-3.07 -8.61,-4.6 9.7,-5.17 3.67,-1.96 8.61,-4.59 2.87,1.53 5.74,3.06 8.61,4.59z"/>
   <path class="fil1" d="M252.23 142.93c-8.6,0 -15.97,-2.04 -22.11,-6.11 -6.13,-4.08 -10.41,-9.7 -12.83,-16.86l8.06 -4.71c1.71,5.83 4.84,10.37 9.41,13.64 4.57,3.27 10.43,4.91 17.6,4.91 6.99,0 12.43,-1.55 16.33,-4.64 3.89,-3.09 5.84,-7.19 5.84,-12.29 0,-4.93 -1.79,-8.65 -5.37,-11.16 -3.59,-2.5 -9.5,-5.1 -17.74,-7.79 -9.76,-3.22 -16.21,-5.82 -19.35,-7.79 -7.16,-4.3 -10.75,-10.53 -10.75,-18.68 0,-7.97 2.78,-14.27 8.33,-18.88 5.56,-4.61 12.41,-6.92 20.56,-6.92 7.35,0 13.71,1.91 19.08,5.71 5.38,3.81 9.36,8.67 11.96,14.58l-7.93 4.44c-4.3,-10.4 -12,-15.59 -23.11,-15.59 -5.82,0 -10.52,1.43 -14.11,4.3 -3.58,2.86 -5.37,6.85 -5.37,11.96 0,4.66 1.61,8.15 4.84,10.48 3.22,2.33 8.55,4.7 15.98,7.12 3.41,1.16 5.85,1.99 7.33,2.48 1.48,0.5 3.63,1.3 6.45,2.42 2.82,1.12 4.9,2.11 6.25,2.96 1.34,0.85 2.97,2.01 4.9,3.49 1.92,1.48 3.31,2.96 4.16,4.44 0.86,1.47 1.62,3.27 2.29,5.37 0.67,2.11 1.01,4.37 1.01,6.79 0,7.97 -2.91,14.35 -8.74,19.14 -5.82,4.8 -13.48,7.19 -22.97,7.19zm46.49 -1.61l0 -98.09 8.86 0 0 98.09 -8.86 0zm85.45 -67.18l8.87 0 0 67.18 -8.87 0 0 -13.17c-6.18,9.86 -15.23,14.78 -27.14,14.78 -9.58,0 -17.76,-3.4 -24.52,-10.21 -6.76,-6.81 -10.15,-15.14 -10.15,-24.99 0,-9.85 3.39,-18.19 10.15,-24.99 6.76,-6.81 14.94,-10.21 24.52,-10.21 11.91,0 20.96,4.92 27.14,14.78l0 -13.17zm-45.28 52.47c5.11,5.15 11.38,7.72 18.81,7.72 7.44,0 13.71,-2.57 18.81,-7.72 5.11,-5.15 7.66,-11.45 7.66,-18.88 0,-7.44 -2.55,-13.73 -7.66,-18.88 -5.1,-5.15 -11.37,-7.73 -18.81,-7.73 -7.43,0 -13.7,2.58 -18.81,7.73 -5.1,5.15 -7.66,11.44 -7.66,18.88 0,7.43 2.56,13.73 7.66,18.88zm108.57 -43.87l-19.35 0 0 40.71c0,3.67 0.72,6.29 2.15,7.86 1.43,1.57 3.58,2.37 6.45,2.42 2.87,0.04 6.45,-0.02 10.75,-0.2l0 7.79c-9.41,1.43 -16.46,0.76 -21.16,-2.02 -4.71,-2.77 -7.06,-8.06 -7.06,-15.85l0 -40.71 -14.11 0 0 -8.6 14.11 0 0 -16.13 8.87 -2.68 0 18.81 19.35 0 0 8.6zm41.79 -10.21c9.94,0 17.98,3.51 24.11,10.54 6.14,7.03 9.21,15.34 9.21,24.93 0,0.98 -0.09,2.37 -0.27,4.16l-58.99 0c0.9,6.81 3.79,12.21 8.67,16.19 4.88,3.99 10.91,5.98 18.07,5.98 5.11,0 9.52,-1.05 13.24,-3.15 3.71,-2.11 6.51,-4.86 8.39,-8.27l7.8 4.57c-2.96,4.75 -6.99,8.51 -12.1,11.29 -5.1,2.77 -10.92,4.16 -17.46,4.16 -10.57,0 -19.17,-3.31 -25.8,-9.94 -6.63,-6.63 -9.94,-15.05 -9.94,-25.26 0,-10.03 3.27,-18.41 9.8,-25.13 6.54,-6.72 14.96,-10.07 25.27,-10.07zm0 8.59c-6.99,0 -12.84,2.09 -17.54,6.25 -4.7,4.17 -7.5,9.56 -8.4,16.19l50.12 0c-0.89,-7.07 -3.63,-12.58 -8.2,-16.52 -4.56,-3.94 -9.89,-5.92 -15.98,-5.92zm84.11 -33.86c12.9,0 23.67,4.53 32.31,13.58 8.65,9.04 12.97,20.2 12.97,33.45 0,13.26 -4.32,24.41 -12.97,33.46 -8.64,9.05 -19.41,13.57 -32.31,13.57l-37.36 0 0 -94.06 37.36 0zm0 76.32c8.15,0 14.78,-2.71 19.88,-8.12 5.11,-5.42 7.66,-12.48 7.66,-21.17 0,-8.69 -2.55,-15.74 -7.66,-21.16 -5.1,-5.42 -11.73,-8.13 -19.88,-8.13l-18.81 0 0 58.58 18.81 0zm115.28 -31.03c8.24,4.74 12.36,11.91 12.36,21.49 0,7.98 -2.82,14.52 -8.46,19.62 -5.64,5.11 -12.59,7.66 -20.83,7.66l-39.9 0 0 -94.06 37.08 0c8.06,0 14.85,2.49 20.36,7.46 5.51,4.97 8.26,11.31 8.26,19.01 0,7.8 -2.95,14.07 -8.87,18.82zm-19.75 -27.95l-18.54 0 0 20.69 18.54 0c2.87,0 5.26,-0.99 7.19,-2.96 1.93,-1.97 2.89,-4.43 2.89,-7.39 0,-2.95 -0.94,-5.42 -2.82,-7.39 -1.88,-1.97 -4.3,-2.95 -7.26,-2.95zm2.82 59.39c3.14,0 5.74,-1.06 7.8,-3.16 2.06,-2.11 3.09,-4.77 3.09,-8 0,-3.13 -1.03,-5.75 -3.09,-7.86 -2.06,-2.1 -4.66,-3.15 -7.8,-3.15l-21.36 0 0 22.17 21.36 0z"/>
  </g>
 </g>
</svg>
