<?xml version="1.0" encoding="UTF-8"?>
<!DOCTYPE svg PUBLIC "-//W3C//DTD SVG 1.1//EN" "http://www.w3.org/Graphics/SVG/1.1/DTD/svg11.dtd">
<!-- Creator: CorelDRAW -->
<svg xmlns="http://www.w3.org/2000/svg" xml:space="preserve" width="1956px" height="456px" version="1.1" style="shape-rendering:geometricPrecision; text-rendering:geometricPrecision; image-rendering:optimizeQuality; fill-rule:evenodd; clip-rule:evenodd"
viewBox="0 0 670.12 156.1"
 xmlns:xlink="http://www.w3.org/1999/xlink"
 xmlns:xodm="http://www.corel.com/coreldraw/odm/2003">
 <defs>
  <style type="text/css">
   <![CDATA[
    .fil1 {fill:white}
    .fil0 {fill:white;fill-rule:nonzero}
   ]]>
  </style>
 </defs>
 <g id="Layer_x0020_1">
  <metadata id="CorelCorpID_0Corel-Layer"/>
  <g id="_2190079491008">
   <g>
    <path class="fil0" d="M242.55 28.8c0.87,0 1.72,0.02 2.55,0.06l0.01 0c5.18,0.21 9.73,1.1 13.63,2.66 4.54,1.82 8.28,4.2 11.22,7.15 2.95,2.94 5.15,6.28 6.6,10 1.45,3.71 2.18,7.43 2.18,11.15l-17.96 0c0,-4.08 -1.61,-7.48 -4.83,-10.2 -3.22,-2.72 -7.69,-4.08 -13.4,-4.08 -2.36,0 -4.65,0.22 -6.87,0.68 -2.22,0.45 -4.19,1.13 -5.92,2.04 -1.72,0.9 -3.08,2.04 -4.08,3.4 -1,1.36 -1.49,2.94 -1.49,4.76 0,3.26 1.65,5.69 4.96,7.28 3.31,1.59 8.59,3.1 15.85,4.56 5.62,1.08 10.68,2.33 15.17,3.74 4.49,1.4 8.32,3.19 11.49,5.37 3.18,2.18 5.63,4.9 7.35,8.16 1.72,3.27 2.59,7.3 2.59,12.11 0,4.53 -0.91,8.64 -2.72,12.31 -1.82,3.68 -4.43,6.8 -7.83,9.39 -3.4,2.58 -7.5,4.56 -12.31,5.92 -4.81,1.36 -10.2,2.04 -16.19,2.04 -4.62,0 -9.25,-0.66 -13.88,-1.98 -4.62,-1.31 -8.77,-3.31 -12.44,-5.98 -3.68,-2.68 -6.65,-6.08 -8.91,-10.2 -2.27,-4.13 -3.4,-9.05 -3.4,-14.77l17.95 0c0,2.82 0.64,5.24 1.91,7.28 1.27,2.04 2.9,3.75 4.89,5.1 2,1.37 4.22,2.39 6.67,3.07 2.45,0.68 4.85,1.02 7.21,1.02 2.54,0 5.08,-0.23 7.62,-0.68 2.54,-0.46 4.81,-1.21 6.8,-2.25 2,-1.04 3.61,-2.36 4.83,-3.94 1.23,-1.59 1.84,-3.52 1.84,-5.79 0,-1.45 -0.34,-2.81 -1.02,-4.08 -0.68,-1.27 -1.88,-2.42 -3.61,-3.47 -1.72,-1.04 -4.01,-2.01 -6.87,-2.92 -2.85,-0.91 -6.46,-1.77 -10.81,-2.59 -4.36,-0.81 -8.64,-1.83 -12.86,-3.06 -4.22,-1.22 -7.96,-2.9 -11.22,-5.03 -3.27,-2.13 -5.92,-4.85 -7.96,-8.16 -2.04,-3.31 -3.06,-7.51 -3.06,-12.59 0,-4.08 0.86,-7.8 2.58,-11.15 1.73,-3.36 4.18,-6.24 7.35,-8.64 3.17,-2.4 6.98,-4.29 11.43,-5.65 4.44,-1.36 9.43,-2.04 14.96,-2.04z"/>
    <polygon class="fil0" points="306.59,125.66 288.63,125.66 288.63,28.86 306.59,28.86 "/>
    <path class="fil0" d="M385.58 125.6l-17.14 0 0 -7.49c-2.72,2.93 -5.89,5.17 -9.52,6.72 -3.63,1.56 -7.62,2.33 -11.97,2.33 -4.54,0 -8.82,-0.93 -12.86,-2.79 -4.03,-1.86 -7.57,-4.44 -10.61,-7.71 -3.04,-3.26 -5.44,-7.12 -7.21,-11.58 -1.77,-4.45 -2.65,-9.28 -2.65,-14.45 0,-5.17 0.88,-10.02 2.65,-14.51 1.77,-4.51 4.17,-8.39 7.21,-11.65 3.04,-3.27 6.58,-5.85 10.61,-7.71 4.04,-1.86 8.32,-2.79 12.86,-2.79 4.35,0 8.34,0.77 11.97,2.34 3.63,1.54 6.8,3.78 9.52,6.71l0 -7.49 17.14 0 0 70.07zm-17.95 -34.83c0,-2.81 -0.48,-5.42 -1.43,-7.87 -0.95,-2.45 -2.27,-4.56 -3.9,-6.37 -1.63,-1.81 -3.54,-3.22 -5.74,-4.26 -2.18,-1.05 -4.51,-1.57 -6.96,-1.57 -2.45,0 -4.78,0.52 -6.96,1.57 -2.2,1.04 -4.1,2.42 -5.74,4.19 -1.63,1.77 -2.94,3.88 -3.9,6.37 -0.95,2.5 -1.43,5.13 -1.43,7.94 0,2.81 0.48,5.4 1.43,7.8 0.96,2.38 2.27,4.47 3.9,6.23 1.64,1.77 3.54,3.13 5.74,4.13 2.18,1 4.51,1.5 6.96,1.5 2.45,0 4.78,-0.52 6.96,-1.57 2.2,-1.04 4.11,-2.42 5.74,-4.19 1.63,-1.77 2.95,-3.86 3.9,-6.24 0.95,-2.4 1.43,-4.94 1.43,-7.66z"/>
    <path class="fil0" d="M424.31 127.3c-4.72,0 -8.98,-0.77 -12.79,-2.31 -3.81,-1.55 -7.05,-3.7 -9.73,-6.44 -2.67,-2.77 -4.74,-6.04 -6.19,-9.78 -1.45,-3.76 -2.17,-7.86 -2.17,-12.29l0 -58.56 17.95 0 0 17.82 12.93 0 4.18 0 0 16.73 -4.18 0 -12.93 0 0 24.9c0,1.63 0.25,3.22 0.75,4.76 0.5,1.54 1.27,2.92 2.32,4.15 1.04,1.22 2.38,2.2 4.01,2.92 1.63,0.73 3.58,1.09 5.85,1.09l4.18 0 0 17.01 -4.18 0z"/>
    <path class="fil0" d="M449.08 97.64c1.18,4.35 3.33,7.76 6.46,10.2 3.13,2.45 6.83,3.68 11.09,3.68 2.99,0 5.83,-0.66 8.5,-1.98 2.68,-1.31 4.79,-3.37 6.33,-6.19l19.18 0c-2.09,7.17 -6.05,12.95 -11.9,17.35 -5.85,4.4 -13.18,6.6 -21.97,6.6 -4.9,0 -9.53,-0.96 -13.88,-2.86 -4.35,-1.9 -8.16,-4.51 -11.43,-7.82 -3.26,-3.31 -5.85,-7.19 -7.75,-11.63 -1.91,-4.45 -2.86,-9.21 -2.86,-14.29 0,-5.08 0.95,-9.86 2.86,-14.35 1.9,-4.49 4.49,-8.39 7.75,-11.7 3.27,-3.31 7.08,-5.94 11.43,-7.89 4.35,-1.95 8.98,-2.92 13.88,-2.92 5.17,0 10.04,0.97 14.62,2.92 4.58,1.95 8.5,4.81 11.77,8.57 3.26,3.76 5.71,8.37 7.34,13.81 1.64,5.44 2.14,11.61 1.5,18.5l-52.92 0zm35.1 -14.69c-1.09,-4.08 -3.2,-7.33 -6.33,-9.73 -3.13,-2.4 -6.87,-3.6 -11.22,-3.6 -4.08,0 -7.67,1.2 -10.75,3.6 -3.08,2.4 -5.26,5.65 -6.53,9.73l34.83 0z"/>
    <path class="fil0" d="M587.26 78.46c0,7.25 -1,13.78 -2.99,19.59 -2,5.8 -4.86,10.75 -8.57,14.83 -3.72,4.08 -8.21,7.23 -13.47,9.45 -5.26,2.22 -11.11,3.33 -17.55,3.33l-34.97 0 0 -94.41 34.97 0c6.53,0 12.42,1.09 17.68,3.27 5.26,2.17 9.73,5.3 13.4,9.38 3.68,4.08 6.51,9.05 8.51,14.9 1.99,5.85 2.99,12.4 2.99,19.66zm-17.96 -0.14c0,-3.44 -0.34,-6.96 -1.02,-10.54 -0.68,-3.58 -1.93,-6.85 -3.74,-9.8 -1.81,-2.94 -4.31,-5.35 -7.48,-7.21 -3.18,-1.86 -7.3,-2.79 -12.38,-2.79l-17.01 0 0 60.95 17.01 0c5.35,0 9.63,-1.06 12.85,-3.2 3.22,-2.13 5.72,-4.73 7.49,-7.82 1.77,-3.08 2.92,-6.39 3.47,-9.93 0.54,-3.54 0.81,-6.76 0.81,-9.66z"/>
    <path class="fil0" d="M670.12 97.91c0,4.26 -0.68,8.1 -2.05,11.5 -1.35,3.4 -3.33,6.3 -5.91,8.7 -2.59,2.41 -5.72,4.27 -9.39,5.58 -3.67,1.32 -7.78,1.97 -12.31,1.97l-45.98 0 0 -94.41 43.53 0c9.52,0 16.64,2.27 21.36,6.8 4.72,4.54 7.07,10.8 7.07,18.78 0,3.99 -0.81,7.55 -2.45,10.68 -1.63,3.13 -3.9,5.73 -6.8,7.82 4.08,2.09 7.26,5.01 9.53,8.77 2.26,3.77 3.4,8.37 3.4,13.81zm-57.69 -50.33l0 20.81 25.58 0c3.08,0 5.69,-0.95 7.82,-2.86 2.13,-1.9 3.2,-4.44 3.2,-7.61 0,-3.18 -0.98,-5.7 -2.93,-7.56 -1.95,-1.85 -4.64,-2.78 -8.09,-2.78l-25.58 0zm39.32 49.65c0,-3.99 -1.2,-7.05 -3.6,-9.18 -2.41,-2.13 -5.92,-3.2 -10.55,-3.2l-25.17 0 0 24.35 25.58 0c1.72,0 3.4,-0.18 5.03,-0.54 1.64,-0.36 3.11,-1.02 4.42,-1.97 1.32,-0.96 2.36,-2.18 3.13,-3.68 0.77,-1.49 1.16,-3.42 1.16,-5.78z"/>
   </g>
   <path class="fil1" d="M87.8 101.92l-80.05 -42.7 4.06 -2.16 -7.75 -4.13 -4.06 2.16 0 22.96 87.8 46.83 87.79 -46.83 0 -8.27 -87.79 46.84 -39.94 -21.3 0 -6.35 39.94 21.31 0 -8.36zm-0.01 -83.93l13.52 7.22 -40.55 21.63 6.75 3.6 40.56 -21.63 33.79 18.02 -54.08 28.84 -13.51 -7.21 40.55 -21.62 -6.76 -3.61 -40.55 21.62 -33.78 -18.02 54.06 -28.84zm0 -17.99l-87.79 46.83 87.79 46.83 87.8 -46.83 -87.8 -46.83zm0.01 133.14l-80.05 -42.7 4.06 -2.16 -7.75 -4.14 -4.06 2.17 0 22.96 87.8 46.83 87.79 -46.83 0 -8.26 -87.79 46.83 -49.14 -26.21 0 -6.34 49.14 26.21 0 -8.36zm-54.99 -20.98l-5.86 -3.12 0 6.34 5.86 3.12 0 -6.34zm-2.51 -32.55l-5.85 -3.12 0 6.34 5.85 3.12 0 -6.34zm11.71 6.24l-5.85 -3.12 0 6.34 5.85 3.12 0 -6.34z"/>
  </g>
 </g>
</svg>
