<?xml version="1.0" encoding="UTF-8"?>
<!DOCTYPE svg PUBLIC "-//W3C//DTD SVG 1.1//EN" "http://www.w3.org/Graphics/SVG/1.1/DTD/svg11.dtd">
<!-- Creator: CorelDRAW -->
<svg xmlns="http://www.w3.org/2000/svg" xml:space="preserve" width="1956px" height="502px" version="1.1" style="shape-rendering:geometricPrecision; text-rendering:geometricPrecision; image-rendering:optimizeQuality; fill-rule:evenodd; clip-rule:evenodd"
viewBox="0 0 670.12 172.1"
 xmlns:xlink="http://www.w3.org/1999/xlink"
 xmlns:xodm="http://www.corel.com/coreldraw/odm/2003">
 <defs>
  <style type="text/css">
   <![CDATA[
    .fil0 {fill:white}
    .fil1 {fill:white;fill-rule:nonzero}
   ]]>
  </style>
 </defs>
 <g id="Layer_x0020_1">
  <metadata id="CorelCorpID_0Corel-Layer"/>
  <g id="_2190077228304">
   <path class="fil0" d="M87.79 117.92l-80.04 -42.7 4.06 -2.17 -7.75 -4.13 -4.06 2.17 0 22.96 87.79 46.83 87.8 -46.83 0 -8.27 -87.8 46.83 -39.93 -21.3 0 -6.34 39.93 21.3 0 -8.35zm57.41 -86.21c-4.56,2.43 1.01,-0.54 -7.95,4.23 2.65,1.42 5.3,2.83 7.95,4.24 2.65,-1.41 5.3,-2.82 7.95,-4.24 -2.65,-1.41 -5.3,-2.82 -7.95,-4.23zm-17.03 -16.66c-6.63,3.54 1.46,-0.78 -11.55,6.16 3.85,2.05 7.7,4.11 11.55,6.16 3.85,-2.05 7.7,-4.11 11.55,-6.16 -3.85,-2.05 -7.7,-4.1 -11.55,-6.16zm-26.54 -10.13c3.08,1.64 6.15,3.28 9.23,4.92 3.07,-1.64 6.15,-3.28 9.22,-4.92 -3.07,-1.64 -6.15,-3.28 -9.22,-4.92 -5.3,2.83 1.16,-0.62 -9.23,4.92zm-41.08 18.3c2.49,-1.33 5,-2.67 7.5,-4 -2.5,-1.33 -5.01,-2.67 -7.5,-4 -4.31,2.29 0.94,-0.51 -7.51,4 2.51,1.33 5,2.67 7.51,4zm13.29 -4.04c6.19,3.3 12.37,6.6 18.55,9.89 6.18,-3.29 12.36,-6.59 18.54,-9.89 -6.18,-3.3 -12.36,-6.59 -18.54,-9.89 -10.65,5.68 2.35,-1.25 -18.55,9.89zm-73.84 43.65c29.26,15.61 58.53,31.22 87.79,46.83 29.27,-15.61 58.53,-31.22 87.8,-46.83l-65.49 -34.93 -16.87 9 1.32 0.7c2.25,1.2 4.51,2.4 6.76,3.61 -6.76,3.6 -13.52,7.2 -20.28,10.81 -6.75,3.6 -13.51,7.21 -20.27,10.81 2.25,1.2 4.5,2.4 6.75,3.6 6.76,-3.6 13.52,-7.21 20.27,-10.81 6.76,-3.61 13.52,-7.21 20.29,-10.82 5.63,3.01 11.27,6.01 16.9,9.02 5.62,3 11.26,6.01 16.89,9.01 -9.02,4.81 -18.04,9.62 -27.05,14.42 -9.02,4.8 -18.02,9.61 -27.03,14.42 -4.51,-2.4 -9,-4.81 -13.51,-7.21 6.76,-3.61 13.51,-7.21 20.26,-10.81 6.76,-3.61 13.53,-7.21 20.29,-10.82 -2.25,-1.2 -4.51,-2.4 -6.76,-3.6 -6.76,3.6 -13.53,7.21 -20.29,10.81 -6.74,3.6 -13.51,7.21 -20.26,10.81 -5.63,-3 -11.26,-6 -16.89,-9.01 -5.62,-3 -11.27,-6.01 -16.89,-9.01 9.01,-4.81 18.01,-9.61 27.02,-14.42l26.2 -13.97 -11.09 -5.91 -7.14 3.81 -5.78 -3.08 -62.94 33.57zm112.27 -20.47c-2.83,-1.51 -5.66,-3.02 -8.49,-4.53 9.57,-5.11 3.62,-1.93 8.49,-4.53 2.83,1.51 5.67,3.02 8.5,4.53 -2.83,1.51 -5.67,3.02 -8.5,4.53zm-24.48 106.78l-80.04 -42.7 4.06 -2.17 -7.75 -4.13 -4.06 2.17 0 7.35 0 15.61 87.79 46.83 56.82 -30.31 7.74 -4.13 23.24 -12.39 0 -8.27 -23.24 12.4 -7.74 4.13 -56.82 30.31 -39.93 -21.31 -9.2 -4.91 0 -6.34 10.02 5.35 39.11 20.87 0 -8.36zm-54.99 -20.98l-5.85 -3.12 0 6.34 5.85 3.12 0 -6.34zm-2.5 -32.56l-5.85 -3.12 0 6.34 5.85 3.13 0 -6.35zm11.71 6.25l-5.85 -3.12 0 6.34 5.85 3.12 0 -6.34z"/>
   <g>
    <path class="fil1" d="M242.55 44.8c0.87,0 1.72,0.02 2.55,0.05l0.01 0c5.18,0.22 9.72,1.11 13.63,2.67 4.53,1.81 8.28,4.19 11.22,7.14 2.95,2.95 5.15,6.28 6.6,10 1.45,3.72 2.18,7.44 2.18,11.16l-17.96 0c0,-4.08 -1.61,-7.49 -4.83,-10.21 -3.22,-2.72 -7.69,-4.08 -13.4,-4.08 -2.36,0 -4.65,0.23 -6.87,0.68 -2.22,0.46 -4.19,1.14 -5.92,2.04 -1.72,0.91 -3.08,2.04 -4.08,3.4 -1,1.36 -1.49,2.95 -1.49,4.77 0,3.26 1.65,5.69 4.96,7.27 3.31,1.59 8.59,3.11 15.85,4.56 5.62,1.09 10.68,2.34 15.17,3.74 4.49,1.41 8.32,3.2 11.49,5.38 3.18,2.17 5.63,4.89 7.35,8.16 1.72,3.26 2.58,7.3 2.58,12.11 0,4.53 -0.9,8.63 -2.72,12.31 -1.81,3.67 -4.42,6.8 -7.82,9.39 -3.4,2.58 -7.5,4.55 -12.31,5.91 -4.81,1.36 -10.2,2.04 -16.19,2.04 -4.62,0 -9.25,-0.65 -13.88,-1.97 -4.62,-1.31 -8.77,-3.31 -12.44,-5.98 -3.68,-2.68 -6.65,-6.08 -8.91,-10.21 -2.27,-4.12 -3.4,-9.05 -3.4,-14.76l17.95 0c0,2.81 0.64,5.24 1.91,7.28 1.27,2.04 2.9,3.74 4.89,5.1 2,1.36 4.22,2.38 6.67,3.06 2.45,0.68 4.85,1.02 7.21,1.02 2.54,0 5.08,-0.22 7.62,-0.68 2.54,-0.45 4.81,-1.2 6.8,-2.24 2,-1.05 3.61,-2.36 4.83,-3.95 1.22,-1.59 1.84,-3.51 1.84,-5.78 0,-1.45 -0.34,-2.81 -1.02,-4.08 -0.68,-1.27 -1.88,-2.43 -3.61,-3.47 -1.72,-1.04 -4.01,-2.02 -6.87,-2.93 -2.85,-0.9 -6.46,-1.76 -10.81,-2.58 -4.36,-0.82 -8.64,-1.84 -12.86,-3.06 -4.22,-1.23 -7.96,-2.9 -11.22,-5.03 -3.27,-2.14 -5.92,-4.86 -7.96,-8.17 -2.04,-3.31 -3.06,-7.5 -3.06,-12.58 0,-4.08 0.86,-7.8 2.58,-11.16 1.72,-3.35 4.17,-6.23 7.35,-8.64 3.17,-2.4 6.98,-4.28 11.43,-5.64 4.44,-1.36 9.43,-2.04 14.96,-2.04z"/>
    <polygon class="fil1" points="306.58,141.66 288.63,141.66 288.63,44.85 306.58,44.85 "/>
    <path class="fil1" d="M385.58 141.59l-17.14 0 0 -7.48c-2.72,2.93 -5.89,5.17 -9.52,6.71 -3.63,1.57 -7.62,2.34 -11.97,2.34 -4.54,0 -8.82,-0.93 -12.86,-2.79 -4.03,-1.86 -7.57,-4.45 -10.61,-7.71 -3.04,-3.27 -5.44,-7.12 -7.21,-11.59 -1.77,-4.44 -2.65,-9.27 -2.65,-14.44 0,-5.17 0.88,-10.02 2.65,-14.51 1.77,-4.51 4.17,-8.39 7.21,-11.66 3.04,-3.26 6.58,-5.84 10.61,-7.7 4.04,-1.86 8.32,-2.79 12.86,-2.79 4.35,0 8.34,0.77 11.97,2.33 3.63,1.54 6.8,3.79 9.52,6.71l0 -7.48 17.14 0 0 70.06zm-17.95 -34.82c0,-2.82 -0.48,-5.42 -1.43,-7.87 -0.95,-2.45 -2.27,-4.56 -3.9,-6.37 -1.63,-1.82 -3.54,-3.22 -5.74,-4.27 -2.18,-1.04 -4.51,-1.56 -6.96,-1.56 -2.45,0 -4.78,0.52 -6.96,1.56 -2.2,1.05 -4.1,2.43 -5.74,4.2 -1.63,1.77 -2.94,3.88 -3.9,6.37 -0.95,2.49 -1.43,5.12 -1.43,7.94 0,2.81 0.48,5.39 1.43,7.8 0.96,2.38 2.27,4.46 3.9,6.23 1.64,1.77 3.54,3.13 5.74,4.13 2.18,1 4.51,1.49 6.96,1.49 2.45,0 4.78,-0.52 6.96,-1.56 2.2,-1.04 4.11,-2.43 5.74,-4.2 1.63,-1.76 2.95,-3.85 3.9,-6.23 0.95,-2.4 1.43,-4.94 1.43,-7.66z"/>
    <path class="fil1" d="M424.31 143.29c-4.72,0 -8.98,-0.77 -12.79,-2.31 -3.81,-1.54 -7.05,-3.69 -9.73,-6.44 -2.67,-2.77 -4.74,-6.03 -6.19,-9.77 -1.45,-3.76 -2.17,-7.87 -2.17,-12.29l0 -58.57 17.95 0 0 17.83 12.93 0 4.18 0 0 16.73 -4.18 0 -12.93 0 0 24.89c0,1.64 0.25,3.22 0.75,4.77 0.5,1.54 1.27,2.92 2.32,4.14 1.04,1.23 2.38,2.2 4.01,2.93 1.63,0.73 3.58,1.09 5.85,1.09l4.18 0 0 17 -4.18 0z"/>
    <path class="fil1" d="M449.08 113.64c1.18,4.35 3.33,7.75 6.46,10.2 3.13,2.45 6.83,3.67 11.09,3.67 2.99,0 5.83,-0.65 8.5,-1.97 2.68,-1.32 4.79,-3.38 6.33,-6.19l19.18 0c-2.09,7.16 -6.05,12.95 -11.9,17.35 -5.85,4.39 -13.18,6.59 -21.97,6.59 -4.9,0 -9.53,-0.95 -13.88,-2.85 -4.35,-1.91 -8.16,-4.52 -11.43,-7.83 -3.26,-3.31 -5.85,-7.18 -7.75,-11.63 -1.91,-4.44 -2.86,-9.2 -2.86,-14.28 0,-5.08 0.95,-9.87 2.86,-14.35 1.9,-4.49 4.49,-8.39 7.75,-11.7 3.27,-3.31 7.08,-5.94 11.43,-7.89 4.35,-1.95 8.98,-2.93 13.88,-2.93 5.17,0 10.04,0.98 14.62,2.93 4.58,1.95 8.5,4.8 11.77,8.57 3.26,3.76 5.71,8.36 7.34,13.8 1.64,5.45 2.14,11.61 1.5,18.51l-52.92 0zm35.1 -14.7c-1.09,-4.08 -3.2,-7.32 -6.33,-9.72 -3.13,-2.41 -6.87,-3.61 -11.22,-3.61 -4.08,0 -7.67,1.2 -10.75,3.61 -3.08,2.4 -5.26,5.64 -6.53,9.72l34.83 0z"/>
    <path class="fil1" d="M587.26 94.45c0,7.26 -1,13.79 -2.99,19.59 -2,5.81 -4.86,10.75 -8.58,14.83 -3.71,4.08 -8.2,7.24 -13.46,9.46 -5.26,2.22 -11.11,3.33 -17.55,3.33l-34.97 0 0 -94.41 34.97 0c6.53,0 12.42,1.09 17.68,3.26 5.26,2.18 9.73,5.31 13.4,9.39 3.68,4.08 6.51,9.05 8.51,14.9 1.99,5.85 2.99,12.4 2.99,19.65zm-17.96 -0.13c0,-3.45 -0.34,-6.96 -1.02,-10.54 -0.68,-3.59 -1.93,-6.85 -3.74,-9.8 -1.81,-2.95 -4.31,-5.35 -7.48,-7.21 -3.18,-1.86 -7.3,-2.79 -12.38,-2.79l-17.01 0 0 60.95 17.01 0c5.35,0 9.63,-1.07 12.85,-3.2 3.22,-2.13 5.72,-4.74 7.49,-7.82 1.76,-3.09 2.92,-6.4 3.46,-9.93 0.55,-3.54 0.82,-6.76 0.82,-9.66z"/>
    <path class="fil1" d="M670.12 113.91c0,4.26 -0.68,8.09 -2.05,11.49 -1.35,3.41 -3.33,6.31 -5.91,8.71 -2.59,2.4 -5.72,4.26 -9.39,5.58 -3.67,1.31 -7.78,1.97 -12.31,1.97l-45.98 0 0 -94.41 43.53 0c9.52,0 16.64,2.26 21.36,6.8 4.71,4.53 7.07,10.79 7.07,18.77 0,3.99 -0.81,7.55 -2.45,10.68 -1.63,3.13 -3.9,5.74 -6.8,7.83 4.08,2.08 7.26,5.01 9.53,8.77 2.26,3.76 3.4,8.37 3.4,13.81zm-57.69 -50.34l0 20.82 25.58 0c3.08,0 5.69,-0.96 7.82,-2.86 2.13,-1.9 3.2,-4.44 3.2,-7.62 0,-3.17 -0.98,-5.69 -2.93,-7.55 -1.95,-1.86 -4.64,-2.79 -8.09,-2.79l-25.58 0zm39.32 49.66c0,-3.99 -1.2,-7.05 -3.6,-9.19 -2.41,-2.13 -5.92,-3.19 -10.55,-3.19l-25.17 0 0 24.35 25.58 0c1.72,0 3.4,-0.18 5.03,-0.54 1.64,-0.37 3.11,-1.02 4.42,-1.98 1.32,-0.95 2.36,-2.17 3.13,-3.67 0.77,-1.5 1.16,-3.42 1.16,-5.78z"/>
   </g>
  </g>
 </g>
</svg>
