<?xml version="1.0" encoding="UTF-8"?>
<!DOCTYPE svg PUBLIC "-//W3C//DTD SVG 1.1//EN" "http://www.w3.org/Graphics/SVG/1.1/DTD/svg11.dtd">
<!-- Creator: CorelDRAW -->
<svg xmlns="http://www.w3.org/2000/svg" xml:space="preserve" width="1956px" height="455px" version="1.1" style="shape-rendering:geometricPrecision; text-rendering:geometricPrecision; image-rendering:optimizeQuality; fill-rule:evenodd; clip-rule:evenodd"
viewBox="0 0 1183.36 275.39"
 xmlns:xlink="http://www.w3.org/1999/xlink"
 xmlns:xodm="http://www.corel.com/coreldraw/odm/2003">
 <defs>
  <style type="text/css">
   <![CDATA[
    .fil0 {fill:black}
    .fil1 {fill:black;fill-rule:nonzero}
   ]]>
  </style>
 </defs>
 <g id="Layer_x0020_1">
  <metadata id="CorelCorpID_0Corel-Layer"/>
  <g id="_2189493949488">
   <path class="fil0" d="M216.4 106.2c-1.49,1.47 -3.6,2.96 -6.39,4.45 -11.28,6.02 -22.58,12.04 -33.88,18.07 -11.29,6.01 -22.58,12.04 -33.87,18.06 -1.08,0.58 -2.32,0.57 -3.45,-0.04 -2.53,-1.35 -5.06,-2.7 -7.59,-4.05 -0.81,-0.43 -1.06,-0.89 -0.74,-1.33 0.12,-0.17 0.34,-0.34 0.65,-0.51 10.95,-5.84 21.9,-11.68 32.84,-17.52 10.95,-5.84 21.91,-11.68 32.86,-17.52 6.96,-3.71 5.2,-7.34 -1.13,-10.72 -2.52,-1.34 -5.04,-2.7 -7.57,-4.05 -6.96,-3.7 -13.38,-4.07 -19.98,-0.54 -8.11,4.33 -16.23,8.66 -24.35,12.98 -8.11,4.32 -16.23,8.66 -24.33,12.98 -9.71,5.18 -19.83,6.1 -29.88,3.09 -2.97,-0.89 -5.94,-2.13 -8.89,-3.7 -3.08,-1.64 -6.15,-3.28 -9.22,-4.92 -2.79,-1.49 -5.05,-3.03 -6.68,-4.61 -3.76,-3.65 -4.18,-7.51 -0.17,-11.46 1.5,-1.49 3.63,-2.98 6.44,-4.48 10.76,-5.74 21.53,-11.49 32.29,-17.23 10.78,-5.75 21.56,-11.48 32.33,-17.24 0.88,-0.46 1.78,-0.58 2.64,-0.37 0.32,0.08 0.62,0.19 0.92,0.35 2.53,1.35 5.06,2.7 7.59,4.05 1.13,0.61 1.17,1.26 -0.03,1.9 -10.47,5.57 -20.9,11.15 -31.36,16.73 -10.46,5.57 -20.9,11.14 -31.36,16.72 -6.95,3.71 -5.16,7.35 1.15,10.71 2.17,1.16 4.3,2.3 6.44,3.44 6.96,3.71 13.38,4.06 19.96,0.55 8.11,-4.33 16.23,-8.65 24.35,-12.98 8.11,-4.32 16.23,-8.66 24.34,-12.99 9.72,-5.19 19.88,-6.1 29.94,-3.08 2.97,0.9 5.92,2.13 8.86,3.7 3.45,1.84 6.9,3.68 10.35,5.52 2.78,1.48 5.03,3.01 6.66,4.58 3.77,3.66 4.22,7.52 0.26,11.46zm-91.84 -77.05c7.76,4.14 15.52,8.28 23.28,12.43 7.77,-4.15 15.53,-8.29 23.29,-12.43 -7.76,-4.14 -15.52,-8.28 -23.29,-12.42 -13.36,7.13 2.95,-1.57 -23.28,12.42zm15.93 209.51l-128.1 -68.33 6.5 -3.47 -12.39 -6.61 -6.5 3.47 0 11.76 0 24.98 140.49 74.94 90.91 -48.5 12.4 -6.61 37.18 -19.83 0 -13.22 -37.18 19.83 -12.4 6.61 -90.91 48.49 -63.9 -34.08 -14.73 -7.86 0 -10.15 16.04 8.56 62.59 33.39 0 -13.37zm-97.36 -28.42l0 -10.15 9.37 5 0 10.14 -9.37 -4.99zm97.36 -21.54l-128.1 -68.33 6.5 -3.47 -12.39 -6.61 -6.5 3.47 0 36.74 140.49 74.94 140.49 -74.94 0 -13.23 -140.49 74.94 -63.9 -34.08 0 -10.15 63.9 34.09 0 -13.37zm-101.36 -30.56l0 -10.15 9.36 5 0 10.15 -9.36 -5zm18.73 9.99l0 -10.14 9.36 4.99 0 10.15 -9.36 -5zm38.31 -144.16c-7.3,3.9 1.61,-0.86 -12.72,6.79 4.24,2.26 8.48,4.52 12.72,6.78 4.24,-2.26 8.48,-4.52 12.72,-6.78 -4.24,-2.26 -8.48,-4.53 -12.72,-6.79zm136.18 26.77c-7.3,3.89 1.61,-0.86 -12.72,6.78 4.24,2.26 8.48,4.52 12.72,6.78 4.24,-2.26 8.48,-4.52 12.72,-6.78 -4.24,-2.26 -8.48,-4.52 -12.72,-6.78zm-27.25 -26.65c-10.61,5.65 2.34,-1.25 -18.49,9.85 6.17,3.29 12.33,6.58 18.49,9.86 6.16,-3.28 12.32,-6.57 18.48,-9.86 -6.16,-3.28 -12.32,-6.57 -18.48,-9.85zm-42.47 -16.22c4.92,2.63 9.84,5.26 14.76,7.88 4.92,-2.62 9.85,-5.25 14.77,-7.88 -4.92,-2.62 -9.85,-5.25 -14.77,-7.87 -8.47,4.52 1.87,-1 -14.76,7.87zm-61.92 38.95l-100.71 53.72c46.83,24.98 93.66,49.96 140.49,74.94l93.82 -50.05 38.44 -20.5 8.23 -4.39 -104.79 -55.9 -5.27 -2.8c-7.69,4.1 -15.38,8.21 -23.08,12.31 -10.14,-5.41 -20.28,-10.83 -30.43,-16.24l-16.7 8.91zm92.55 13.72c-4.53,2.42 -9.07,4.84 -13.6,7.25 -4.53,-2.41 -9.06,-4.83 -13.59,-7.25 15.31,-8.17 5.79,-3.09 13.59,-7.25 4.53,2.42 9.07,4.83 13.6,7.25z"/>
   <path class="fil1" d="M357.19 93.37c-19.86,0 -27.95,10.9 -27.95,27.07l0 12.83c0,17.93 9.14,27.78 27.6,27.78l71.37 0c9.66,0 13.88,4.92 13.88,14.59l0 10.54c0,8.79 -3.69,14.77 -13.88,14.77l-96.33 0c-1.58,0 -2.46,0.88 -2.46,2.46l0 10.55c0,1.58 0.88,2.46 2.46,2.46l99.31 0c19.69,0 27.78,-10.9 27.78,-27.07l0 -14.42c0,-17.93 -9.14,-27.77 -27.6,-27.77l-71.37 0c-9.67,0 -13.88,-4.92 -13.88,-14.59l0 -8.97c0,-8.78 3.69,-14.76 13.88,-14.76l91.94 0c1.75,0 2.63,-0.88 2.63,-2.46l0 -10.55c0,-1.58 -0.88,-2.46 -2.63,-2.46l-94.75 0zm126.03 -8.79c-1.75,0 -2.63,0.88 -2.63,2.46l0 126.92c0,1.58 0.88,2.46 2.63,2.46l10.73 0c1.75,0 2.46,-0.88 2.46,-2.46l0 -126.92c0,-1.58 -0.71,-2.46 -2.46,-2.46l-10.73 0zm38.5 38.15c-1.41,0 -2.11,0.52 -2.11,2.1l0 9.32c0,1.41 0.7,2.11 2.11,2.11l73.83 0c20.39,0 26.54,5.98 26.54,21.62l0 4.75 -78.75 0c-20.39,0 -26.54,7.91 -26.54,22.32l0 7.21c0,16.87 6.15,24.26 26.54,24.26l81.91 0c9.85,0 12.66,-2.46 12.66,-13.71l0 -45.53c0,-24.79 -10.02,-34.45 -40.96,-34.45l-75.23 0zm93.51 81.03l-67.85 0c-11.42,0 -15.11,-4.04 -15.11,-13.54l0 -4.57c0,-8.08 3.69,-12.65 15.11,-12.65l74.71 0 0 23.38c0,5.8 -1.76,7.38 -6.86,7.38zm37.27 -81.03c-1.41,0 -2.11,0.52 -2.11,2.1l0 9.15c0,1.4 0.7,2.1 2.11,2.1l17.4 0 0 46.23c0,24.26 7.21,34.11 34.81,34.11l19.16 0c1.4,0 2.11,-0.71 2.11,-2.11l0 -9.14c0,-1.41 -0.71,-2.11 -2.11,-2.11l-16.88 0c-16.7,0 -21.27,-6.16 -21.27,-20.75l0 -46.23 37.09 0c1.41,0 2.11,-0.7 2.11,-2.1l0 -9.15c0,-1.58 -0.7,-2.1 -2.11,-2.1l-37.09 0 0 -24.09c0,-1.58 -0.88,-2.46 -2.63,-2.46l-10.73 0c-1.75,0 -2.46,0.88 -2.46,2.46l0 24.09 -17.4 0zm126.39 0c-30.94,0 -40.78,9.66 -40.78,34.45l0 24.61c0,24.78 9.84,34.63 40.78,34.63l75.23 0c1.41,0 2.11,-0.71 2.11,-2.11l0 -9.32c0,-1.41 -0.7,-2.11 -2.11,-2.11l-73.83 0c-20.39,0 -26.36,-6.15 -26.36,-21.62l0 -6.5 95.44 0c6.68,0 9.85,-2.46 9.85,-9.67l0 -14.42c0,-20.74 -6.33,-27.94 -29.88,-27.94l-50.45 0zm-24.96 34.27c0,-15.64 5.97,-21.79 26.36,-21.79l46.41 0c13.18,0 16.87,4.21 16.87,15.82l0 9.14c0,2.98 -1.4,4.04 -4.22,4.04l-85.42 0 0 -7.21zm130.6 -63.63c-3.52,0 -5.27,1.76 -5.27,5.27l0 112.5c0,3.52 1.75,5.28 5.27,5.28l82.27 0c38.14,0 53.78,-15.3 53.78,-49.57l0 -23.91c0,-34.28 -15.64,-49.57 -53.78,-49.57l-82.27 0zm21.62 26.89c0,-1.75 0.7,-2.46 2.29,-2.46l57.65 0c20.74,0 27.6,6.68 27.6,27.43l0 19.33c0,20.74 -6.86,27.42 -27.6,27.42l-57.65 0c-1.59,0 -2.29,-0.7 -2.29,-2.28l0 -69.44zm141.68 -26.89c-3.52,0 -5.27,1.76 -5.27,5.27l0 112.5c0,3.52 1.75,5.28 5.27,5.28l104.41 0c23.38,0 31.12,-11.78 31.12,-30.41l0 -10.2c0,-10.37 -3.87,-17.93 -12.13,-22.68 7.38,-4.92 11.25,-12.3 11.25,-22.32l0 -8.44c0,-19.51 -9.14,-29 -33.4,-29l-101.25 0zm93.69 70.31c11.6,0 15.29,3.87 15.29,11.08l0 6.68c0,7.38 -3.69,10.72 -13,10.72l-72.07 0c-1.59,0 -2.29,-0.7 -2.29,-2.29l0 -26.19 72.07 0zm-72.07 -43.77c0,-1.58 0.7,-2.28 2.29,-2.28l71.89 0c9.14,0 13.01,3.34 13.01,10.54l0 5.98c0,6.86 -3.52,10.37 -15.12,10.37l-72.07 0 0 -24.61z"/>
  </g>
 </g>
</svg>
