<?xml version="1.0" encoding="UTF-8"?>
<!DOCTYPE svg PUBLIC "-//W3C//DTD SVG 1.1//EN" "http://www.w3.org/Graphics/SVG/1.1/DTD/svg11.dtd">
<!-- Creator: CorelDRAW -->
<svg xmlns="http://www.w3.org/2000/svg" xml:space="preserve" width="1956px" height="487px" version="1.1" style="shape-rendering:geometricPrecision; text-rendering:geometricPrecision; image-rendering:optimizeQuality; fill-rule:evenodd; clip-rule:evenodd"
viewBox="0 0 424.65 105.66"
 xmlns:xlink="http://www.w3.org/1999/xlink"
 xmlns:xodm="http://www.corel.com/coreldraw/odm/2003">
 <defs>
  <style type="text/css">
   <![CDATA[
    .fil0 {fill:black}
    .fil1 {fill:black;fill-rule:nonzero}
   ]]>
  </style>
 </defs>
 <g id="Layer_x0020_1">
  <metadata id="CorelCorpID_0Corel-Layer"/>
  <g id="_2190028819824">
   <path class="fil0" d="M47.79 11.18c2.98,1.59 5.96,3.18 8.93,4.77 2.98,-1.59 5.96,-3.18 8.94,-4.77 -2.98,-1.58 -5.96,-3.17 -8.94,-4.76 -5.13,2.73 1.13,-0.61 -8.93,4.76zm-19.4 31.12c3.05,1.62 7.34,1.81 12.85,0.6 1.23,-0.27 2.97,-0.73 5.21,-1.41 2.25,-0.68 5,-1.57 8.27,-2.67 2.76,-0.93 5.19,-1.7 7.29,-2.3 2.09,-0.6 3.87,-1.04 5.31,-1.31 2.9,-0.55 5.26,-0.32 7.1,0.66 1.92,1.01 2.39,2.4 1.41,4.15 -0.97,1.75 -3.36,3.64 -7.18,5.68 -1.95,1.04 -3.89,1.91 -5.8,2.6 -1.9,0.69 -3.79,1.21 -5.64,1.55 -3.72,0.67 -7.13,0.68 -10.24,0.02 -0.87,1.09 -1.75,2.18 -2.63,3.28 3.99,0.73 8.43,0.6 13.3,-0.37 2.44,-0.49 4.87,-1.17 7.25,-2.04 2.39,-0.87 4.76,-1.93 7.11,-3.18 2.59,-1.39 4.71,-2.75 6.35,-4.1 1.64,-1.35 2.81,-2.7 3.5,-4.02 1.39,-2.65 0.6,-4.78 -2.38,-6.37 -0.91,-0.48 -1.94,-0.83 -3.1,-1.06 -1.15,-0.22 -2.24,-0.35 -3.26,-0.4 -1.02,-0.05 -2.33,0.06 -3.92,0.32 -1.61,0.27 -2.94,0.51 -3.98,0.73 -1.06,0.23 -2.56,0.64 -4.52,1.24 -1.96,0.6 -3.44,1.06 -4.43,1.39 -0.99,0.34 -2.64,0.86 -4.93,1.64 -4.97,1.67 -8.76,2.76 -11.4,3.23 -2.62,0.48 -4.81,0.25 -6.55,-0.68 -1.91,-1.02 -2.42,-2.34 -1.54,-3.95 0.88,-1.61 2.91,-3.27 6.09,-4.97 3.04,-1.61 6.09,-2.72 9.16,-3.32 3.08,-0.61 6.17,-0.71 9.3,-0.3 0.88,-1.06 1.77,-2.12 2.66,-3.19 -3.63,-0.42 -7.62,-0.22 -11.98,0.58 -2.18,0.4 -4.32,0.97 -6.41,1.71 -2.09,0.73 -4.13,1.63 -6.14,2.7 -2.23,1.19 -4.05,2.4 -5.49,3.63 -1.44,1.23 -2.49,2.47 -3.15,3.74 -1.31,2.53 -0.46,4.6 2.51,6.19zm25.51 49.27l-49.14 -26.22 2.49 -1.33 -4.76 -2.54 -2.49 1.33 0 4.52 0 9.58 53.9 28.75 34.88 -18.61 4.76 -2.53 14.26 -7.61 0 -5.07 -14.26 7.61 -4.76 2.53 -34.88 18.61 -24.51 -13.08 -5.66 -3.01 0 -3.9 6.16 3.28 24.01 12.82 0 -5.13zm-37.35 -10.91l0 -3.89 3.59 1.92 0 3.89 -3.59 -1.92zm37.35 -8.26l-49.14 -26.22 2.49 -1.33 -4.76 -2.53 -2.49 1.33 0 14.09 53.9 28.75 53.9 -28.75 0 -5.07 -53.9 28.75 -24.51 -13.08 0 -3.89 24.51 13.08 0 -5.13zm-38.89 -11.73l0 -3.89 3.59 1.92 0 3.89 -3.59 -1.92zm7.19 3.84l0 -3.9 3.59 1.92 0 3.9 -3.59 -1.92zm14.7 -55.31c-2.8,1.49 0.62,-0.33 -4.88,2.6 1.63,0.87 3.25,1.74 4.88,2.6 1.62,-0.86 3.25,-1.73 4.88,-2.6 -1.63,-0.87 -3.26,-1.74 -4.88,-2.6zm52.25 10.27c-2.81,1.49 0.61,-0.33 -4.88,2.6 1.62,0.87 3.25,1.73 4.88,2.6 1.62,-0.87 3.25,-1.73 4.87,-2.6 -1.62,-0.87 -3.25,-1.74 -4.87,-2.6zm-10.46 -10.23c-4.07,2.17 0.9,-0.48 -7.09,3.78 2.36,1.26 4.73,2.52 7.09,3.79 2.36,-1.27 4.73,-2.53 7.09,-3.79 -2.36,-1.26 -4.73,-2.52 -7.09,-3.78zm-16.29 -6.22c1.89,1.01 3.77,2.02 5.66,3.02 1.89,-1 3.78,-2.01 5.66,-3.02 -1.88,-1 -3.77,-2.01 -5.66,-3.02 -3.25,1.73 0.72,-0.38 -5.66,3.02zm-23.76 14.94l-38.64 20.61c17.97,9.59 35.93,19.17 53.9,28.76l36 -19.21 14.75 -7.86 3.15 -1.69 -40.2 -21.44 -2.02 -1.08c-2.95,1.58 -5.91,3.15 -8.86,4.73 -3.89,-2.08 -7.78,-4.16 -11.67,-6.23l-6.41 3.41zm35.51 5.27c-1.74,0.92 -3.48,1.85 -5.22,2.78 -1.74,-0.93 -3.48,-1.86 -5.22,-2.78 5.88,-3.14 2.23,-1.19 5.22,-2.78 1.74,0.92 3.48,1.85 5.22,2.78z"/>
   <path class="fil1" d="M152.79 86.59c-5.21,0 -9.67,-1.24 -13.39,-3.71 -3.71,-2.47 -6.3,-5.87 -7.77,-10.21l4.88 -2.85c1.04,3.53 2.93,6.28 5.7,8.26 2.77,1.98 6.32,2.97 10.66,2.97 4.24,0 7.53,-0.94 9.89,-2.81 2.36,-1.87 3.55,-4.35 3.55,-7.45 0,-2.98 -1.09,-5.23 -3.26,-6.75 -2.17,-1.52 -5.75,-3.09 -10.74,-4.72 -5.92,-1.96 -9.83,-3.53 -11.73,-4.72 -4.34,-2.61 -6.51,-6.38 -6.51,-11.32 0,-4.83 1.68,-8.64 5.05,-11.43 3.36,-2.8 7.51,-4.19 12.45,-4.19 4.45,0 8.3,1.15 11.56,3.45 3.26,2.31 5.67,5.25 7.24,8.84l-4.8 2.68c-2.6,-6.29 -7.27,-9.44 -14,-9.44 -3.52,0 -6.37,0.87 -8.54,2.6 -2.17,1.74 -3.26,4.16 -3.26,7.25 0,2.82 0.98,4.94 2.93,6.35 1.95,1.41 5.18,2.85 9.69,4.31 2.06,0.71 3.54,1.21 4.43,1.51 0.9,0.3 2.2,0.78 3.91,1.46 1.71,0.68 2.97,1.28 3.78,1.79 0.82,0.52 1.81,1.22 2.98,2.12 1.16,0.9 2,1.79 2.52,2.69 0.51,0.89 0.98,1.98 1.38,3.25 0.41,1.28 0.61,2.65 0.61,4.11 0,4.83 -1.76,8.7 -5.29,11.6 -3.52,2.9 -8.16,4.36 -13.92,4.36zm28.17 -0.98l0 -59.42 5.37 0 0 59.42 -5.37 0zm51.76 -40.7l5.38 0 0 40.7 -5.38 0 0 -7.98c-3.74,5.97 -9.22,8.96 -16.44,8.96 -5.8,0 -10.76,-2.07 -14.85,-6.19 -4.1,-4.12 -6.15,-9.17 -6.15,-15.14 0,-5.97 2.05,-11.02 6.15,-15.14 4.09,-4.12 9.05,-6.19 14.85,-6.19 7.22,0 12.7,2.99 16.44,8.96l0 -7.98zm-27.43 31.79c3.1,3.12 6.89,4.68 11.4,4.68 4.5,0 8.3,-1.56 11.39,-4.68 3.1,-3.12 4.64,-6.94 4.64,-11.44 0,-4.5 -1.54,-8.32 -4.64,-11.44 -3.09,-3.12 -6.89,-4.68 -11.39,-4.68 -4.51,0 -8.3,1.56 -11.4,4.68 -3.09,3.12 -4.64,6.94 -4.64,11.44 0,4.5 1.55,8.32 4.64,11.44zm65.77 -26.58l-11.72 0 0 24.66c0,2.23 0.43,3.82 1.3,4.76 0.87,0.95 2.17,1.44 3.91,1.47 1.74,0.03 3.91,-0.01 6.51,-0.12l0 4.72c-5.7,0.87 -9.97,0.46 -12.82,-1.22 -2.85,-1.68 -4.27,-4.89 -4.27,-9.61l0 -24.66 -8.55 0 0 -5.21 8.55 0 0 -9.77 5.37 -1.62 0 11.39 11.72 0 0 5.21zm25.31 -6.19c6.03,0 10.9,2.13 14.61,6.39 3.72,4.26 5.58,9.3 5.58,15.1 0,0.6 -0.05,1.44 -0.16,2.53l-35.73 0c0.54,4.12 2.29,7.39 5.25,9.8 2.95,2.42 6.6,3.63 10.94,3.63 3.1,0 5.77,-0.64 8.02,-1.92 2.25,-1.27 3.95,-2.94 5.09,-5l4.72 2.77c-1.79,2.87 -4.23,5.15 -7.33,6.83 -3.09,1.68 -6.62,2.53 -10.58,2.53 -6.4,0 -11.61,-2.01 -15.63,-6.03 -4.01,-4.01 -6.02,-9.11 -6.02,-15.3 0,-6.08 1.98,-11.15 5.94,-15.22 3.96,-4.07 9.06,-6.11 15.3,-6.11zm0 5.21c-4.23,0 -7.77,1.27 -10.62,3.79 -2.85,2.52 -4.54,5.79 -5.08,9.81l30.36 0c-0.55,-4.29 -2.2,-7.63 -4.97,-10.02 -2.77,-2.38 -6,-3.58 -9.69,-3.58zm50.96 -20.51c7.81,0 14.34,2.74 19.57,8.22 5.24,5.48 7.86,12.24 7.86,20.27 0,8.03 -2.62,14.79 -7.86,20.27 -5.23,5.48 -11.76,8.22 -19.57,8.22l-22.63 0 0 -56.98 22.63 0zm0 46.23c4.94,0 8.95,-1.64 12.04,-4.92 3.1,-3.28 4.64,-7.56 4.64,-12.82 0,-5.26 -1.54,-9.54 -4.64,-12.82 -3.09,-3.28 -7.1,-4.92 -12.04,-4.92l-11.4 0 0 35.48 11.4 0zm69.84 -18.8c4.99,2.88 7.48,7.22 7.48,13.03 0,4.82 -1.71,8.79 -5.12,11.88 -3.42,3.09 -7.63,4.64 -12.62,4.64l-24.17 0 0 -56.98 22.46 0c4.88,0 8.99,1.51 12.33,4.52 3.34,3.01 5.01,6.85 5.01,11.52 0,4.72 -1.79,8.52 -5.37,11.39zm-11.97 -16.93l-11.23 0 0 12.54 11.23 0c1.74,0 3.19,-0.6 4.35,-1.79 1.17,-1.2 1.76,-2.69 1.76,-4.48 0,-1.79 -0.57,-3.28 -1.71,-4.48 -1.14,-1.19 -2.61,-1.79 -4.4,-1.79zm1.71 35.98c1.9,0 3.47,-0.64 4.72,-1.91 1.25,-1.28 1.87,-2.89 1.87,-4.85 0,-1.9 -0.62,-3.48 -1.87,-4.76 -1.25,-1.27 -2.82,-1.91 -4.72,-1.91l-12.94 0 0 13.43 12.94 0z"/>
  </g>
 </g>
</svg>
