<?xml version="1.0" encoding="UTF-8"?>
<!DOCTYPE svg PUBLIC "-//W3C//DTD SVG 1.1//EN" "http://www.w3.org/Graphics/SVG/1.1/DTD/svg11.dtd">
<!-- Creator: CorelDRAW -->
<svg xmlns="http://www.w3.org/2000/svg" xml:space="preserve" width="1956px" height="455px" version="1.1" style="shape-rendering:geometricPrecision; text-rendering:geometricPrecision; image-rendering:optimizeQuality; fill-rule:evenodd; clip-rule:evenodd"
viewBox="0 0 578.29 134.58"
 xmlns:xlink="http://www.w3.org/1999/xlink"
 xmlns:xodm="http://www.corel.com/coreldraw/odm/2003">
 <defs>
  <style type="text/css">
   <![CDATA[
    .fil0 {fill:white}
    .fil1 {fill:white;fill-rule:nonzero}
   ]]>
  </style>
 </defs>
 <g id="Layer_x0020_1">
  <metadata id="CorelCorpID_0Corel-Layer"/>
  <g id="_2189761388256">
   <path class="fil0" d="M105.75 51.9c-0.73,0.72 -1.76,1.45 -3.12,2.17 -5.52,2.95 -11.03,5.89 -16.56,8.83 -5.52,2.94 -11.03,5.89 -16.55,8.83 -0.53,0.28 -1.13,0.28 -1.69,-0.02 -1.23,-0.66 -2.47,-1.32 -3.71,-1.98 -0.39,-0.21 -0.51,-0.43 -0.36,-0.65 0.06,-0.08 0.17,-0.17 0.32,-0.25 5.35,-2.85 10.71,-5.71 16.05,-8.56 5.35,-2.85 10.71,-5.71 16.06,-8.56 3.4,-1.82 2.54,-3.59 -0.55,-5.24 -1.23,-0.65 -2.47,-1.32 -3.71,-1.98 -3.39,-1.81 -6.53,-1.99 -9.76,-0.27 -3.96,2.12 -7.93,4.24 -11.9,6.35 -3.96,2.11 -7.93,4.23 -11.89,6.34 -4.74,2.53 -9.69,2.98 -14.6,1.51 -1.45,-0.43 -2.9,-1.04 -4.34,-1.81 -1.51,-0.8 -3.01,-1.6 -4.51,-2.4 -1.36,-0.73 -2.47,-1.48 -3.26,-2.25 -1.84,-1.78 -2.05,-3.67 -0.09,-5.61 0.74,-0.72 1.78,-1.45 3.15,-2.18 5.26,-2.81 10.52,-5.62 15.78,-8.42 5.27,-2.81 10.54,-5.61 15.8,-8.43 0.43,-0.22 0.87,-0.28 1.29,-0.18 0.15,0.04 0.3,0.1 0.45,0.17 1.24,0.66 2.47,1.32 3.71,1.98 0.55,0.3 0.57,0.62 -0.02,0.93 -5.11,2.72 -10.21,5.45 -15.32,8.17 -5.11,2.73 -10.21,5.45 -15.32,8.18 -3.4,1.81 -2.53,3.59 0.56,5.23 1.05,0.57 2.1,1.12 3.14,1.68 3.4,1.81 6.54,1.99 9.76,0.27 3.96,-2.11 7.93,-4.23 11.9,-6.34 3.96,-2.11 7.93,-4.24 11.89,-6.35 4.75,-2.54 9.71,-2.98 14.63,-1.5 1.45,0.43 2.9,1.03 4.33,1.8 1.69,0.9 3.38,1.8 5.06,2.7 1.36,0.72 2.46,1.47 3.25,2.24 1.85,1.78 2.07,3.67 0.13,5.6zm-44.88 -37.66c3.79,2.03 7.59,4.05 11.38,6.08 3.79,-2.03 7.58,-4.05 11.38,-6.08 -3.8,-2.02 -7.59,-4.04 -11.38,-6.06 -6.53,3.48 1.44,-0.77 -11.38,6.06zm7.79 102.39l-62.6 -33.39 3.17 -1.7 -6.05 -3.23 -3.18 1.7 0 5.74 0 12.21 68.66 36.62 44.42 -23.7 6.06 -3.23 18.17 -9.69 0 -6.46 -18.17 9.69 -6.06 3.23 -44.42 23.7 -31.23 -16.66 -7.2 -3.84 0 -4.96 7.84 4.19 30.59 16.31 0 -6.53zm-47.58 -13.89l0 -4.96 4.57 2.44 0 4.96 -4.57 -2.44zm47.58 -10.52l-62.6 -33.4 3.17 -1.69 -6.05 -3.23 -3.18 1.69 0 17.96 68.66 36.62 68.65 -36.62 0 -6.47 -68.65 36.63 -31.23 -16.66 0 -4.96 31.23 16.66 0 -6.53zm-49.54 -14.94l0 -4.96 4.58 2.44 0 4.96 -4.58 -2.44zm9.15 4.89l0 -4.96 4.58 2.44 0 4.96 -4.58 -2.44zm18.73 -70.45c-3.57,1.9 0.78,-0.42 -6.22,3.31 2.07,1.1 4.15,2.21 6.22,3.32 2.07,-1.11 4.14,-2.22 6.21,-3.32 -2.07,-1.1 -4.14,-2.21 -6.21,-3.31zm66.55 13.07c-3.57,1.91 0.78,-0.42 -6.22,3.32 2.07,1.1 4.14,2.21 6.22,3.31 2.07,-1.1 4.14,-2.21 6.21,-3.31 -2.07,-1.1 -4.14,-2.21 -6.21,-3.32zm-13.32 -13.02c-5.19,2.77 1.14,-0.61 -9.03,4.82 3.01,1.6 6.02,3.21 9.03,4.82 3.01,-1.61 6.02,-3.22 9.03,-4.82 -3.01,-1.61 -6.02,-3.21 -9.03,-4.82zm-20.75 -7.92c2.4,1.28 4.81,2.56 7.21,3.85 2.4,-1.29 4.81,-2.57 7.21,-3.85 -2.4,-1.28 -4.81,-2.57 -7.21,-3.85 -4.14,2.21 0.91,-0.49 -7.21,3.85zm-30.26 19.03l-49.22 26.25c22.88,12.21 45.77,24.42 68.65,36.62l45.85 -24.45 18.79 -10.02 4.02 -2.15 -51.21 -27.31 -2.57 -1.38c-3.76,2.01 -7.52,4.02 -11.28,6.02 -4.96,-2.64 -9.91,-5.29 -14.87,-7.93l-8.16 4.35zm45.22 6.7c-2.21,1.19 -4.43,2.37 -6.64,3.55 -2.22,-1.18 -4.43,-2.36 -6.65,-3.55 7.49,-3.99 2.83,-1.51 6.65,-3.54 2.21,1.18 4.43,2.36 6.64,3.54z"/>
   <path class="fil1" d="M174.55 45.63c-9.7,0 -13.65,5.32 -13.65,13.23l0 6.27c0,8.76 4.46,13.57 13.48,13.57l34.88 0c4.72,0 6.78,2.41 6.78,7.13l0 5.15c0,4.3 -1.8,7.22 -6.78,7.22l-47.08 0c-0.77,0 -1.2,0.43 -1.2,1.2l0 5.16c0,0.77 0.43,1.2 1.2,1.2l48.54 0c9.62,0 13.57,-5.33 13.57,-13.23l0 -7.04c0,-8.76 -4.47,-13.58 -13.49,-13.58l-34.87 0c-4.73,0 -6.79,-2.4 -6.79,-7.13l0 -4.38c0,-4.29 1.81,-7.21 6.79,-7.21l44.92 0c0.86,0 1.29,-0.43 1.29,-1.2l0 -5.16c0,-0.77 -0.43,-1.2 -1.29,-1.2l-46.3 0zm61.59 -4.3c-0.85,0 -1.28,0.43 -1.28,1.21l0 62.02c0,0.77 0.43,1.2 1.28,1.2l5.24 0c0.86,0 1.21,-0.43 1.21,-1.2l0 -62.02c0,-0.78 -0.35,-1.21 -1.21,-1.21l-5.24 0zm18.82 18.64c-0.69,0 -1.03,0.26 -1.03,1.03l0 4.56c0,0.69 0.34,1.03 1.03,1.03l36.08 0c9.96,0 12.97,2.92 12.97,10.56l0 2.32 -38.49 0c-9.96,0 -12.97,3.87 -12.97,10.91l0 3.52c0,8.25 3.01,11.86 12.97,11.86l40.03 0c4.81,0 6.19,-1.2 6.19,-6.7l0 -22.25c0,-12.11 -4.9,-16.84 -20.02,-16.84l-36.76 0zm45.7 39.6l-33.16 0c-5.58,0 -7.39,-1.97 -7.39,-6.61l0 -2.23c0,-3.95 1.81,-6.19 7.39,-6.19l36.51 0 0 11.43c0,2.83 -0.86,3.6 -3.35,3.6zm18.21 -39.6c-0.69,0 -1.03,0.26 -1.03,1.03l0 4.47c0,0.69 0.34,1.03 1.03,1.03l8.5 0 0 22.59c0,11.86 3.52,16.67 17.01,16.67l9.36 0c0.69,0 1.03,-0.34 1.03,-1.03l0 -4.47c0,-0.69 -0.34,-1.03 -1.03,-1.03l-8.24 0c-8.16,0 -10.4,-3.01 -10.4,-10.14l0 -22.59 18.13 0c0.69,0 1.03,-0.34 1.03,-1.03l0 -4.47c0,-0.77 -0.34,-1.03 -1.03,-1.03l-18.13 0 0 -11.76c0,-0.78 -0.43,-1.21 -1.29,-1.21l-5.24 0c-0.85,0 -1.2,0.43 -1.2,1.21l0 11.76 -8.5 0zm61.76 0c-15.12,0 -19.93,4.73 -19.93,16.84l0 12.03c0,12.11 4.81,16.92 19.93,16.92l36.77 0c0.68,0 1.03,-0.34 1.03,-1.03l0 -4.55c0,-0.69 -0.35,-1.03 -1.03,-1.03l-36.08 0c-9.97,0 -12.89,-3.01 -12.89,-10.57l0 -3.18 46.65 0c3.26,0 4.81,-1.2 4.81,-4.72l0 -7.05c0,-10.13 -3.09,-13.66 -14.61,-13.66l-24.65 0zm-12.2 16.76c0,-7.65 2.92,-10.66 12.89,-10.66l22.68 0c6.44,0 8.24,2.06 8.24,7.73l0 4.47c0,1.46 -0.68,1.98 -2.06,1.98l-41.75 0 0 -3.52zm63.83 -31.1c-1.72,0 -2.58,0.86 -2.58,2.58l0 54.97c0,1.72 0.86,2.58 2.58,2.58l40.2 0c18.64,0 26.29,-7.47 26.29,-24.22l0 -11.69c0,-16.75 -7.65,-24.22 -26.29,-24.22l-40.2 0zm10.56 13.14c0,-0.86 0.35,-1.2 1.12,-1.2l28.18 0c10.13,0 13.48,3.26 13.48,13.4l0 9.45c0,10.14 -3.35,13.4 -13.48,13.4l-28.18 0c-0.77,0 -1.12,-0.34 -1.12,-1.12l0 -33.93zm69.24 -13.14c-1.72,0 -2.58,0.86 -2.58,2.58l0 54.97c0,1.72 0.86,2.58 2.58,2.58l51.02 0c11.43,0 15.21,-5.76 15.21,-14.86l0 -4.98c0,-5.07 -1.89,-8.77 -5.93,-11.09 3.61,-2.4 5.5,-6.01 5.5,-10.9l0 -4.13c0,-9.53 -4.47,-14.17 -16.32,-14.17l-49.48 0zm45.78 34.36c5.67,0 7.48,1.89 7.48,5.41l0 3.27c0,3.6 -1.81,5.23 -6.36,5.23l-35.22 0c-0.77,0 -1.11,-0.34 -1.11,-1.11l0 -12.8 35.21 0zm-35.21 -21.39c0,-0.77 0.34,-1.12 1.11,-1.12l35.14 0c4.46,0 6.35,1.63 6.35,5.16l0 2.92c0,3.35 -1.72,5.07 -7.39,5.07l-35.21 0 0 -12.03z"/>
  </g>
 </g>
</svg>
