<?xml version="1.0" encoding="UTF-8"?>
<!DOCTYPE svg PUBLIC "-//W3C//DTD SVG 1.1//EN" "http://www.w3.org/Graphics/SVG/1.1/DTD/svg11.dtd">
<!-- Creator: CorelDRAW -->
<svg xmlns="http://www.w3.org/2000/svg" xml:space="preserve" width="1956px" height="487px" version="1.1" style="shape-rendering:geometricPrecision; text-rendering:geometricPrecision; image-rendering:optimizeQuality; fill-rule:evenodd; clip-rule:evenodd"
viewBox="0 0 701 174.42"
 xmlns:xlink="http://www.w3.org/1999/xlink"
 xmlns:xodm="http://www.corel.com/coreldraw/odm/2003">
 <defs>
  <style type="text/css">
   <![CDATA[
    .fil0 {fill:white}
    .fil1 {fill:white;fill-rule:nonzero}
   ]]>
  </style>
 </defs>
 <g id="Layer_x0020_1">
  <metadata id="CorelCorpID_0Corel-Layer"/>
  <g id="_2190061429488">
   <path class="fil0" d="M88.98 119.51l-81.13 -43.27 4.12 -2.2 -7.85 -4.19 -4.12 2.2 0 23.27 88.98 47.46 88.98 -47.46 0 -8.38 -88.98 47.47 -40.47 -21.59 0 -6.43 40.47 21.59 0 -8.47zm58.18 -87.38c-4.63,2.47 1.02,-0.54 -8.06,4.3 2.69,1.43 5.37,2.86 8.06,4.3 2.68,-1.44 5.37,-2.87 8.05,-4.3 -2.68,-1.43 -5.37,-2.87 -8.05,-4.3zm-17.26 -16.88c-6.72,3.59 1.48,-0.79 -11.71,6.25 3.91,2.08 7.81,4.16 11.71,6.24 3.9,-2.08 7.8,-4.16 11.7,-6.24 -3.9,-2.08 -7.8,-4.16 -11.7,-6.25zm-26.9 -10.26c3.12,1.66 6.24,3.32 9.35,4.99 3.12,-1.67 6.24,-3.33 9.35,-4.99 -3.11,-1.66 -6.23,-3.33 -9.35,-4.99 -5.36,2.86 1.19,-0.63 -9.35,4.99zm-41.64 18.55c2.54,-1.36 5.07,-2.71 7.6,-4.06 -2.53,-1.35 -5.06,-2.7 -7.6,-4.05 -4.36,2.32 0.96,-0.52 -7.6,4.05 2.54,1.35 5.07,2.7 7.6,4.06zm13.48 -4.1c6.27,3.34 12.53,6.68 18.8,10.03 6.26,-3.35 12.53,-6.69 18.79,-10.03 -6.26,-3.34 -12.53,-6.68 -18.79,-10.03 -10.79,5.76 2.38,-1.26 -18.8,10.03zm-74.84 44.24c29.66,15.82 59.32,31.64 88.98,47.46 29.66,-15.82 59.32,-31.64 88.98,-47.46l-66.37 -35.41 -17.1 9.12 1.34 0.72c2.28,1.21 4.57,2.44 6.85,3.65 -6.85,3.66 -13.7,7.31 -20.55,10.96 -6.85,3.66 -13.7,7.31 -20.55,10.96 2.28,1.22 4.56,2.43 6.84,3.65 6.85,-3.65 13.7,-7.31 20.55,-10.96 6.85,-3.66 13.7,-7.31 20.56,-10.96 5.71,3.04 11.42,6.09 17.13,9.14 5.7,3.04 11.4,6.09 17.11,9.13 -9.14,4.87 -18.28,9.75 -27.41,14.62 -9.14,4.86 -18.26,9.73 -27.39,14.61 -4.57,-2.44 -9.13,-4.88 -13.7,-7.31 6.85,-3.66 13.7,-7.31 20.54,-10.96 6.85,-3.65 13.71,-7.3 20.56,-10.96 -2.28,-1.21 -4.57,-2.43 -6.85,-3.65 -6.85,3.65 -13.71,7.31 -20.56,10.96 -6.84,3.65 -13.7,7.31 -20.54,10.95 -5.71,-3.04 -11.41,-6.08 -17.12,-9.13 -5.7,-3.04 -11.42,-6.09 -17.12,-9.13 9.13,-4.87 18.26,-9.74 27.39,-14.61l26.55 -14.16 -11.23 -5.99 -7.24 3.86 -5.86 -3.13 -63.79 34.03zm113.79 -20.74c-2.87,-1.54 -5.74,-3.07 -8.61,-4.6 9.7,-5.17 3.67,-1.96 8.61,-4.59 2.87,1.53 5.74,3.06 8.61,4.59 -2.87,1.53 -5.74,3.06 -8.61,4.6zm-24.81 108.21l-81.13 -43.27 4.12 -2.2 -7.85 -4.19 -4.12 2.2 0 7.45 0 15.82 88.98 47.46 57.58 -30.71 7.85 -4.19 23.55 -12.56 0 -8.38 -23.55 12.57 -7.85 4.18 -57.58 30.72 -40.47 -21.59 -9.33 -4.98 0 -6.43 10.16 5.42 39.64 21.15 0 -8.47zm-55.73 -21.26l-5.93 -3.16 0 6.42 5.93 3.17 0 -6.43zm-2.54 -32.99l-5.93 -3.17 0 6.43 5.93 3.16 0 -6.42zm11.87 6.32l-5.94 -3.16 0 6.43 5.94 3.16 0 -6.43z"/>
   <path class="fil1" d="M252.23 142.93c-8.6,0 -15.97,-2.03 -22.11,-6.11 -6.13,-4.07 -10.41,-9.7 -12.83,-16.86l8.06 -4.7c1.71,5.82 4.84,10.36 9.41,13.63 4.57,3.27 10.43,4.91 17.6,4.91 6.99,0 12.43,-1.55 16.33,-4.64 3.89,-3.09 5.84,-7.19 5.84,-12.29 0,-4.93 -1.79,-8.65 -5.37,-11.15 -3.59,-2.51 -9.5,-5.11 -17.74,-7.8 -9.76,-3.22 -16.21,-5.82 -19.35,-7.79 -7.16,-4.3 -10.75,-10.53 -10.75,-18.68 0,-7.97 2.78,-14.26 8.33,-18.88 5.56,-4.61 12.41,-6.92 20.56,-6.92 7.35,0 13.71,1.91 19.08,5.71 5.38,3.81 9.36,8.67 11.96,14.58l-7.93 4.44c-4.3,-10.39 -12,-15.59 -23.11,-15.59 -5.82,0 -10.52,1.43 -14.11,4.3 -3.58,2.87 -5.37,6.85 -5.37,11.96 0,4.66 1.61,8.15 4.84,10.48 3.22,2.33 8.55,4.7 15.98,7.12 3.41,1.17 5.85,1.99 7.33,2.49 1.48,0.49 3.63,1.3 6.45,2.42 2.82,1.12 4.9,2.1 6.25,2.95 1.34,0.85 2.97,2.02 4.9,3.49 1.92,1.48 3.31,2.96 4.16,4.44 0.86,1.48 1.62,3.27 2.29,5.37 0.67,2.11 1.01,4.37 1.01,6.79 0,7.97 -2.91,14.35 -8.74,19.15 -5.82,4.79 -13.48,7.18 -22.97,7.18zm46.49 -1.61l0 -98.08 8.86 0 0 98.08 -8.86 0zm85.45 -67.18l8.87 0 0 67.18 -8.87 0 0 -13.17c-6.18,9.86 -15.23,14.78 -27.14,14.78 -9.58,0 -17.76,-3.4 -24.52,-10.21 -6.76,-6.81 -10.15,-15.14 -10.15,-24.99 0,-9.85 3.39,-18.18 10.15,-24.99 6.76,-6.81 14.94,-10.21 24.52,-10.21 11.91,0 20.96,4.92 27.14,14.78l0 -13.17zm-45.28 52.47c5.11,5.15 11.38,7.72 18.81,7.72 7.44,0 13.71,-2.57 18.81,-7.72 5.11,-5.15 7.66,-11.44 7.66,-18.88 0,-7.43 -2.55,-13.73 -7.66,-18.88 -5.1,-5.15 -11.37,-7.72 -18.81,-7.72 -7.43,0 -13.7,2.57 -18.81,7.72 -5.1,5.15 -7.66,11.45 -7.66,18.88 0,7.44 2.56,13.73 7.66,18.88zm108.57 -43.87l-19.35 0 0 40.71c0,3.67 0.72,6.29 2.15,7.86 1.43,1.57 3.58,2.38 6.45,2.42 2.87,0.05 6.45,-0.02 10.75,-0.2l0 7.79c-9.41,1.44 -16.46,0.76 -21.16,-2.01 -4.71,-2.78 -7.06,-8.07 -7.06,-15.86l0 -40.71 -14.11 0 0 -8.6 14.11 0 0 -16.12 8.87 -2.69 0 18.81 19.35 0 0 8.6zm41.79 -10.21c9.94,0 17.98,3.51 24.11,10.54 6.14,7.04 9.21,15.34 9.21,24.93 0,0.98 -0.09,2.37 -0.27,4.16l-58.99 0c0.9,6.81 3.79,12.21 8.67,16.2 4.88,3.98 10.91,5.97 18.07,5.97 5.11,0 9.52,-1.05 13.24,-3.15 3.71,-2.11 6.51,-4.86 8.39,-8.27l7.8 4.57c-2.96,4.75 -6.99,8.51 -12.1,11.29 -5.1,2.78 -10.92,4.16 -17.46,4.16 -10.57,0 -19.17,-3.31 -25.8,-9.94 -6.63,-6.63 -9.94,-15.05 -9.94,-25.26 0,-10.03 3.27,-18.41 9.8,-25.13 6.54,-6.71 14.96,-10.07 25.27,-10.07zm0 8.6c-6.99,0 -12.84,2.08 -17.54,6.25 -4.7,4.16 -7.5,9.56 -8.4,16.19l50.12 0c-0.89,-7.08 -3.63,-12.59 -8.2,-16.53 -4.56,-3.94 -9.89,-5.91 -15.98,-5.91zm84.11 -33.86c12.9,0 23.67,4.52 32.31,13.57 8.65,9.05 12.97,20.2 12.97,33.45 0,13.26 -4.32,24.41 -12.97,33.46 -8.64,9.05 -19.41,13.57 -32.31,13.57l-37.36 0 0 -94.05 37.36 0zm0 76.32c8.15,0 14.78,-2.71 19.88,-8.13 5.11,-5.42 7.66,-12.48 7.66,-21.17 0,-8.68 -2.55,-15.74 -7.66,-21.16 -5.1,-5.42 -11.73,-8.13 -19.88,-8.13l-18.81 0 0 58.59 18.81 0zm115.28 -31.04c8.24,4.75 12.36,11.91 12.36,21.5 0,7.97 -2.82,14.51 -8.46,19.61 -5.64,5.11 -12.59,7.66 -20.83,7.66l-39.9 0 0 -94.05 37.08 0c8.06,0 14.85,2.48 20.36,7.45 5.51,4.98 8.26,11.31 8.26,19.02 0,7.79 -2.95,14.06 -8.87,18.81zm-19.75 -27.95l-18.54 0 0 20.69 18.54 0c2.87,0 5.26,-0.98 7.19,-2.95 1.93,-1.97 2.89,-4.44 2.89,-7.39 0,-2.96 -0.94,-5.42 -2.82,-7.39 -1.88,-1.97 -4.3,-2.96 -7.26,-2.96zm2.82 59.39c3.14,0 5.74,-1.05 7.8,-3.16 2.06,-2.1 3.09,-4.77 3.09,-7.99 0,-3.14 -1.03,-5.76 -3.09,-7.86 -2.06,-2.11 -4.66,-3.16 -7.8,-3.16l-21.36 0 0 22.17 21.36 0z"/>
  </g>
 </g>
</svg>
